<svg width="188" height="218" viewBox="0 0 188 218" fill="none" xmlns="http://www.w3.org/2000/svg">
<g filter="url(#filter0_d_112_531)">
<path fill-rule="evenodd" clip-rule="evenodd" d="M79.7844 36.0391C79.7844 28.0752 86.2403 21.6193 94.2042 21.6193C102.168 21.6193 108.624 28.0752 108.624 36.0391V36.5926C125.426 42.5313 137.463 58.5551 137.463 77.3904V109.665H137.706C137.706 109.665 137.761 116.958 142.575 116.958C144.385 116.958 146.301 117.699 147.988 118.625C151.424 120.509 152.959 124.427 152.959 128.345C152.959 136.199 146.592 142.566 138.739 142.566H49.3489C41.6723 142.566 35.4492 136.343 35.4492 128.666C35.4492 124.57 37.1795 120.521 40.7946 118.594C42.5041 117.683 44.365 116.958 45.9582 116.958C48.5468 116.958 50.1114 114.297 50.9447 112.19V77.3905C50.9447 58.555 62.9825 42.5311 79.7844 36.5925V36.0391ZM93.7723 169C103.555 169 111.485 164.986 111.485 160.035C111.485 155.083 103.555 151.069 93.7723 151.069C83.9898 151.069 76.0594 155.083 76.0594 160.035C76.0594 164.986 83.9898 169 93.7723 169Z" fill="white"/>
</g>
<g filter="url(#filter1_d_112_531)">
<ellipse cx="140.517" cy="144.597" rx="15.2072" ry="15.3941" fill="#81CCAB"/>
</g>
<path d="M143.955 110.732C140.913 110.732 139.083 108.266 139.083 104.321V104.304C139.083 100.36 140.913 97.9017 143.955 97.9017C146.989 97.9017 148.828 100.36 148.828 104.304V104.321C148.828 108.266 146.989 110.732 143.955 110.732ZM143.955 108.919C145.623 108.919 146.594 107.183 146.594 104.321V104.304C146.594 101.442 145.623 99.7236 143.955 99.7236C142.28 99.7236 141.317 101.442 141.317 104.304V104.321C141.317 107.183 142.28 108.919 143.955 108.919Z" fill="white"/>
<path fill-rule="evenodd" clip-rule="evenodd" d="M81.2432 99.9199C81.2432 100.613 81.6546 101.238 82.3043 101.479C84.3876 102.254 89.2188 103.838 93.9017 103.838C98.5724 103.838 103.243 102.262 105.263 101.485C105.9 101.24 106.3 100.623 106.3 99.94C106.3 98.683 104.991 97.8108 103.8 98.2133C101.424 99.0165 97.6557 100.036 93.8386 100.036C89.9898 100.036 86.1411 98.9995 83.7298 98.1934C82.5419 97.7962 81.2432 98.6674 81.2432 99.9199Z" fill="#81CCAB"/>
<path opacity="0.2" fill-rule="evenodd" clip-rule="evenodd" d="M74.3311 84.6152C74.3311 84.1242 74.521 83.6512 74.8915 83.3291C75.8096 82.5311 77.7173 81.0966 79.5691 81.0966C81.4287 81.0966 83.2883 82.5433 84.1706 83.3392C84.522 83.6561 84.6996 84.1126 84.6996 84.5858C84.6996 86.2864 82.378 87.2476 80.7428 86.7809C80.3504 86.6688 79.9473 86.6026 79.5429 86.6026C79.1151 86.6026 78.6872 86.6768 78.2709 86.8008C76.6351 87.2883 74.3311 86.3221 74.3311 84.6152Z" fill="#97C285"/>
<path opacity="0.2" fill-rule="evenodd" clip-rule="evenodd" d="M103.708 84.6152C103.708 84.1242 103.898 83.6512 104.269 83.3291C105.187 82.5311 107.095 81.0966 108.947 81.0966C110.806 81.0966 112.666 82.5433 113.548 83.3392C113.899 83.6561 114.077 84.1126 114.077 84.5858C114.077 86.2864 111.755 87.2476 110.12 86.7809C109.728 86.6688 109.325 86.6026 108.92 86.6026C108.493 86.6026 108.065 86.6768 107.648 86.8008C106.013 87.2883 103.708 86.3221 103.708 84.6152Z" fill="#97C285"/>
<path opacity="0.1" d="M35.0631 54.3706C33.3861 44.9513 40.8071 33.8119 49.496 31.496" stroke="#7BC9C0" stroke-width="3" stroke-linecap="round" stroke-linejoin="round"/>
<path opacity="0.1" d="M21.3086 50.6107C19.1377 38.4177 28.7441 23.9979 39.9917 21" stroke="#7BC9C0" stroke-width="3" stroke-linecap="round" stroke-linejoin="round"/>
<defs>
<filter id="filter0_d_112_531" x="0.449219" y="0.619263" width="187.51" height="217.381" filterUnits="userSpaceOnUse" color-interpolation-filters="sRGB">
<feFlood flood-opacity="0" result="BackgroundImageFix"/>
<feColorMatrix in="SourceAlpha" type="matrix" values="0 0 0 0 0 0 0 0 0 0 0 0 0 0 0 0 0 0 127 0" result="hardAlpha"/>
<feOffset dy="14"/>
<feGaussianBlur stdDeviation="17.5"/>
<feColorMatrix type="matrix" values="0 0 0 0 0.208044 0 0 0 0 0.283314 0 0 0 0 0.429427 0 0 0 0.057 0"/>
<feBlend mode="normal" in2="BackgroundImageFix" result="effect1_dropShadow_112_531"/>
<feBlend mode="normal" in="SourceGraphic" in2="effect1_dropShadow_112_531" result="shape"/>
</filter>
<filter id="filter1_d_112_531" x="117.31" y="123.203" width="46.4146" height="46.7881" filterUnits="userSpaceOnUse" color-interpolation-filters="sRGB">
<feFlood flood-opacity="0" result="BackgroundImageFix"/>
<feColorMatrix in="SourceAlpha" type="matrix" values="0 0 0 0 0 0 0 0 0 0 0 0 0 0 0 0 0 0 127 0" result="hardAlpha"/>
<feOffset dy="2"/>
<feGaussianBlur stdDeviation="4"/>
<feColorMatrix type="matrix" values="0 0 0 0 0.337255 0 0 0 0 0.411765 0 0 0 0 1 0 0 0 0.15 0"/>
<feBlend mode="normal" in2="BackgroundImageFix" result="effect1_dropShadow_112_531"/>
<feBlend mode="normal" in="SourceGraphic" in2="effect1_dropShadow_112_531" result="shape"/>
</filter>
</defs>
</svg>
