<svg width="517" height="498" viewBox="0 0 517 498" fill="none" xmlns="http://www.w3.org/2000/svg">
<path d="M234.35 12.6119C217.738 18.0252 202.096 26.0566 188.017 36.4025L189.058 45.0135C203.137 34.6585 218.778 26.6143 235.39 21.1838C267.889 10.3253 302.813 8.97153 336.055 17.2816L335.015 8.65761C301.767 0.37089 266.845 1.74268 234.35 12.6119Z" fill="#B8B8B8" stroke="#A6A6A6" stroke-linecap="round" stroke-linejoin="round"/>
<path d="M235.39 21.1838C218.778 26.6143 203.138 34.6585 189.058 45.0135L190.085 53.6375C204.168 43.2801 219.814 35.2358 236.431 29.8078C268.931 18.9557 303.853 17.602 337.096 25.9055L336.055 17.2946C302.814 8.98034 267.891 10.3296 235.39 21.1838Z" fill="white" stroke="#A6A6A6" stroke-linecap="round" stroke-linejoin="round"/>
<path d="M236.431 29.8077C219.814 35.2357 204.168 43.28 190.085 53.6374L191.126 62.2483C205.212 51.8959 220.856 43.852 237.472 38.4186C269.971 27.5601 304.894 26.2063 338.136 34.5164L337.096 25.8924C303.852 17.5931 268.93 18.9514 236.431 29.8077Z" fill="#B8B8B8" stroke="#A6A6A6" stroke-linecap="round" stroke-linejoin="round"/>
<path d="M237.472 38.4187C220.856 43.852 205.212 51.8959 191.126 62.2484L192.167 70.8593C206.25 60.5062 221.895 52.4662 238.512 47.0426C271.011 36.1841 305.935 34.8303 339.177 43.1404L338.136 34.5034C304.893 26.1976 269.969 27.5559 237.472 38.4187Z" fill="white" stroke="#A6A6A6" stroke-linecap="round" stroke-linejoin="round"/>
<path d="M238.512 47.0427C221.895 52.4663 206.25 60.5062 192.167 70.8594L193.207 79.4833C207.285 69.1261 222.926 61.0817 239.54 55.6536C272.044 44.8012 306.97 43.4475 340.218 51.7514L339.177 43.1535C305.936 34.8392 271.012 36.1885 238.512 47.0427Z" fill="#B8B8B8" stroke="#A6A6A6" stroke-linecap="round" stroke-linejoin="round"/>
<path d="M368.613 19.1156L360.717 31.2516C360.408 31.7288 360.219 32.2742 360.167 32.8406C360.115 33.4071 360.201 33.9777 360.418 34.5034L365.933 47.8881C366.185 48.4927 366.262 49.1558 366.156 49.802C366.05 50.4482 365.764 51.0516 365.332 51.5435C364.899 52.0355 364.338 52.3962 363.711 52.5847C363.083 52.7732 362.416 52.7819 361.784 52.6098L347.801 48.8507C347.251 48.7051 346.675 48.6941 346.12 48.8186C345.565 48.9432 345.049 49.1996 344.614 49.5661L333.597 58.9575C333.098 59.3837 332.489 59.6615 331.84 59.7594C331.191 59.8573 330.527 59.7714 329.925 59.5113C329.322 59.2513 328.804 58.8276 328.43 58.2883C328.056 57.749 327.841 57.1156 327.808 56.46L327.067 42.0087C327.037 41.4408 326.869 40.8887 326.58 40.3995C326.29 39.9102 325.886 39.4984 325.402 39.1991L313.071 31.6158C312.513 31.2733 312.062 30.7816 311.768 30.1963C311.475 29.611 311.351 28.9553 311.411 28.3033C311.47 27.6513 311.711 27.0288 312.105 26.5063C312.5 25.9838 313.032 25.582 313.643 25.3462L327.171 20.1432C327.689 19.952 328.154 19.6415 328.529 19.237C328.904 18.8325 329.179 18.3453 329.33 17.8148L332.79 3.68873C332.944 3.0523 333.272 2.47143 333.738 2.01169C334.204 1.55195 334.789 1.23164 335.428 1.08691C336.066 0.942167 336.733 0.978775 337.351 1.19258C337.97 1.40639 338.517 1.7889 338.93 2.29693L348.035 13.5614C348.393 14.006 348.853 14.3567 349.377 14.5833C349.9 14.81 350.471 14.9057 351.04 14.8622L365.465 13.7565C366.104 13.7268 366.739 13.8722 367.301 14.177C367.864 14.4818 368.332 14.9344 368.656 15.486C368.98 16.0376 369.148 16.6672 369.14 17.3069C369.132 17.9465 368.95 18.5719 368.613 19.1156Z" fill="#92E3A9" stroke="#A6A6A6" stroke-linecap="round" stroke-linejoin="round"/>
<path d="M357.504 79.6654L352.601 85.4537C352.411 85.6816 352.278 85.9519 352.215 86.2417C352.152 86.5315 352.159 86.8323 352.236 87.1187L354.253 94.3899C354.347 94.719 354.347 95.0681 354.252 95.3971C354.157 95.7261 353.971 96.0216 353.715 96.2498C353.46 96.4779 353.146 96.6295 352.808 96.687C352.471 96.7446 352.124 96.7058 351.807 96.5751L344.809 93.7655C344.535 93.6507 344.237 93.606 343.942 93.6355C343.647 93.665 343.364 93.7679 343.118 93.9346L336.835 98.097C336.551 98.2891 336.219 98.3971 335.876 98.4086C335.534 98.4201 335.195 98.3347 334.899 98.1621C334.602 97.9895 334.361 97.7368 334.202 97.4331C334.043 97.1293 333.973 96.7868 334 96.445L334.507 88.9267C334.531 88.631 334.482 88.334 334.364 88.0618C334.246 87.7895 334.063 87.5506 333.831 87.3658L327.912 82.6701C327.644 82.4584 327.441 82.1754 327.326 81.8536C327.211 81.5318 327.189 81.1842 327.262 80.8504C327.335 80.5166 327.501 80.2101 327.74 79.9661C327.979 79.722 328.283 79.5502 328.615 79.4703L335.925 77.6362C336.219 77.5664 336.491 77.4255 336.718 77.2259C336.945 77.0263 337.119 76.7742 337.226 76.4916L339.827 69.4285C339.947 69.1094 340.154 68.8301 340.424 68.6218C340.693 68.4136 341.016 68.2846 341.355 68.2495C341.694 68.2144 342.036 68.2745 342.343 68.423C342.65 68.5715 342.909 68.8026 343.092 69.0903L347.085 75.49C347.245 75.7422 347.463 75.9521 347.721 76.1016C347.98 76.2511 348.27 76.3358 348.568 76.3485L356.1 76.6737C356.447 76.6718 356.788 76.7694 357.082 76.9549C357.376 77.1404 357.61 77.4061 357.758 77.7207C357.906 78.0352 357.96 78.3855 357.915 78.7301C357.87 79.0747 357.728 79.3992 357.504 79.6654Z" fill="#92E3A9" stroke="#A6A6A6" stroke-linecap="round" stroke-linejoin="round"/>
<path d="M200.452 53.4032C199.511 53.409 198.572 53.4873 197.643 53.6374C197.643 53 197.734 52.3366 197.734 51.6992C197.743 45.8112 195.47 40.1487 191.391 35.9023C187.312 31.6558 181.746 29.1561 175.862 28.9287C169.979 28.7013 164.236 30.7639 159.842 34.6829C155.447 38.6019 152.743 44.072 152.299 49.9432C148.966 49.0971 145.469 49.1386 142.157 50.0635C138.845 50.9884 135.832 52.7644 133.42 55.2149C131.007 57.6654 129.278 60.705 128.405 64.0312C127.532 67.3573 127.545 70.8541 128.443 74.1737C129.341 77.4932 131.093 80.5197 133.524 82.9521C135.955 85.3845 138.98 87.1379 142.299 88.038C145.618 88.938 149.115 88.9533 152.441 88.0823C155.768 87.2113 158.809 85.4843 161.261 83.0733C162.87 84.6949 164.791 85.9737 166.908 86.8323C169.025 87.691 171.294 88.1117 173.579 88.0692C175.863 88.0266 178.115 87.5217 180.198 86.5848C182.282 85.6479 184.154 84.2985 185.702 82.618C187.56 85.1417 190.034 87.1471 192.887 88.4429C195.741 89.7388 198.879 90.2818 202.002 90.0203C205.125 89.7588 208.128 88.7013 210.727 86.9489C213.325 85.1965 215.431 82.8075 216.843 80.01C218.255 77.2124 218.928 74.0996 218.795 70.9685C218.663 67.8373 217.73 64.7924 216.086 62.1242C214.443 59.4559 212.142 57.2534 209.406 55.7267C206.669 54.2 203.586 53.4 200.452 53.4032Z" fill="white" stroke="#A6A6A6" stroke-linecap="round" stroke-linejoin="round"/>
<path d="M117.868 279.759V175.023C117.868 170.024 119.854 165.23 123.388 161.696C126.923 158.161 131.717 156.175 136.716 156.175C141.716 156.175 146.511 158.161 150.048 161.695C153.584 165.229 155.573 170.023 155.577 175.023V183.439" stroke="#263238" stroke-width="4" stroke-linecap="round" stroke-linejoin="round"/>
<path d="M155.121 186.157V227.963" stroke="#263238" stroke-linecap="round" stroke-linejoin="round"/>
<path d="M135.584 216.595V237.043" stroke="#263238" stroke-linecap="round" stroke-linejoin="round"/>
<path d="M181.019 196.616L135.584 216.595" stroke="#263238" stroke-width="4" stroke-linecap="round" stroke-linejoin="round"/>
<path d="M181.019 219.782V196.616" stroke="#263238" stroke-linecap="round" stroke-linejoin="round"/>
<path d="M160.116 186.157C160.116 185.17 159.823 184.204 159.274 183.382C158.726 182.561 157.945 181.921 157.033 181.543C156.12 181.165 155.116 181.066 154.147 181.259C153.178 181.451 152.288 181.927 151.589 182.626C150.891 183.324 150.415 184.214 150.222 185.183C150.03 186.152 150.129 187.156 150.507 188.069C150.885 188.982 151.525 189.762 152.346 190.311C153.168 190.859 154.133 191.152 155.121 191.152C156.446 191.152 157.717 190.626 158.653 189.689C159.59 188.753 160.116 187.482 160.116 186.157Z" fill="#92E3A9" stroke="#263238" stroke-linecap="round" stroke-linejoin="round"/>
<path d="M150.517 244.119L144.117 251.767L146.783 261.38L137.535 257.66L129.223 263.162L129.9 253.211L122.095 247.02L131.773 244.587L135.259 235.248L140.553 243.703L150.517 244.119Z" fill="#92E3A9" stroke="#263238" stroke-linecap="round" stroke-linejoin="round"/>
<path d="M148.514 236.887C151.287 236.887 153.534 234.639 153.534 231.866C153.534 229.093 151.287 226.845 148.514 226.845C145.741 226.845 143.493 229.093 143.493 231.866C143.493 234.639 145.741 236.887 148.514 236.887Z" fill="white" stroke="#263238" stroke-linecap="round" stroke-linejoin="round"/>
<path d="M155.511 233.245C158.708 233.245 161.3 230.653 161.3 227.456C161.3 224.259 158.708 221.668 155.511 221.668C152.315 221.668 149.723 224.259 149.723 227.456C149.723 230.653 152.315 233.245 155.511 233.245Z" fill="white" stroke="#263238" stroke-linecap="round" stroke-linejoin="round"/>
<path d="M162.002 237.225C164.581 237.225 166.672 235.134 166.672 232.555C166.672 229.976 164.581 227.885 162.002 227.885C159.423 227.885 157.333 229.976 157.333 232.555C157.333 235.134 159.423 237.225 162.002 237.225Z" fill="white" stroke="#263238" stroke-linecap="round" stroke-linejoin="round"/>
<path d="M159.401 232.438C159.398 233.292 159.143 234.125 158.667 234.834C158.19 235.542 157.515 236.094 156.726 236.419C155.936 236.743 155.069 236.827 154.232 236.659C153.395 236.491 152.627 236.079 152.024 235.474C151.421 234.87 151.011 234.1 150.846 233.263C150.68 232.425 150.766 231.558 151.094 230.769C151.421 229.981 151.974 229.307 152.684 228.833C153.394 228.36 154.229 228.107 155.082 228.107C155.65 228.107 156.213 228.219 156.738 228.437C157.263 228.654 157.739 228.974 158.14 229.376C158.542 229.778 158.859 230.256 159.076 230.781C159.292 231.307 159.402 231.87 159.401 232.438Z" fill="white" stroke="#263238" stroke-linecap="round" stroke-linejoin="round"/>
<path d="M176.363 216.569C175.411 216.573 174.463 216.691 173.54 216.92C175.626 217.999 177.335 219.687 178.438 221.761C179.541 223.834 179.987 226.194 179.716 228.527C179.445 230.86 178.469 233.055 176.92 234.82C175.371 236.586 173.321 237.837 171.042 238.409C172.598 239.211 174.315 239.65 176.064 239.693C177.813 239.735 179.55 239.38 181.142 238.655C182.734 237.929 184.141 236.851 185.257 235.502C186.372 234.154 187.167 232.57 187.581 230.869C187.995 229.169 188.018 227.397 187.648 225.687C187.278 223.976 186.524 222.372 185.444 220.995C184.364 219.618 182.985 218.505 181.412 217.738C179.839 216.971 178.113 216.572 176.363 216.569Z" fill="white" stroke="#263238" stroke-linecap="round" stroke-linejoin="round"/>
<path d="M126.245 374.22H386.641C390.553 374.22 394.305 375.774 397.071 378.54C399.838 381.306 401.392 385.058 401.392 388.97V411.681H111.494V388.905C111.511 385.004 113.073 381.269 115.837 378.517C118.602 375.765 122.344 374.22 126.245 374.22Z" fill="#92E3A9" stroke="#263238" stroke-linecap="round" stroke-linejoin="round"/>
<path d="M160.155 374.22H119.051C117.109 374.164 115.223 374.879 113.806 376.21C112.39 377.541 111.559 379.379 111.494 381.322V411.681H160.155V374.22Z" fill="white" stroke="#263238" stroke-linecap="round" stroke-linejoin="round"/>
<path d="M124.827 281.606H119.494V411.057H124.827V281.606Z" fill="white" stroke="#263238" stroke-linecap="round" stroke-linejoin="round"/>
<path d="M139.642 281.606H134.309V411.057H139.642V281.606Z" fill="white" stroke="#263238" stroke-linecap="round" stroke-linejoin="round"/>
<path d="M154.445 281.606H149.112V411.057H154.445V281.606Z" fill="white" stroke="#263238" stroke-linecap="round" stroke-linejoin="round"/>
<path d="M169.26 281.606H163.927V411.057H169.26V281.606Z" fill="white" stroke="#263238" stroke-linecap="round" stroke-linejoin="round"/>
<path d="M184.063 281.606H178.73V411.057H184.063V281.606Z" fill="white" stroke="#263238" stroke-linecap="round" stroke-linejoin="round"/>
<path d="M198.878 281.606H193.545V411.057H198.878V281.606Z" fill="white" stroke="#263238" stroke-linecap="round" stroke-linejoin="round"/>
<path d="M213.694 281.606H208.361V411.057H213.694V281.606Z" fill="white" stroke="#263238" stroke-linecap="round" stroke-linejoin="round"/>
<path d="M228.496 281.606H223.163V411.057H228.496V281.606Z" fill="white" stroke="#263238" stroke-linecap="round" stroke-linejoin="round"/>
<path d="M243.312 281.606H237.979V411.057H243.312V281.606Z" fill="white" stroke="#263238" stroke-linecap="round" stroke-linejoin="round"/>
<path d="M258.114 281.606H252.781V411.057H258.114V281.606Z" fill="white" stroke="#263238" stroke-linecap="round" stroke-linejoin="round"/>
<path d="M272.93 281.606H267.597V411.057H272.93V281.606Z" fill="white" stroke="#263238" stroke-linecap="round" stroke-linejoin="round"/>
<path d="M287.732 281.606H282.399V411.057H287.732V281.606Z" fill="white" stroke="#263238" stroke-linecap="round" stroke-linejoin="round"/>
<path d="M302.548 281.606H297.215V411.057H302.548V281.606Z" fill="white" stroke="#263238" stroke-linecap="round" stroke-linejoin="round"/>
<path d="M317.35 281.606H312.017V411.057H317.35V281.606Z" fill="white" stroke="#263238" stroke-linecap="round" stroke-linejoin="round"/>
<path d="M332.166 281.606H326.833V411.057H332.166V281.606Z" fill="white" stroke="#263238" stroke-linecap="round" stroke-linejoin="round"/>
<path d="M346.968 281.606H341.635V411.057H346.968V281.606Z" fill="white" stroke="#263238" stroke-linecap="round" stroke-linejoin="round"/>
<path d="M361.784 281.606H356.451V411.057H361.784V281.606Z" fill="white" stroke="#263238" stroke-linecap="round" stroke-linejoin="round"/>
<path d="M376.599 281.606H371.266V411.057H376.599V281.606Z" fill="white" stroke="#263238" stroke-linecap="round" stroke-linejoin="round"/>
<path d="M391.402 281.606H386.069V411.057H391.402V281.606Z" fill="white" stroke="#263238" stroke-linecap="round" stroke-linejoin="round"/>
<path d="M401.392 279.733H111.494V284.741H401.392V279.733Z" fill="white" stroke="#263238" stroke-linecap="round" stroke-linejoin="round"/>
<path d="M401.392 407.935H111.494V426.067H401.392V407.935Z" fill="white" stroke="#263238" stroke-linecap="round" stroke-linejoin="round"/>
<path d="M111.507 231.567H103.508V476.718H111.507V231.567Z" fill="white" stroke="#263238" stroke-linecap="round" stroke-linejoin="round"/>
<path d="M111.507 253.575H103.508V476.718H111.507V253.575Z" fill="white" stroke="#263238" stroke-linecap="round" stroke-linejoin="round"/>
<path d="M408.065 231.567H400.065V476.718H408.065V231.567Z" fill="white" stroke="#263238" stroke-linecap="round" stroke-linejoin="round"/>
<path d="M408.065 253.575H400.065V476.718H408.065V253.575Z" fill="white" stroke="#263238" stroke-linecap="round" stroke-linejoin="round"/>
<path d="M14.1073 476.719H512.294" stroke="#263238" stroke-linecap="round" stroke-linejoin="round"/>
<path d="M254.745 497.791C289.228 497.791 317.181 493.522 317.181 488.256C317.181 482.99 289.228 478.722 254.745 478.722C220.263 478.722 192.31 482.99 192.31 488.256C192.31 493.522 220.263 497.791 254.745 497.791Z" fill="#92E3A9"/>
<path opacity="0.5" d="M254.745 497.791C289.228 497.791 317.181 493.522 317.181 488.256C317.181 482.99 289.228 478.722 254.745 478.722C220.263 478.722 192.31 482.99 192.31 488.256C192.31 493.522 220.263 497.791 254.745 497.791Z" fill="white"/>
<path d="M223.801 223.606C223.801 223.606 215.736 232.568 212.744 234.962C209.753 237.355 210.65 239.748 212.601 241.686C214.552 243.625 218.871 246.317 221.706 248.268C224.542 250.219 227.547 249.01 227.833 248.268C228.119 247.527 223.502 239.748 223.502 239.748L223.059 238.109C225.672 235.241 228.465 232.543 231.423 230.032C234.714 227.43 237.706 225.999 236.353 221.369C235 216.738 230.226 215.086 228.431 215.984C226.636 216.881 223.801 223.606 223.801 223.606Z" fill="white" stroke="#263238" stroke-linecap="round" stroke-linejoin="round"/>
<path d="M223.358 162.484C216.974 168.33 212.146 175.675 209.31 183.855C204.979 197.006 205.278 206.722 212.744 212.849C220.211 218.975 226.649 216.829 226.649 216.829L232.477 223.112C229.491 227.119 227.123 231.552 225.453 236.262C222.604 244.184 218.871 245.667 218.728 247.761C218.585 249.855 219.925 252.248 223.502 254.941C227.079 257.634 227.69 258.674 230.226 258.973C232.763 259.273 235.156 258.674 235.429 258.076C235.703 257.477 234.532 255.383 233.79 254.174C233.049 252.964 230.799 246.85 230.799 246.85C236.32 242.415 241.201 237.236 245.302 231.463C250.83 223.099 252.768 217.414 251.129 210.989C249.49 204.563 241.114 199.633 241.114 199.633C241.114 199.633 245.302 189.227 245.146 184.024C244.99 178.821 238.278 168.194 233.79 164.747C229.303 161.3 226.051 160.546 223.358 162.484Z" fill="white" stroke="#263238" stroke-linecap="round" stroke-linejoin="round"/>
<path d="M244.496 202.092C243.431 201.22 242.31 200.421 241.14 199.698C241.14 199.698 245.328 189.292 245.172 184.089C245.016 178.886 238.304 168.259 233.816 164.812C229.329 161.365 226.012 160.481 223.41 162.419C217.026 168.265 212.198 175.61 209.362 183.79C205.031 196.941 205.33 206.657 212.796 212.784C218.194 217.206 223.033 217.349 225.31 217.076C228.366 212.381 234.415 204.55 241.855 202.768C242.746 202.588 243.628 202.362 244.496 202.092Z" fill="#92E3A9" stroke="#263238" stroke-linecap="round" stroke-linejoin="round"/>
<path d="M212.731 231.202C218.126 231.202 222.5 226.526 222.5 220.757C222.5 214.989 218.126 210.312 212.731 210.312C207.336 210.312 202.963 214.989 202.963 220.757C202.963 226.526 207.336 231.202 212.731 231.202Z" fill="#B8B8B8" stroke="#263238" stroke-linecap="round" stroke-linejoin="round"/>
<path d="M208.855 210.013C210.573 207.715 212.075 205.264 213.343 202.69C214.24 200.739 221.563 197.305 222.006 198.059C222.448 198.814 222.305 199.997 220.965 201.793C219.625 203.588 216.777 205.383 216.633 205.825C216.49 206.267 215.58 210.612 215.58 210.612C218.038 207.784 220.643 205.088 223.384 202.534C225.921 200.44 229.654 198.202 230.109 198.632C230.452 199.225 230.656 199.887 230.708 200.57C230.708 200.57 234.142 199.269 234.61 201.012C234.753 201.506 234.77 202.028 234.658 202.531C234.547 203.033 234.311 203.499 233.972 203.887C233.972 203.887 237.758 204.004 237.003 206.996C236.582 208.753 235.763 210.391 234.61 211.782C234.652 213.801 234.205 215.8 233.309 217.61C231.813 220.445 229.407 224.634 224.945 226.273C220.484 227.912 211.639 227.573 208.205 225.674C204.771 223.775 206.566 219.249 207.307 215.815C207.703 213.851 208.22 211.913 208.855 210.013Z" fill="white" stroke="#263238" stroke-linecap="round" stroke-linejoin="round"/>
<path d="M230.682 200.596C230.682 200.596 223.658 208.517 222.305 209.857C220.952 211.197 220.367 211.951 220.367 211.951" fill="white"/>
<path d="M230.682 200.596C230.682 200.596 223.658 208.517 222.305 209.857C220.952 211.197 220.367 211.951 220.367 211.951" stroke="#263238" stroke-linecap="round" stroke-linejoin="round"/>
<path d="M233.92 203.913L225.596 214.488" stroke="#263238" stroke-linecap="round" stroke-linejoin="round"/>
<path d="M234.558 211.808L230.083 217.337" stroke="#263238" stroke-linecap="round" stroke-linejoin="round"/>
<path d="M220.666 135.611C222.067 132.882 224.093 130.524 226.58 128.729C229.067 126.934 231.943 125.753 234.974 125.283C244.535 123.982 250.518 126.779 253.952 130.811C257.386 134.843 256.645 142.518 256.944 143.818C257.191 144.937 258.739 145.704 259.428 146.537C262.862 150.738 259.194 158.244 256.033 161.639C254.115 163.593 251.804 165.118 249.252 166.112C246.7 167.105 243.966 167.545 241.231 167.401C235.351 167.167 227.898 165.489 223.58 161.248C216.634 154.393 216.295 143.623 220.666 135.611Z" fill="white" stroke="#263238" stroke-linecap="round" stroke-linejoin="round"/>
<path d="M240.841 147.89C240.841 147.89 242.935 145.041 245.471 146.095" stroke="#263238" stroke-linecap="round" stroke-linejoin="round"/>
<path d="M244.34 139.929C243.381 139.692 242.372 139.767 241.459 140.144C240.547 140.52 239.778 141.179 239.267 142.023" stroke="#263238" stroke-linecap="round" stroke-linejoin="round"/>
<path d="M251.455 144.404C251.947 143.891 252.579 143.532 253.272 143.373C253.965 143.213 254.69 143.26 255.357 143.506" stroke="#263238" stroke-linecap="round" stroke-linejoin="round"/>
<path d="M250.557 139.474C250.802 139.052 251.131 138.685 251.523 138.394C251.915 138.104 252.362 137.896 252.836 137.784C253.311 137.673 253.804 137.658 254.284 137.743C254.764 137.828 255.222 138.009 255.63 138.277" stroke="#263238" stroke-linecap="round" stroke-linejoin="round"/>
<path d="M252.053 148.592C252.281 148.988 252.401 149.436 252.401 149.893C252.401 150.349 252.281 150.798 252.053 151.194C251.734 151.747 251.209 152.153 250.592 152.321C249.976 152.489 249.318 152.406 248.762 152.091" stroke="#263238" stroke-linecap="round" stroke-linejoin="round"/>
<path d="M243.832 154.276C244.649 154.905 245.604 155.328 246.619 155.509C247.633 155.69 248.676 155.624 249.66 155.317" stroke="#263238" stroke-linecap="round" stroke-linejoin="round"/>
<path d="M311.536 97.4596C311.536 97.4596 322.918 96.9523 328.225 109.348C333.532 121.745 329.239 129.575 325.701 134.375C322.163 139.175 325.194 140.957 331.268 143.233C337.343 145.509 346.682 162.185 339.606 173.319C332.53 184.454 321.396 182.919 321.396 188.239C321.396 193.559 322.696 203.848 310.274 208.712C297.852 213.577 285.495 206.943 283.986 197.331C282.477 187.718 292.077 166.49 291.062 157.385C290.048 148.28 284.988 139.435 281.203 138.68C277.417 137.926 266.79 139.435 265.776 132.359C264.761 125.283 269.574 112.132 267.545 104.549C265.516 96.9653 258.192 91.3981 253.64 91.3981C249.087 91.3981 259.454 83.8147 273.151 86.8455C286.848 89.8762 301.208 98.227 305.761 98.9814C310.313 99.7359 311.536 97.4596 311.536 97.4596Z" fill="#263238" stroke="#263238" stroke-linecap="round" stroke-linejoin="round"/>
<path d="M243.039 71.6788C243.039 71.6788 236.21 70.1569 227.612 74.9566C219.014 79.7564 221.29 93.9215 228.119 98.227C234.948 102.532 242.531 100.503 244.808 98.4741C247.084 96.445 242.024 86.3382 245.315 81.5644C248.606 76.7907 247.578 72.6803 243.039 71.6788Z" fill="#263238" stroke="#263238" stroke-linecap="round" stroke-linejoin="round"/>
<path d="M240.242 89.356C239.735 90.1234 238.941 101.245 240.489 104.783C242.037 108.321 245.549 111.612 244.795 114.89C244.04 118.168 241.751 122.226 243.026 123.748C244.3 125.27 249.529 126.024 249.529 126.024C249.529 126.024 249.529 130.317 250.284 130.824C250.916 131.182 251.601 131.436 252.313 131.578C252.313 131.578 251.806 133.1 253.067 133.607C253.961 133.929 254.902 134.1 255.851 134.115C255.851 134.115 259.649 136.898 262.68 136.638C263.942 136.499 265.144 136.029 266.165 135.275C267.187 134.521 267.99 133.511 268.494 132.346C269.249 130.577 274.062 111.612 271.525 100.23C268.989 88.8487 253.822 85.818 248.008 86.0781C242.193 86.3383 240.242 89.356 240.242 89.356Z" fill="white" stroke="#263238" stroke-linecap="round" stroke-linejoin="round"/>
<path d="M249.594 108.594L250.609 111.872" stroke="#263238" stroke-linecap="round" stroke-linejoin="round"/>
<path d="M249.347 112.132C249.347 112.132 251.364 113.433 254.654 110.61" stroke="#263238" stroke-linecap="round" stroke-linejoin="round"/>
<path d="M246.056 104.796C246.056 104.796 244.535 101.505 251.116 102.272" stroke="#263238" stroke-linecap="round" stroke-linejoin="round"/>
<path d="M248.073 72.6804C248.073 72.6804 241.751 68.1278 234.675 76.2184C227.599 84.3091 235.429 89.6291 239.735 91.3981C244.04 93.1672 251.624 90.6307 251.624 90.6307C251.624 90.6307 257.178 99.4888 261.483 100.75C265.789 102.012 268.299 102.272 265.776 111.872C263.252 121.471 260.976 128.782 263.499 134.882C266.023 140.983 272.605 149.047 296.629 143.48C320.654 137.913 324.687 116.164 318.872 104.549C313.058 92.933 304.174 98.227 302.938 89.8762C301.702 81.5254 303.706 70.365 289.293 63.328C274.881 56.291 255.669 58.5282 248.073 72.6804Z" fill="#263238" stroke="#263238" stroke-linecap="round" stroke-linejoin="round"/>
<path d="M328.641 175.27C327.775 176.349 326.716 177.257 325.519 177.95" stroke="#B8B8B8" stroke-linecap="round" stroke-linejoin="round"/>
<path d="M280.682 105.94C288.318 105.875 295.628 103.989 303.107 113.459C313.448 126.57 307.244 129.328 306.892 137.262C306.541 145.197 313.11 149.32 322.41 152.091C329.174 154.081 333.024 163.72 330.8 171.082" stroke="#B8B8B8" stroke-linecap="round" stroke-linejoin="round"/>
<path d="M262.407 90.6567C262.407 90.6567 260.69 99.9571 271.72 104.445C272.524 104.77 273.35 105.04 274.192 105.251" stroke="#B8B8B8" stroke-linecap="round" stroke-linejoin="round"/>
<path d="M272.956 73.3959C276.429 74.8688 279.217 77.6011 280.76 81.0443C287.667 94.494 286.627 101.05 304.174 104.458C321.721 107.866 325.896 116.867 324.517 126.87C323.139 136.872 315.555 139.981 320.043 144.807C324.53 149.633 335.561 145.834 338.318 157.905" stroke="#B8B8B8" stroke-linecap="round" stroke-linejoin="round"/>
<path d="M261.379 74.1502C262.779 73.4776 264.269 73.0089 265.802 72.7584" stroke="#B8B8B8" stroke-linecap="round" stroke-linejoin="round"/>
<path d="M279.238 299.947C279.238 299.947 277.561 322.463 276.728 339.971C275.896 357.479 276.52 362.903 279.03 369.576C281.541 376.249 283.609 376.873 285.274 389.79C286.939 402.706 280.487 431.7 279.863 442.743C279.238 453.786 273.606 468.173 273.19 471.932C272.774 475.691 273.398 480.686 270.901 483.391C268.403 486.097 265.698 485.681 257.347 484.016C248.996 482.351 247.136 481.31 240.255 482.559C233.374 483.808 224.646 484.016 221.902 482.143C219.157 480.27 218.155 476.94 220.445 476.718C227.575 475.79 234.374 473.143 240.255 469.005C248.801 462.957 252.339 457.129 255.864 446.892C259.389 436.655 257.945 406.036 257.945 397.282C257.945 388.528 245.64 369.771 243.351 349.961C241.062 330.15 242.727 304.526 242.727 291.804C242.727 279.083 244.6 249.491 244.6 249.491L285.248 244.899C285.248 244.899 290.256 256.164 286.926 271.799C284.891 281.318 282.325 290.715 279.238 299.947Z" fill="#92E3A9"/>
<mask id="mask0_86_670" style="mask-type:luminance" maskUnits="userSpaceOnUse" x="219" y="244" width="70" height="242">
<path d="M279.238 299.947C279.238 299.947 277.561 322.463 276.728 339.971C275.896 357.479 276.52 362.903 279.03 369.576C281.541 376.249 283.609 376.873 285.274 389.79C286.939 402.706 280.487 431.7 279.863 442.743C279.238 453.786 273.606 468.173 273.19 471.932C272.774 475.691 273.398 480.686 270.901 483.391C268.403 486.097 265.698 485.681 257.347 484.016C248.996 482.351 247.136 481.31 240.255 482.559C233.374 483.808 224.646 484.016 221.902 482.143C219.157 480.27 218.155 476.94 220.445 476.718C227.575 475.79 234.374 473.143 240.255 469.005C248.801 462.957 252.339 457.129 255.864 446.892C259.389 436.655 257.945 406.036 257.945 397.282C257.945 388.528 245.64 369.771 243.351 349.961C241.062 330.15 242.727 304.526 242.727 291.804C242.727 279.083 244.6 249.491 244.6 249.491L285.248 244.899C285.248 244.899 290.256 256.164 286.926 271.799C284.891 281.318 282.325 290.715 279.238 299.947Z" fill="white"/>
</mask>
<g mask="url(#mask0_86_670)">
<path opacity="0.31" d="M279.238 299.947C279.238 299.947 277.561 322.463 276.728 339.971C275.896 357.479 276.52 362.903 279.03 369.576C281.541 376.249 283.609 376.873 285.274 389.79C286.939 402.706 280.487 431.7 279.863 442.743C279.238 453.786 273.606 468.173 273.19 471.932C272.774 475.691 273.398 480.686 270.901 483.391C268.403 486.097 265.698 485.681 257.347 484.016C248.996 482.351 247.136 481.31 240.255 482.559C233.374 483.808 224.646 484.016 221.902 482.143C219.157 480.27 218.155 476.94 220.445 476.718C227.575 475.79 234.374 473.143 240.255 469.005C248.801 462.957 252.339 457.129 255.864 446.892C259.389 436.655 257.945 406.036 257.945 397.282C257.945 388.528 245.64 369.771 243.351 349.961C241.062 330.15 242.727 304.526 242.727 291.804C242.727 279.083 244.6 249.491 244.6 249.491L285.248 244.899C285.248 244.899 290.256 256.164 286.926 271.799C284.891 281.318 282.325 290.715 279.238 299.947Z" fill="black"/>
</g>
<path d="M279.238 299.947C279.238 299.947 277.561 322.463 276.728 339.971C275.896 357.479 276.52 362.903 279.03 369.576C281.541 376.249 283.609 376.873 285.274 389.79C286.939 402.706 280.487 431.7 279.863 442.743C279.238 453.786 273.606 468.173 273.19 471.932C272.774 475.691 273.398 480.686 270.901 483.391C268.403 486.097 265.698 485.681 257.347 484.016C248.996 482.351 247.136 481.31 240.255 482.559C233.374 483.808 224.646 484.016 221.902 482.143C219.157 480.27 218.155 476.94 220.445 476.718C227.575 475.79 234.374 473.143 240.255 469.005C248.801 462.957 252.339 457.129 255.864 446.892C259.389 436.655 257.945 406.036 257.945 397.282C257.945 388.528 245.64 369.771 243.351 349.961C241.062 330.15 242.727 304.526 242.727 291.804C242.727 279.083 244.6 249.491 244.6 249.491L285.248 244.899C285.248 244.899 290.256 256.164 286.926 271.799C284.891 281.318 282.325 290.715 279.238 299.947Z" stroke="#263238" stroke-linecap="round" stroke-linejoin="round"/>
<path d="M223.84 485.186C223.84 485.186 222.11 485.733 223.71 487.476C225.31 489.219 227.326 490.819 238.187 492.301C249.048 493.784 259.103 492.301 264.735 491.755C270.367 491.209 276.793 491.092 279.746 489.609C282.698 488.126 282.152 487.072 281.619 485.993L281.086 484.926C281.086 484.926 283.687 488.139 261.652 488.269C239.618 488.399 231.215 487.333 229.212 486.799C227.209 486.266 223.84 485.186 223.84 485.186Z" stroke="#263238" stroke-linecap="round" stroke-linejoin="round"/>
<path d="M258.57 465.272C253.995 469.083 248.945 472.284 243.546 474.793C234.038 479.346 225.583 480.959 223.176 482.156C220.77 483.352 223.71 486.578 226.936 488.191C230.161 489.804 238.317 491.547 247.175 491.274C255.072 490.949 262.945 490.189 270.758 488.997C277.6 488.061 281.086 488.998 281.749 484.172C282.412 479.346 278.939 471.841 278.133 469.864C277.574 468.217 277.216 466.51 277.066 464.778L258.57 465.272Z" fill="white" stroke="#263238" stroke-linecap="round" stroke-linejoin="round"/>
<path d="M249.399 491.131C247.214 487.229 244.509 483.17 242.766 480.66C241.725 479.164 240.684 477.733 239.722 476.445C237.446 477.395 235.273 478.175 233.296 478.839C235.533 481.713 238.967 486.552 241.79 491.144C243.52 491.248 245.328 491.274 247.175 491.222L249.399 491.131Z" fill="#263238"/>
<path d="M268.559 489.245C270.715 483.652 273.155 478.173 275.87 472.829C276.936 472.647 278.003 472.413 279.109 472.114C278.692 471.086 278.328 470.267 278.133 469.772C278.055 469.59 277.99 469.382 277.925 469.174C270.593 470.954 262.88 470.296 255.955 467.301C255.149 467.912 254.16 468.602 252.99 469.382C258.2 471.987 263.944 473.349 269.769 473.363C270.55 473.363 271.343 473.363 272.15 473.271C269.477 478.607 267.115 484.092 265.073 489.7L268.559 489.245Z" fill="#263238"/>
<path d="M299.153 132.099C299.153 132.099 304.967 133.62 303.706 149.802C302.444 165.983 303.706 176.35 291.57 194.56C285.183 204.121 278.159 211.743 280.76 223.333C283.362 234.923 293.651 243.82 294.913 261.263C296.174 278.706 288.851 285.535 284.298 292.871C279.746 300.207 272.162 323.972 271.148 338.631C270.133 353.291 271.408 359.872 273.177 366.194C274.946 372.516 285.053 383.104 286.067 398.557C286.907 413.313 285.716 428.115 282.529 442.548C279.746 454.944 278.237 466.82 278.237 466.82C274.578 468.061 270.712 468.578 266.855 468.342C259.779 468.094 256.996 466.573 256.996 466.573C256.996 466.573 257.75 432.753 255.695 419.043C253.64 405.333 249.621 390.427 245.822 377.575C242.024 364.724 230.89 344.302 230.383 324.791C229.875 305.28 235.234 273.438 235.234 266.609C235.234 259.78 234.48 245.875 237.758 237.29C241.036 228.705 249.894 198.346 249.894 191.764C249.894 185.182 244.079 179.12 249.399 168.246C254.719 157.372 273.411 139.63 281.502 134.869C289.593 130.108 295.615 130.329 299.153 132.099Z" fill="#92E3A9"/>
<mask id="mask1_86_670" style="mask-type:luminance" maskUnits="userSpaceOnUse" x="230" y="130" width="74" height="339">
<path d="M299.153 132.099C299.153 132.099 304.967 133.62 303.706 149.802C302.444 165.983 303.706 176.35 291.57 194.56C285.183 204.121 278.159 211.743 280.76 223.333C283.362 234.923 293.651 243.82 294.913 261.263C296.174 278.706 288.851 285.535 284.298 292.871C279.746 300.207 272.162 323.972 271.148 338.631C270.133 353.291 271.408 359.872 273.177 366.194C274.946 372.516 285.053 383.104 286.067 398.557C286.907 413.313 285.716 428.115 282.529 442.548C279.746 454.944 278.237 466.82 278.237 466.82C274.578 468.061 270.712 468.578 266.855 468.342C259.779 468.094 256.996 466.573 256.996 466.573C256.996 466.573 257.75 432.753 255.695 419.043C253.64 405.333 249.621 390.427 245.822 377.575C242.024 364.724 230.89 344.302 230.383 324.791C229.875 305.28 235.234 273.438 235.234 266.609C235.234 259.78 234.48 245.875 237.758 237.29C241.036 228.705 249.894 198.346 249.894 191.764C249.894 185.182 244.079 179.12 249.399 168.246C254.719 157.372 273.411 139.63 281.502 134.869C289.593 130.108 295.615 130.329 299.153 132.099Z" fill="white"/>
</mask>
<g mask="url(#mask1_86_670)">
<path opacity="0.2" d="M270.588 468.329C273.175 468.219 275.731 467.723 278.172 466.859C278.172 466.859 279.681 454.983 282.464 442.587C285.638 428.152 286.815 413.35 285.963 398.595C284.949 383.169 274.842 372.581 273.073 366.233C271.304 359.885 270.029 353.343 271.044 338.67C272.058 323.998 279.642 300.246 284.194 292.91C288.747 285.574 296.083 278.745 294.808 261.302C293.534 243.859 283.219 235.04 280.76 223.333C278.302 211.626 285.248 204.082 291.635 194.521C303.771 176.311 302.509 165.905 303.771 149.763C305.032 133.62 299.218 132.059 299.218 132.059C297.33 131.176 295.251 130.778 293.169 130.902C288.994 145.041 281.099 176.61 281.099 176.61C281.099 176.61 271.993 202.807 264.527 218.312C257.061 233.817 265.594 245.628 270.406 262.147C275.219 278.667 263.994 292.624 259.714 310.795C255.435 328.967 253.835 346.084 260.781 361.043C267.727 376.002 275.219 385.107 274.153 407.558C273.346 423.024 271.655 451.809 270.588 468.329Z" fill="black"/>
</g>
<path d="M299.153 132.099C299.153 132.099 304.967 133.62 303.706 149.802C302.444 165.983 303.706 176.35 291.57 194.56C285.183 204.121 278.159 211.743 280.76 223.333C283.362 234.923 293.651 243.82 294.913 261.263C296.174 278.706 288.851 285.535 284.298 292.871C279.746 300.207 272.162 323.972 271.148 338.631C270.133 353.291 271.408 359.872 273.177 366.194C274.946 372.516 285.053 383.104 286.067 398.557C286.907 413.313 285.716 428.115 282.529 442.548C279.746 454.944 278.237 466.82 278.237 466.82C274.578 468.061 270.712 468.578 266.855 468.342C259.779 468.094 256.996 466.573 256.996 466.573C256.996 466.573 257.75 432.753 255.695 419.043C253.64 405.333 249.621 390.427 245.822 377.575C242.024 364.724 230.89 344.302 230.383 324.791C229.875 305.28 235.234 273.438 235.234 266.609C235.234 259.78 234.48 245.875 237.758 237.29C241.036 228.705 249.894 198.346 249.894 191.764C249.894 185.182 244.079 179.121 249.399 168.246C254.719 157.372 273.411 139.63 281.502 134.869C289.593 130.108 295.615 130.329 299.153 132.099Z" stroke="#263238" stroke-linecap="round" stroke-linejoin="round"/>
<path d="M253.445 252.964C253.445 252.964 254.199 256.242 252.937 267.623C251.676 279.005 249.399 291.141 249.399 292.91" stroke="#263238" stroke-linecap="round" stroke-linejoin="round"/>
<path d="M283.219 256.242L264.007 261.302C264.007 261.302 264.761 274.205 267.038 281.021C269.314 287.837 275.896 287.85 279.681 285.327" stroke="#263238" stroke-linecap="round" stroke-linejoin="round"/>
<path d="M271.486 457.038C270.862 461.396 270.341 464.478 270.341 464.478" stroke="#263238" stroke-linecap="round" stroke-linejoin="round"/>
<path d="M249.126 305.592C249.126 305.592 246.655 320.889 254.069 343.093C261.483 365.296 267.883 385.042 270.836 390.96C273.788 396.879 273.801 437.787 272.813 446.723C272.683 447.855 272.553 449 272.41 450.118" stroke="#263238" stroke-linecap="round" stroke-linejoin="round"/>
<path d="M303.706 149.802C305.006 133.62 299.153 132.099 299.153 132.099C295.615 130.33 289.541 130.082 281.45 134.882C273.359 139.682 254.654 157.385 249.347 168.259C244.04 179.134 249.842 185.169 249.842 191.777C249.842 198.385 240.997 228.692 237.706 237.303C236.573 240.569 235.856 243.965 235.573 247.41C243.638 250.222 252.201 251.325 260.716 250.649C270.816 250.141 280.717 247.649 289.853 243.312C286.38 236.067 282.178 230.188 280.747 223.333C278.224 211.704 285.235 204.082 291.622 194.521C303.706 176.35 302.444 165.983 303.706 149.802Z" fill="#B8B8B8"/>
<mask id="mask2_86_670" style="mask-type:luminance" maskUnits="userSpaceOnUse" x="235" y="130" width="69" height="121">
<path d="M303.706 149.802C305.006 133.62 299.153 132.099 299.153 132.099C295.615 130.33 289.541 130.082 281.45 134.882C273.359 139.682 254.654 157.385 249.347 168.259C244.04 179.134 249.842 185.169 249.842 191.777C249.842 198.385 240.997 228.692 237.706 237.303C236.573 240.569 235.856 243.965 235.573 247.41C243.638 250.222 252.201 251.325 260.716 250.649C270.816 250.141 280.717 247.649 289.853 243.312C286.38 236.067 282.178 230.188 280.747 223.333C278.224 211.704 285.235 204.082 291.622 194.521C303.706 176.35 302.444 165.983 303.706 149.802Z" fill="white"/>
</mask>
<g mask="url(#mask2_86_670)">
<path opacity="0.2" d="M266.218 250.18C274.421 249.214 282.41 246.907 289.866 243.351C286.393 236.106 282.191 230.227 280.761 223.372C278.237 211.743 285.248 204.121 291.635 194.56C303.771 176.35 302.509 165.944 303.771 149.802C305.032 133.659 299.218 132.098 299.218 132.098C297.33 131.215 295.251 130.817 293.17 130.941C288.994 145.08 281.099 176.649 281.099 176.649C281.099 176.649 271.993 202.846 264.527 218.351C258.908 229.837 262.186 239.306 266.218 250.18Z" fill="black"/>
</g>
<path d="M303.706 149.802C305.006 133.62 299.153 132.099 299.153 132.099C295.615 130.33 289.541 130.082 281.45 134.882C273.359 139.682 254.654 157.385 249.347 168.259C244.04 179.134 249.842 185.169 249.842 191.777C249.842 198.385 240.997 228.692 237.706 237.303C236.573 240.569 235.856 243.965 235.573 247.41C243.638 250.222 252.201 251.325 260.716 250.649C270.816 250.141 280.717 247.649 289.853 243.312C286.38 236.067 282.178 230.188 280.747 223.333C278.224 211.704 285.235 204.082 291.622 194.521C303.706 176.35 302.444 165.983 303.706 149.802Z" stroke="#263238" stroke-linecap="round" stroke-linejoin="round"/>
<path d="M244.873 175.791C244.873 175.791 241.439 169.508 237.706 163.98C233.973 158.452 229.628 157.554 225.895 159.349C224.346 160.026 223.122 161.278 222.481 162.842C221.84 164.406 221.833 166.157 222.461 167.726C223.502 170.861 230.825 179.823 233.075 182.359C235.325 184.896 236.652 187.445 240.684 187.888C244.717 188.33 248.008 185.351 247.865 180.278C247.721 175.205 244.873 175.791 244.873 175.791Z" fill="#92E3A9" stroke="#263238" stroke-linecap="round" stroke-linejoin="round"/>
<path d="M262.212 152.325C259.703 154.771 257.357 157.378 255.188 160.13C252.495 163.707 252.352 165.203 251.897 165.333C251.442 165.463 243.975 174.295 241.738 176.389C239.501 178.483 237.406 180.577 237.706 183.114C238.005 185.65 242.479 188.941 245.627 187.744C248.775 186.548 252.794 180.421 254.589 176.389C255.868 173.154 256.818 169.798 257.425 166.373C257.425 166.373 260.417 165.333 261.327 163.082C262.238 160.832 262.368 156.657 262.966 155.915C263.564 155.174 265.568 152.78 265.06 152.013C264.553 151.246 263.109 151.584 262.212 152.325Z" fill="white" stroke="#263238" stroke-linecap="round" stroke-linejoin="round"/>
<path d="M220.77 168.506C220.28 167.623 220.003 166.638 219.96 165.628C219.917 164.619 220.11 163.614 220.523 162.692C222.032 159.908 229.875 153.093 230.122 150.556C230.37 148.02 229.121 145.249 229.615 139.682C230.109 134.115 229.121 133.113 226.845 136.144C224.568 139.175 224.815 144.495 224.815 145.249V146.003C224.815 146.003 222.032 143.727 221.785 141.464C221.538 139.201 221.277 135.142 220.484 134.635C219.69 134.128 217.7 135.389 216.933 137.406C216.349 139.026 216.092 140.745 216.178 142.465C216.178 143.987 213.395 146.003 212.393 150.27C211.469 155.101 211.298 160.046 211.886 164.929C212.393 168.975 212.888 171.511 214.162 173.787C215.437 176.064 220.77 168.506 220.77 168.506Z" fill="white" stroke="#263238" stroke-linecap="round" stroke-linejoin="round"/>
<path d="M299.4 150.049C299.4 150.049 296.369 159.154 290.555 172.057C284.741 184.961 260.716 221.109 257.685 221.863C254.654 222.618 242.076 214.28 233.92 203.913C225.765 193.546 212.172 178.626 212.432 174.828C212.692 171.03 217.986 166.49 220.016 166.737C222.045 166.985 228.353 173.319 235.937 180.148C240.67 184.313 246.294 187.339 252.378 188.993L273.112 140.957C273.112 140.957 279.46 129.575 287.264 128.378C295.069 127.182 303.198 132.424 302.184 141.269" fill="#B8B8B8"/>
<mask id="mask3_86_670" style="mask-type:luminance" maskUnits="userSpaceOnUse" x="212" y="128" width="91" height="94">
<path d="M299.4 150.049C299.4 150.049 296.369 159.154 290.555 172.057C284.741 184.961 260.716 221.109 257.685 221.863C254.654 222.618 242.076 214.28 233.92 203.913C225.765 193.546 212.172 178.626 212.432 174.828C212.692 171.03 217.986 166.49 220.016 166.737C222.045 166.985 228.353 173.319 235.937 180.148C240.67 184.313 246.294 187.339 252.378 188.993L273.112 140.957C273.112 140.957 279.46 129.575 287.264 128.378C295.069 127.182 303.198 132.424 302.184 141.269" fill="white"/>
</mask>
<g mask="url(#mask3_86_670)">
<path opacity="0.2" d="M295.797 129.562C293.456 135.168 271.083 188.447 265.529 198.567C259.649 209.259 262.472 211.496 244.496 202.092C236.964 198.189 229.576 194.287 223.528 191.191C227.092 195.523 230.89 200.036 233.934 203.913C242.024 214.319 254.667 222.617 257.698 221.863C260.729 221.109 284.754 184.948 290.568 172.057C296.382 159.167 299.413 150.049 299.413 150.049L302.197 141.204C302.523 138.833 302.076 136.421 300.923 134.324C299.771 132.227 297.973 130.557 295.797 129.562Z" fill="black"/>
<path d="M252.378 188.993C252.378 188.993 259.962 194.053 258.7 201.376" stroke="#263238" stroke-linecap="round" stroke-linejoin="round"/>
</g>
<path d="M299.4 150.049C299.4 150.049 296.369 159.154 290.555 172.057C284.741 184.961 260.716 221.109 257.685 221.863C254.654 222.618 242.076 214.28 233.92 203.913C225.765 193.546 212.172 178.626 212.432 174.828C212.692 171.03 217.986 166.49 220.016 166.737C222.045 166.985 228.353 173.319 235.937 180.148C240.67 184.313 246.294 187.339 252.378 188.993L273.112 140.957C273.112 140.957 279.46 129.575 287.264 128.378C295.069 127.182 303.198 132.424 302.184 141.269" stroke="#263238" stroke-linecap="round" stroke-linejoin="round"/>
</svg>
