<svg width="517" height="488" viewBox="0 0 517 488" fill="none" xmlns="http://www.w3.org/2000/svg">
<g clip-path="url(#clip0_257_401)">
<path d="M255.619 488C386.921 488 493.363 381.558 493.363 250.256C493.363 118.954 386.921 12.512 255.619 12.512C124.317 12.512 17.875 118.954 17.875 250.256C17.875 381.558 124.317 488 255.619 488Z" fill="#EBEBEB" fill-opacity="0.5"/>
<path d="M490.045 232.333C490.045 232.333 490.045 225.859 480.985 216.886C471.924 207.913 466.177 202.707 466.177 202.707C466.177 202.707 461.672 217.52 470.06 226.545C476.217 232.884 482.894 238.696 490.019 243.922L490.045 232.333Z" fill="#92E3A9"/>
<path d="M476.972 272.551C476.972 272.551 476.972 266.077 467.911 257.104C458.851 248.13 453.129 242.925 453.129 242.925C453.129 242.925 448.612 257.738 457.012 266.763C463.17 273.102 469.846 278.914 476.972 284.14V272.551Z" fill="#92E3A9"/>
<path d="M489.476 243.301C489.476 243.301 490.162 236.904 500.077 228.889C509.992 220.874 516.295 216.368 516.295 216.368C516.295 216.368 519.208 231.569 509.94 239.675C503.148 245.329 495.896 250.405 488.259 254.851L489.476 243.301Z" fill="#92E3A9"/>
<path d="M473.684 290.795C473.684 290.795 474.979 284.502 485.735 277.575C496.491 270.648 503.17 266.828 503.17 266.828C503.17 266.828 504.465 282.262 494.407 289.319C487.059 294.229 479.313 298.517 471.251 302.138L473.684 290.795Z" fill="#92E3A9"/>
<path d="M476.648 342.589C476.648 342.589 476.648 336.115 485.709 327.129C494.77 318.142 500.504 312.963 500.504 312.963C500.504 312.963 505.021 327.776 496.621 336.788C490.466 343.133 483.789 348.95 476.661 354.178L476.648 342.589Z" fill="#92E3A9"/>
<path d="M476.506 355.227C476.506 355.227 477.412 348.856 469.775 338.653C462.138 328.449 457.129 322.519 457.129 322.519C457.129 322.519 450.566 336.542 457.569 346.655C462.76 353.807 468.54 360.511 474.849 366.699L476.506 355.227Z" fill="#92E3A9"/>
<path d="M467.614 392.686C467.614 392.686 467.614 386.212 476.674 377.239C485.735 368.266 491.482 363.06 491.482 363.06C491.482 363.06 495.986 377.873 487.599 386.898C481.44 393.239 474.764 399.056 467.639 404.288L467.614 392.686Z" fill="#92E3A9"/>
<path d="M473.632 426.65C473.632 426.65 472.001 420.422 478.435 409.416C484.868 398.41 489.178 391.961 489.178 391.961C489.178 391.961 497.281 405.143 491.469 415.993C487.121 423.686 482.138 431.002 476.571 437.863L473.632 426.65Z" fill="#92E3A9"/>
<path d="M490.861 230.689C490.408 237.393 489.587 244.067 488.401 250.681C484.829 269.094 475.923 280.98 472.364 297.606C468.804 314.232 479.03 335.662 476.247 357.026C473.464 378.391 465.206 390.265 467.575 404.521C469.943 418.777 482.421 457.39 482.421 457.39" stroke="#263238" stroke-linecap="round" stroke-linejoin="round"/>
<path d="M489.398 247.587L499.106 240.128" stroke="#263238" stroke-linecap="round" stroke-linejoin="round"/>
<path d="M489.851 239.002L485.774 231.764" stroke="#263238" stroke-linecap="round" stroke-linejoin="round"/>
<path d="M472.908 296.842C472.908 296.842 481.036 290.744 489.398 284.645" stroke="#263238" stroke-linecap="round" stroke-linejoin="round"/>
<path d="M476.972 284.14C476.972 284.14 470.189 270.855 462.514 262.05" stroke="#263238" stroke-linecap="round" stroke-linejoin="round"/>
<path d="M476.972 351.756C481.609 343.184 487.469 335.332 494.368 328.449" stroke="#263238" stroke-linecap="round" stroke-linejoin="round"/>
<path d="M475.393 360.795C472.926 354.982 469.977 349.386 466.578 344.065C461.841 337.06 461.155 336.154 461.155 336.154" stroke="#263238" stroke-linecap="round" stroke-linejoin="round"/>
<path d="M467.614 404.521C469.677 399.418 472.126 394.479 474.94 389.747C477.755 385.349 480.928 381.192 484.428 377.317" stroke="#263238" stroke-linecap="round" stroke-linejoin="round"/>
<path d="M476.571 437.863C476.099 432.984 476.939 428.066 479.004 423.62C482.395 417.068 486.227 408.483 487.806 405.091" stroke="#263238" stroke-linecap="round" stroke-linejoin="round"/>
<path d="M416.498 318.375C416.498 318.375 415.799 314.336 420.472 307.693C425.145 301.051 428.238 297.205 428.238 297.205C428.238 297.205 432.665 306.01 428.394 312.562C425.221 317.209 421.667 321.584 417.767 325.64L416.498 318.375Z" fill="#92E3A9"/>
<path d="M429.067 342.175C429.067 342.175 428.368 338.135 433.041 331.492C437.713 324.85 440.807 321.004 440.807 321.004C440.807 321.004 445.234 329.809 440.962 336.374C437.787 341.016 434.233 345.385 430.335 349.439L429.067 342.175Z" fill="#92E3A9"/>
<path d="M418.039 325.186C418.039 325.186 416.925 321.302 409.832 317.301C402.739 313.3 398.312 311.202 398.312 311.202C398.312 311.202 398.131 321.056 404.784 325.121C409.655 327.927 414.751 330.322 420.019 332.282L418.039 325.186Z" fill="#92E3A9"/>
<path d="M433.105 353.258C433.105 353.258 431.578 349.452 424.122 346.266C416.666 343.081 412.007 341.424 412.007 341.424C412.007 341.424 412.861 351.238 419.954 354.579C425.094 356.857 430.415 358.702 435.862 360.095L433.105 353.258Z" fill="#92E3A9"/>
<path d="M436.859 386.057C436.859 386.057 436.173 382.017 429.533 377.343C422.892 372.668 418.712 370.066 418.712 370.066C418.712 370.066 417.495 379.842 423.721 384.581C428.269 387.894 433.088 390.818 438.127 393.321L436.859 386.057Z" fill="#92E3A9"/>
<path d="M438.335 393.968C438.335 393.968 437.04 390.084 440.755 382.833C444.47 375.582 446.929 371.347 446.929 371.347C446.929 371.347 452.56 379.427 449.272 386.536C446.795 391.583 443.898 396.412 440.613 400.973L438.335 393.968Z" fill="#92E3A9"/>
<path d="M449.647 426.534C449.647 426.534 450.113 422.468 456.469 417.47C462.824 412.472 466.824 409.584 466.824 409.584C466.824 409.584 468.597 419.282 462.656 424.371C458.304 427.933 453.663 431.125 448.78 433.914L449.647 426.534Z" fill="#92E3A9"/>
<path d="M447.952 416.486C447.952 416.486 447.253 412.446 440.626 407.771C433.998 403.097 429.83 400.494 429.83 400.494C429.83 400.494 428.614 410.27 434.84 415.022C439.391 418.33 444.21 421.254 449.246 423.763L447.952 416.486Z" fill="#92E3A9"/>
<path d="M447.952 438.446C447.952 438.446 448.288 434.354 443.059 428.152C437.83 421.95 434.438 418.376 434.438 418.376C434.438 418.376 430.775 427.518 435.603 433.694C439.142 438.043 443.039 442.089 447.253 445.788L447.952 438.446Z" fill="#92E3A9"/>
<path d="M415.812 317.417C416.825 321.574 418.065 325.672 419.527 329.692C423.76 340.854 430.633 347.341 434.671 357.376C438.71 367.411 434.671 381.978 438.658 395.069C442.645 408.16 449.246 414.712 449.246 423.905C449.246 433.098 445.674 458.672 445.674 458.672" stroke="#263238" stroke-linecap="round" stroke-linejoin="round"/>
<path d="M418.569 327.854L411.67 324.241" stroke="#263238" stroke-linecap="round" stroke-linejoin="round"/>
<path d="M417.352 322.519L419.113 317.547" stroke="#263238" stroke-linecap="round" stroke-linejoin="round"/>
<path d="M434.244 356.962C434.244 356.962 428.484 354.022 422.595 351.096" stroke="#263238" stroke-linecap="round" stroke-linejoin="round"/>
<path d="M430.322 349.439C432.02 344.103 434.254 338.954 436.988 334.069" stroke="#263238" stroke-linecap="round" stroke-linejoin="round"/>
<path d="M437.661 391.832C433.821 386.97 429.295 382.691 424.226 379.129" stroke="#263238" stroke-linecap="round" stroke-linejoin="round"/>
<path d="M439.629 397.322C440.55 393.415 441.793 389.591 443.344 385.888C445.557 380.981 445.933 380.334 445.933 380.334" stroke="#263238" stroke-linecap="round" stroke-linejoin="round"/>
<path d="M448.935 430.884C451.18 428.102 453.666 425.524 456.365 423.18C458.082 421.915 459.693 420.512 461.18 418.984" stroke="#263238" stroke-linecap="round" stroke-linejoin="round"/>
<path d="M449.246 423.905C447.397 420.921 445.324 418.081 443.046 415.411C440.802 412.961 438.361 410.7 435.746 408.652" stroke="#263238" stroke-linecap="round" stroke-linejoin="round"/>
<path d="M447.253 445.788C447.021 442.674 445.962 439.679 444.185 437.112C441.35 433.37 438.011 428.398 436.652 426.443" stroke="#263238" stroke-linecap="round" stroke-linejoin="round"/>
<path d="M48.8537 261.972L43.1843 245.774L48.8537 252.649L44.4011 228.345L51.2872 245.774L53.7206 211.732L57.7721 244.142L62.2247 237.668V245.774L67.4929 234.832L64.6582 253.867L69.5121 250.629L61.8235 261.156L48.8537 261.972Z" fill="#92E3A9"/>
<path d="M66.6775 257.919H45.6178L49.4104 300.455H62.8849L66.6775 257.919Z" fill="#263238" stroke="#263238" stroke-linecap="round" stroke-linejoin="round"/>
<path d="M106.182 299.976H34.4342V451.99H106.182V299.976Z" fill="white" stroke="#263238" stroke-linecap="round" stroke-linejoin="round"/>
<path d="M110.104 299.976H70.3016V451.99H110.104V299.976Z" fill="white" stroke="#263238" stroke-linecap="round" stroke-linejoin="round"/>
<path d="M105.625 299.976H70.3016V451.99H105.625V299.976Z" fill="#263238" stroke="#263238" stroke-linecap="round" stroke-linejoin="round"/>
<path d="M101.652 416.641H70.3016V447.769H101.652V416.641Z" fill="#92E3A9" stroke="#263238" stroke-linecap="round" stroke-linejoin="round"/>
<path d="M101.652 418.324H70.3016V422.312H101.652V418.324Z" fill="white" stroke="#263238" stroke-linecap="round" stroke-linejoin="round"/>
<path d="M101.652 441.243H70.3016V445.231H101.652V441.243Z" fill="white" stroke="#263238" stroke-linecap="round" stroke-linejoin="round"/>
<path d="M76.2429 417.288V456.652" stroke="#263238" stroke-linecap="round" stroke-linejoin="round"/>
<path d="M87.1805 417.288V456.652" stroke="#263238" stroke-linecap="round" stroke-linejoin="round"/>
<path d="M96.7848 417.288V456.652" stroke="#263238" stroke-linecap="round" stroke-linejoin="round"/>
<path d="M101.652 305.621H70.3016V351.394H101.652V305.621Z" fill="#92E3A9" stroke="#263238" stroke-linecap="round" stroke-linejoin="round"/>
<path d="M101.652 307.538H70.3016V312.07H101.652V307.538Z" fill="white" stroke="#263238" stroke-linecap="round" stroke-linejoin="round"/>
<path d="M101.652 336.879H70.3016V341.411H101.652V336.879Z" fill="white" stroke="#263238" stroke-linecap="round" stroke-linejoin="round"/>
<path d="M76.2429 306.346V351.083" stroke="#263238" stroke-linecap="round" stroke-linejoin="round"/>
<path d="M87.1805 306.346V351.083" stroke="#263238" stroke-linecap="round" stroke-linejoin="round"/>
<path d="M96.7848 306.346V351.083" stroke="#263238" stroke-linecap="round" stroke-linejoin="round"/>
<path d="M101.652 360.781H70.3016V406.554H101.652V360.781Z" fill="#92E3A9" stroke="#263238" stroke-linecap="round" stroke-linejoin="round"/>
<path d="M101.652 362.698H70.3016V367.23H101.652V362.698Z" fill="white" stroke="#263238" stroke-linecap="round" stroke-linejoin="round"/>
<path d="M101.652 392.039H70.3016V396.571H101.652V392.039Z" fill="white" stroke="#263238" stroke-linecap="round" stroke-linejoin="round"/>
<path d="M76.2429 361.52V406.243" stroke="#263238" stroke-linecap="round" stroke-linejoin="round"/>
<path d="M87.1805 361.52V406.243" stroke="#263238" stroke-linecap="round" stroke-linejoin="round"/>
<path d="M96.7848 361.52V406.243" stroke="#263238" stroke-linecap="round" stroke-linejoin="round"/>
<path d="M106.169 350.76H70.3016V355.965H106.169V350.76Z" fill="white" stroke="#263238" stroke-linecap="round" stroke-linejoin="round"/>
<path d="M106.169 406.269H70.3016V411.475H106.169V406.269Z" fill="white" stroke="#263238" stroke-linecap="round" stroke-linejoin="round"/>
<path d="M106.169 299.976V451.977" stroke="#263238" stroke-linecap="round" stroke-linejoin="round"/>
<path d="M65.2406 299.976V451.977H70.3016V305.621H105.548V299.911L65.2406 299.976Z" fill="white" stroke="#263238" stroke-linecap="round" stroke-linejoin="round"/>
<path d="M70.3016 305.621V299.976" stroke="#263238" stroke-linecap="round" stroke-linejoin="round"/>
<path d="M105.897 230.145C102.131 222.881 100.552 217.676 100.552 216.471C100.552 214.089 105.729 212.665 105.729 212.665C113.806 208.392 151.796 214.568 168.895 217.417C178.467 219.086 188.15 220.038 197.863 220.265C197.863 220.265 200.232 218.375 203.041 215.992C205.85 213.61 219.182 197.942 224.411 196.57C229.641 195.197 234.378 198.473 234.378 198.473C234.378 198.473 242.934 203.653 241.497 204.65C240.06 205.647 219.182 223.645 213.953 226.973C208.723 230.3 197.812 228.876 188.311 230.779C180.13 232.411 146.994 234.431 139.396 235.052C133.69 236.406 127.701 235.907 122.297 233.628" fill="white"/>
<mask id="mask0_257_401" style="mask-type:luminance" maskUnits="userSpaceOnUse" x="100" y="196" width="142" height="40">
<path d="M105.897 230.145C102.131 222.881 100.552 217.676 100.552 216.471C100.552 214.089 105.729 212.665 105.729 212.665C113.806 208.392 151.796 214.568 168.895 217.417C178.467 219.086 188.15 220.038 197.863 220.265C197.863 220.265 200.232 218.375 203.041 215.992C205.85 213.61 219.182 197.942 224.411 196.57C229.641 195.197 234.378 198.473 234.378 198.473C234.378 198.473 242.934 203.653 241.497 204.65C240.06 205.647 219.182 223.645 213.953 226.973C208.723 230.3 197.812 228.876 188.311 230.779C180.13 232.411 146.994 234.431 139.396 235.052C133.69 236.406 127.701 235.907 122.297 233.628" fill="white"/>
</mask>
<g mask="url(#mask0_257_401)">
<path d="M234.469 198.421C234.469 198.421 229.718 195.094 224.502 196.518C219.286 197.942 205.979 213.623 203.132 215.941C200.284 218.258 197.954 220.214 197.954 220.214C188.241 219.986 178.558 219.034 168.986 217.365C151.887 214.516 113.897 208.301 105.82 212.613C105.82 212.613 100.642 214.037 100.642 216.42C100.822 217.752 101.166 219.056 101.665 220.304L102.377 220.563C102.377 220.563 111.865 219.566 132.342 220.058C152.819 220.55 200.181 223.36 203.222 224.461C204.517 224.953 213.694 222.881 223.868 219.281C231.634 212.949 240.76 205.038 241.679 204.481C243.025 203.64 234.469 198.421 234.469 198.421Z" fill="#92E3A9"/>
<path opacity="0.5" d="M234.469 198.421C234.469 198.421 229.718 195.094 224.502 196.518C219.286 197.942 205.979 213.623 203.132 215.941C200.284 218.258 197.954 220.214 197.954 220.214C188.241 219.986 178.558 219.034 168.986 217.365C151.887 214.516 113.897 208.301 105.82 212.613C105.82 212.613 100.642 214.037 100.642 216.42C100.822 217.752 101.166 219.056 101.665 220.304L102.377 220.563C102.377 220.563 111.865 219.566 132.342 220.058C152.819 220.55 200.181 223.36 203.222 224.461C204.517 224.953 213.694 222.881 223.868 219.281C231.634 212.949 240.76 205.038 241.679 204.481C243.025 203.64 234.469 198.421 234.469 198.421Z" fill="white"/>
</g>
<path d="M105.897 230.145C102.131 222.881 100.552 217.676 100.552 216.471C100.552 214.089 105.729 212.665 105.729 212.665C113.806 208.392 151.796 214.568 168.895 217.417C178.467 219.086 188.15 220.038 197.863 220.265C197.863 220.265 200.232 218.375 203.041 215.992C205.85 213.61 219.182 197.942 224.411 196.57C229.641 195.197 234.378 198.473 234.378 198.473C234.378 198.473 242.934 203.653 241.497 204.65C240.06 205.647 219.182 223.645 213.953 226.973C208.723 230.3 197.812 228.876 188.311 230.779C180.13 232.411 146.994 234.431 139.396 235.052C133.69 236.406 127.701 235.907 122.297 233.628" stroke="#263238" stroke-linecap="round" stroke-linejoin="round"/>
<path d="M293.467 272.383C294.326 270.751 295.614 269.386 297.193 268.434C298.772 267.483 300.581 266.981 302.424 266.983H388.759C388.759 266.983 394.998 266.983 393.134 278.844C391.271 290.705 365.668 363.125 359.48 385.021C353.293 406.917 351.986 453.065 351.986 453.065H248.435C248.435 453.065 256.641 342.705 293.467 272.383Z" fill="white"/>
<mask id="mask1_257_401" style="mask-type:luminance" maskUnits="userSpaceOnUse" x="248" y="266" width="146" height="188">
<path d="M293.467 272.383C294.326 270.751 295.614 269.386 297.193 268.434C298.772 267.483 300.581 266.981 302.424 266.983H388.759C388.759 266.983 394.998 266.983 393.134 278.844C391.271 290.705 365.668 363.125 359.48 385.021C353.293 406.917 351.986 453.065 351.986 453.065H248.435C248.435 453.065 256.641 342.705 293.467 272.383Z" fill="white"/>
</mask>
<g mask="url(#mask1_257_401)">
<path opacity="0.16" d="M332.35 266.983H302.424C300.581 266.981 298.772 267.483 297.193 268.434C295.614 269.386 294.326 270.751 293.467 272.383C256.641 342.705 248.344 453.026 248.344 453.026H294.787L306.242 409.506L354.005 419.36C354.342 415.709 354.73 411.992 355.183 408.328L354.135 396.674C354.135 396.674 344.349 386.38 341.268 383.804C338.188 381.227 340.233 376.578 339.715 356.496C339.197 336.413 321.18 321.975 314.475 309.609C307.77 297.244 318.086 289.513 327.354 277.148C330.654 272.68 332.001 269.392 332.35 266.983Z" fill="black"/>
</g>
<path d="M293.467 272.383C294.326 270.751 295.614 269.386 297.193 268.434C298.772 267.483 300.581 266.981 302.424 266.983H388.759C388.759 266.983 394.998 266.983 393.134 278.844C391.271 290.705 365.668 363.125 359.48 385.021C353.293 406.917 351.986 453.065 351.986 453.065H248.435C248.435 453.065 256.641 342.705 293.467 272.383Z" stroke="#263238" stroke-linecap="round" stroke-linejoin="round"/>
<path d="M373.783 287.584C365.059 307.952 346.601 388.582 343.598 453.026H351.934C351.934 453.026 353.229 406.826 359.429 384.982C365.629 363.138 391.258 290.705 393.083 278.805C394.908 266.905 388.708 266.944 388.708 266.944C388.708 266.944 380.786 271.256 373.783 287.584Z" fill="#263238" stroke="#263238" stroke-linecap="round" stroke-linejoin="round"/>
<path d="M222.12 246.874C222.12 246.874 208.348 238.794 203.132 224.551C197.915 210.308 243.969 187.493 263.968 186.069C283.966 184.644 289.609 189.862 301.505 210.295C313.4 230.728 321.451 258.748 315.277 272.525C309.103 286.302 298.657 289.63 306.216 301.012C313.776 312.393 335.185 344.712 333.761 359.914C332.337 375.115 317.62 388.4 296.224 389.851C274.828 391.301 246.351 378.443 222.612 357.48C198.873 336.516 205.034 305.686 213.551 295.716C222.068 285.745 234.922 281.939 235.867 271.968C236.811 261.998 222.12 246.874 222.12 246.874Z" fill="#263238" stroke="#263238" stroke-linecap="round" stroke-linejoin="round"/>
<path d="M280.821 224.331C288.134 237.953 297.285 256.197 300.146 267.216C305.142 286.509 279.436 298.655 286.568 307.939" stroke="white" stroke-linecap="round" stroke-linejoin="round"/>
<path d="M270.854 206.488C270.854 206.488 273.701 211.344 277.636 218.491" stroke="white" stroke-linecap="round" stroke-linejoin="round"/>
<path d="M309.219 240.763C310.063 243.316 310.61 245.957 310.85 248.635" stroke="white" stroke-linecap="round" stroke-linejoin="round"/>
<path d="M275.798 199.405C275.798 199.405 298.295 216.031 307.278 235.933" stroke="white" stroke-linecap="round" stroke-linejoin="round"/>
<path d="M244.578 211.875C228.514 216.381 205.41 223.697 207.286 227.918" stroke="white" stroke-linecap="round" stroke-linejoin="round"/>
<path d="M259.424 207.912C259.424 207.912 255.994 208.767 250.881 210.14" stroke="white" stroke-linecap="round" stroke-linejoin="round"/>
<path d="M239.556 199.522C248.757 196.621 258.394 195.35 268.032 195.767" stroke="white" stroke-linecap="round" stroke-linejoin="round"/>
<path d="M233.006 202.202C234.461 201.444 235.966 200.786 237.51 200.234" stroke="white" stroke-linecap="round" stroke-linejoin="round"/>
<path d="M105.897 230.145C103.717 226.151 101.981 221.931 100.72 217.559C101.975 221.933 103.711 226.154 105.897 230.145ZM100.577 216.821C100.577 216.899 100.577 216.989 100.577 217.106C100.603 216.989 100.59 216.899 100.577 216.821ZM105.897 230.132C110.738 239.304 116.761 247.802 123.812 255.407C140.91 273.936 190.304 322.402 195.003 325.73C199.701 329.058 198.329 338.549 195.003 348.053C191.676 357.557 179.328 371.36 179.807 386.536C180.286 401.711 184.984 425.018 184.557 429.771C184.13 434.523 172.247 450.682 172.247 450.682H294.774C294.774 450.682 279.5 431.26 279.5 424.617C279.5 417.975 300.469 332.865 301.414 326.688C302.359 320.512 298.567 316.239 290.969 315.76C283.371 315.281 254.402 309.104 252.978 304.352C251.554 299.6 260.576 281.55 260.576 281.55L232.1 282.974C232.1 282.974 230.676 295.327 228.773 297.71C226.871 300.092 224.023 295.327 217.37 292.012C210.717 288.698 197.954 285.836 193.152 282.029C188.35 278.222 142.813 235.415 142.813 235.415" fill="white"/>
<mask id="mask2_257_401" style="mask-type:luminance" maskUnits="userSpaceOnUse" x="100" y="216" width="202" height="235">
<path d="M105.897 230.145C103.717 226.151 101.981 221.931 100.72 217.559C101.975 221.933 103.711 226.154 105.897 230.145ZM100.577 216.821C100.577 216.899 100.577 216.989 100.577 217.106C100.603 216.989 100.59 216.899 100.577 216.821ZM105.897 230.132C110.738 239.304 116.761 247.802 123.812 255.407C140.91 273.936 190.304 322.402 195.003 325.73C199.701 329.058 198.329 338.549 195.003 348.053C191.676 357.557 179.328 371.36 179.807 386.536C180.286 401.711 184.984 425.018 184.557 429.771C184.13 434.523 172.247 450.682 172.247 450.682H294.774C294.774 450.682 279.5 431.26 279.5 424.617C279.5 417.975 300.469 332.865 301.414 326.688C302.359 320.512 298.567 316.239 290.969 315.76C283.371 315.281 254.402 309.104 252.978 304.352C251.554 299.6 260.576 281.55 260.576 281.55L232.1 282.974C232.1 282.974 230.676 295.327 228.773 297.71C226.871 300.092 224.023 295.327 217.37 292.012C210.717 288.698 197.954 285.836 193.152 282.029C188.35 278.222 142.813 235.415 142.813 235.415" fill="white"/>
</mask>
<g mask="url(#mask2_257_401)">
<path d="M200.426 285.694C202.795 289.837 205.164 293.579 205.164 293.579C205.164 293.579 213.15 298.072 215.143 298.072C217.137 298.072 229.123 304.546 229.123 304.546C229.123 304.546 239.115 302.047 235.595 293.553C234.484 291.379 233.082 289.366 231.427 287.571C230.831 291.339 229.874 296.272 228.747 297.684C226.845 300.053 223.997 295.301 217.344 291.987C213.034 289.837 206.057 287.869 200.426 285.694Z" fill="#92E3A9"/>
<path d="M176.04 266.465C161.375 252.882 142.813 235.467 142.813 235.467L132.018 233.913L130.724 234.638C130.724 234.638 161.193 261.609 167.678 264.614C170.302 265.82 173.153 266.451 176.04 266.465Z" fill="#92E3A9"/>
<path d="M191.404 280.527L190.239 279.491C190.835 280.475 191.171 281.097 191.171 281.097L191.404 280.527Z" fill="#92E3A9"/>
<g opacity="0.5">
<path d="M200.426 285.694C202.795 289.837 205.164 293.579 205.164 293.579C205.164 293.579 213.15 298.072 215.143 298.072C217.137 298.072 229.123 304.546 229.123 304.546C229.123 304.546 239.115 302.047 235.595 293.553C234.484 291.379 233.082 289.366 231.427 287.571C230.831 291.339 229.874 296.272 228.747 297.684C226.845 300.053 223.997 295.301 217.344 291.987C213.034 289.837 206.057 287.869 200.426 285.694Z" fill="white"/>
<path d="M176.04 266.465C161.375 252.882 142.813 235.467 142.813 235.467L132.018 233.913L130.724 234.638C130.724 234.638 161.193 261.609 167.678 264.614C170.302 265.82 173.153 266.451 176.04 266.465Z" fill="white"/>
<path d="M191.404 280.527L190.239 279.491C190.835 280.475 191.171 281.097 191.171 281.097L191.404 280.527Z" fill="white"/>
</g>
</g>
<path d="M100.551 216.471C100.546 216.562 100.546 216.653 100.551 216.743M100.72 217.559C101.981 221.931 103.717 226.151 105.897 230.145C103.711 226.154 101.975 221.933 100.72 217.559ZM100.72 217.559C100.684 217.436 100.658 217.311 100.642 217.184M105.897 230.132C110.738 239.304 116.761 247.802 123.812 255.407C140.91 273.936 190.304 322.402 195.003 325.73C199.701 329.058 198.329 338.549 195.003 348.053C191.676 357.557 179.328 371.36 179.807 386.536C180.286 401.711 184.984 425.018 184.557 429.771C184.13 434.523 172.247 450.682 172.247 450.682H294.774C294.774 450.682 279.5 431.26 279.5 424.617C279.5 417.975 300.469 332.865 301.414 326.688C302.359 320.512 298.567 316.239 290.969 315.76C283.371 315.281 254.402 309.104 252.978 304.352C251.554 299.6 260.576 281.55 260.576 281.55L232.1 282.974C232.1 282.974 230.676 295.327 228.773 297.71C226.871 300.092 224.023 295.327 217.37 292.012C210.717 288.698 197.954 285.836 193.152 282.029C188.35 278.222 142.813 235.415 142.813 235.415M100.577 216.821C100.577 216.899 100.577 216.989 100.577 217.106C100.603 216.989 100.59 216.899 100.577 216.821Z" stroke="#263238" stroke-linecap="round" stroke-linejoin="round"/>
<path d="M142.813 235.467C142.813 235.467 127.643 235.752 119.178 228.772" stroke="#263238" stroke-linecap="round" stroke-linejoin="round"/>
<path d="M252.991 304.352C251.568 299.613 260.589 281.55 260.589 281.55L232.113 282.974C232.113 282.974 230.689 295.327 228.786 297.71C226.884 300.092 224.036 295.327 217.383 292.012C216.878 291.753 216.321 291.507 215.752 291.261L214.03 318.336C214.03 318.336 216.529 344.557 246.481 339.572C258.609 337.552 271.553 326.727 282.723 314.556C271.229 312.445 254.079 307.991 252.991 304.352Z" fill="white"/>
<mask id="mask3_257_401" style="mask-type:luminance" maskUnits="userSpaceOnUse" x="214" y="281" width="69" height="60">
<path d="M252.991 304.352C251.568 299.613 260.589 281.55 260.589 281.55L232.113 282.974C232.113 282.974 230.689 295.327 228.786 297.71C226.884 300.092 224.036 295.327 217.383 292.012C216.878 291.753 216.321 291.507 215.752 291.261L214.03 318.336C214.03 318.336 216.529 344.557 246.481 339.572C258.609 337.552 271.553 326.727 282.723 314.556C271.229 312.445 254.079 307.991 252.991 304.352Z" fill="white"/>
</mask>
<g mask="url(#mask3_257_401)">
<path d="M252.189 285.137C252.189 285.137 250.467 294.796 249.082 305.479C247.697 316.161 246.675 324.112 246.675 324.112L252.991 304.352L260.11 283.415C260.11 283.415 253.224 283.415 252.189 285.137Z" fill="#92E3A9"/>
<path opacity="0.5" d="M252.189 285.137C252.189 285.137 250.467 294.796 249.082 305.479C247.697 316.161 246.675 324.112 246.675 324.112L252.991 304.352L260.11 283.415C260.11 283.415 253.224 283.415 252.189 285.137Z" fill="white"/>
</g>
<path d="M252.991 304.352C251.568 299.613 260.589 281.55 260.589 281.55L232.113 282.974C232.113 282.974 230.689 295.327 228.786 297.71C226.884 300.092 224.036 295.327 217.383 292.012C216.878 291.753 216.321 291.507 215.752 291.261L214.03 318.336C214.03 318.336 216.529 344.557 246.481 339.572C258.609 337.552 271.553 326.727 282.723 314.556C271.229 312.445 254.079 307.991 252.991 304.352Z" stroke="#263238" stroke-linecap="round" stroke-linejoin="round"/>
<path d="M228.773 297.71C226.871 300.079 224.023 295.327 217.37 292.012C213.176 289.902 206.497 287.985 200.97 285.914C199.404 282.198 197.333 277.355 195.999 274.428C193.631 269.249 189.825 272.525 189.825 272.525C187.84 270.266 186.235 267.699 185.075 264.924C182.706 259.745 178.901 260.172 173.684 259.227C168.468 258.282 157.53 248.299 157.53 248.299C157.53 248.299 152.417 244.414 150.308 242.485C147.848 247.327 141.959 255.848 129.222 261.169C149.531 282.392 190.731 322.713 195.055 325.743C199.805 329.058 198.381 338.562 195.055 348.066C191.728 357.57 179.38 371.373 179.858 386.549C180.337 401.724 185.036 425.031 184.609 429.783C184.182 434.018 174.707 447.29 172.649 450.138L177.477 450.682H202.614C202.471 437.941 202.484 385.94 211.196 365.223C221.175 341.411 228.773 297.71 228.773 297.71Z" fill="#92E3A9"/>
<mask id="mask4_257_401" style="mask-type:luminance" maskUnits="userSpaceOnUse" x="129" y="242" width="100" height="209">
<path d="M228.773 297.71C226.871 300.079 224.023 295.327 217.37 292.012C213.176 289.902 206.497 287.985 200.97 285.914C199.404 282.198 197.333 277.355 195.999 274.428C193.631 269.249 189.825 272.525 189.825 272.525C187.84 270.266 186.235 267.699 185.075 264.924C182.706 259.745 178.901 260.172 173.684 259.227C168.468 258.282 157.53 248.299 157.53 248.299C157.53 248.299 152.417 244.414 150.308 242.485C147.848 247.327 141.959 255.848 129.222 261.169C149.531 282.392 190.731 322.713 195.055 325.743C199.805 329.058 198.381 338.562 195.055 348.066C191.728 357.57 179.38 371.373 179.858 386.549C180.337 401.724 185.036 425.031 184.609 429.783C184.182 434.018 174.707 447.29 172.649 450.138L177.477 450.682H202.614C202.471 437.941 202.484 385.94 211.196 365.223C221.175 341.411 228.773 297.71 228.773 297.71Z" fill="white"/>
</mask>
<g mask="url(#mask4_257_401)">
<path opacity="0.16" d="M217.37 292.012C213.176 289.902 206.497 287.985 200.97 285.914C199.404 282.198 197.333 277.355 196 274.428C193.631 269.249 189.825 272.525 189.825 272.525C187.84 270.266 186.235 267.699 185.075 264.924C182.706 259.745 178.901 260.172 173.684 259.227C168.468 258.282 157.53 248.299 157.53 248.299C157.53 248.299 152.418 244.414 150.308 242.485C149.255 244.541 148.002 246.488 146.567 248.299C155.058 255.485 164.429 263.099 167.704 264.614C174.176 267.605 175.691 265.106 180.648 268.11C185.606 271.114 191.133 281.058 191.133 281.058C191.133 281.058 194.136 273.056 196.634 278.559C199.132 284.062 205.125 293.54 205.125 293.54C205.125 293.54 213.111 298.033 215.105 298.033C216.671 298.033 224.347 302.022 227.608 303.744C228.333 299.95 228.735 297.671 228.735 297.671C226.871 300.079 224.023 295.327 217.37 292.012Z" fill="black"/>
</g>
<path d="M228.773 297.71C226.871 300.079 224.023 295.327 217.37 292.012C213.176 289.902 206.497 287.985 200.97 285.914C199.404 282.198 197.333 277.355 195.999 274.428C193.631 269.249 189.825 272.525 189.825 272.525C187.84 270.266 186.235 267.699 185.075 264.924C182.706 259.745 178.901 260.172 173.684 259.227C168.468 258.282 157.53 248.299 157.53 248.299C157.53 248.299 152.417 244.414 150.308 242.485C147.848 247.327 141.959 255.848 129.222 261.169C149.531 282.392 190.731 322.713 195.055 325.743C199.805 329.058 198.381 338.562 195.055 348.066C191.728 357.57 179.38 371.373 179.858 386.549C180.337 401.724 185.036 425.031 184.609 429.783C184.182 434.018 174.707 447.29 172.649 450.138L177.477 450.682H202.614C202.471 437.941 202.484 385.94 211.196 365.223C221.175 341.411 228.773 297.71 228.773 297.71Z" stroke="#263238" stroke-linecap="round" stroke-linejoin="round"/>
<path d="M229.11 296.052C229.11 296.052 223.208 294.24 219.57 297.425C215.933 300.61 210.51 316.951 207.312 334.677C205.342 344.997 206.702 355.675 211.196 365.171C211.196 365.171 218.664 345.58 220.929 336.037C223.195 326.494 229.11 296.052 229.11 296.052Z" fill="#92E3A9"/>
<mask id="mask5_257_401" style="mask-type:luminance" maskUnits="userSpaceOnUse" x="206" y="295" width="24" height="71">
<path d="M229.11 296.052C229.11 296.052 223.208 294.24 219.57 297.425C215.933 300.61 210.51 316.951 207.312 334.677C205.342 344.997 206.702 355.675 211.196 365.171C211.196 365.171 218.664 345.58 220.929 336.037C223.195 326.494 229.11 296.052 229.11 296.052Z" fill="white"/>
</mask>
<g mask="url(#mask5_257_401)">
<path opacity="0.16" d="M217.784 298.94C217.784 298.94 222.056 297.904 223.816 298.5C225.298 299.136 226.684 299.977 227.932 300.999L229.11 296.052C227.343 295.149 225.339 294.819 223.376 295.107C220.438 295.703 217.784 298.94 217.784 298.94Z" fill="black"/>
</g>
<path d="M229.11 296.052C229.11 296.052 223.208 294.24 219.57 297.425C215.933 300.61 210.51 316.951 207.312 334.677C205.342 344.997 206.702 355.675 211.196 365.171C211.196 365.171 218.664 345.58 220.929 336.037C223.195 326.494 229.11 296.052 229.11 296.052Z" stroke="#263238" stroke-linecap="round" stroke-linejoin="round"/>
<path d="M189.359 297.606L196.957 328.488L179.859 289.526" stroke="#263238" stroke-linecap="round" stroke-linejoin="round"/>
<path d="M239.413 450.682H294.787C294.787 450.682 279.513 431.26 279.513 424.617C279.513 417.975 300.482 332.865 301.427 326.688C302.372 320.512 298.58 316.239 290.982 315.76C283.384 315.281 254.415 309.104 252.991 304.352C252.991 304.352 242.067 342.835 238.274 368.965C235.012 391.379 238.391 437.889 239.413 450.682Z" fill="#92E3A9"/>
<mask id="mask6_257_401" style="mask-type:luminance" maskUnits="userSpaceOnUse" x="236" y="304" width="66" height="147">
<path d="M239.413 450.682H294.787C294.787 450.682 279.513 431.26 279.513 424.617C279.513 417.975 300.482 332.865 301.427 326.688C302.372 320.512 298.58 316.239 290.982 315.76C283.384 315.281 254.415 309.104 252.991 304.352C252.991 304.352 242.067 342.835 238.274 368.965C235.012 391.379 238.391 437.889 239.413 450.682Z" fill="white"/>
</mask>
<g mask="url(#mask6_257_401)">
<path opacity="0.16" d="M290.982 315.76C284.756 315.371 264.188 311.15 256.176 307.033L259.088 313.766C264.365 316.566 270.04 318.54 275.915 319.618C285.558 321.341 294.528 321.004 300.392 329.628L300.677 330.055C301.039 328.397 301.285 327.232 301.363 326.688C302.385 320.512 298.58 316.239 290.982 315.76Z" fill="black"/>
</g>
<path d="M239.413 450.682H294.787C294.787 450.682 279.513 431.26 279.513 424.617C279.513 417.975 300.482 332.865 301.427 326.688C302.372 320.512 298.58 316.239 290.982 315.76C283.384 315.281 254.415 309.104 252.991 304.352C252.991 304.352 242.067 342.835 238.274 368.965C235.012 391.379 238.391 437.889 239.413 450.682Z" stroke="#263238" stroke-linecap="round" stroke-linejoin="round"/>
<path d="M252.991 304.352C252.991 304.352 238.339 350.967 238.274 368.965C238.274 368.965 259.088 343.754 261.806 326.041C264.524 308.327 252.991 304.352 252.991 304.352Z" fill="#92E3A9"/>
<mask id="mask7_257_401" style="mask-type:luminance" maskUnits="userSpaceOnUse" x="238" y="304" width="25" height="65">
<path d="M252.991 304.352C252.991 304.352 238.339 350.967 238.274 368.965C238.274 368.965 259.088 343.754 261.806 326.041C264.524 308.327 252.991 304.352 252.991 304.352Z" fill="white"/>
</mask>
<g mask="url(#mask7_257_401)">
<path opacity="0.16" d="M250.467 310.309C252.669 310.235 254.855 310.698 256.838 311.659C258.82 312.621 260.539 314.05 261.845 315.825C261.845 315.825 258.971 307.369 252.991 304.352L250.467 310.309Z" fill="black"/>
</g>
<path d="M252.991 304.352C252.991 304.352 238.339 350.967 238.274 368.965C238.274 368.965 259.088 343.754 261.806 326.041C264.524 308.327 252.991 304.352 252.991 304.352Z" stroke="#263238" stroke-linecap="round" stroke-linejoin="round"/>
<path d="M409.418 441.916C409.418 441.916 420.148 442.356 427.177 443.366C431.864 444.002 436.583 444.378 441.312 444.493C441.312 444.493 437.428 436.646 433.286 434.432C429.144 432.218 421.637 428.256 415.346 429.136C409.055 430.017 400.059 436.361 400.81 438.381C401.561 440.401 404.913 441.308 409.418 441.916Z" fill="white"/>
<mask id="mask8_257_401" style="mask-type:luminance" maskUnits="userSpaceOnUse" x="400" y="429" width="42" height="16">
<path d="M409.418 441.916C409.418 441.916 420.148 442.356 427.177 443.366C431.864 444.002 436.583 444.378 441.312 444.493C441.312 444.493 437.428 436.646 433.286 434.432C429.144 432.218 421.637 428.256 415.346 429.136C409.055 430.017 400.059 436.361 400.81 438.381C401.561 440.401 404.913 441.308 409.418 441.916Z" fill="white"/>
</mask>
<g mask="url(#mask8_257_401)">
<path d="M409.418 441.916C409.418 441.916 420.148 442.356 427.177 443.366C431.864 444.002 436.583 444.378 441.312 444.493C441.312 444.493 437.428 436.646 433.286 434.432C429.144 432.218 421.637 428.256 415.346 429.136C409.055 430.017 400.059 436.361 400.81 438.381C401.561 440.401 404.913 441.308 409.418 441.916Z" fill="#92E3A9"/>
<path opacity="0.5" d="M409.418 441.916C409.418 441.916 420.148 442.356 427.177 443.366C431.864 444.002 436.583 444.378 441.312 444.493C441.312 444.493 437.428 436.646 433.286 434.432C429.144 432.218 421.637 428.256 415.346 429.136C409.055 430.017 400.059 436.361 400.81 438.381C401.561 440.401 404.913 441.308 409.418 441.916Z" fill="white"/>
</g>
<path d="M409.418 441.916C409.418 441.916 420.148 442.356 427.177 443.366C431.864 444.002 436.583 444.378 441.312 444.493C441.312 444.493 437.428 436.646 433.286 434.432C429.144 432.218 421.637 428.256 415.346 429.136C409.055 430.017 400.059 436.361 400.81 438.381C401.561 440.401 404.913 441.308 409.418 441.916Z" stroke="#263238" stroke-linecap="round" stroke-linejoin="round"/>
<path d="M427.242 438.705C427.242 438.705 435.746 434.289 437.868 434.354C439.991 434.419 454.1 443.962 453.401 445.49C452.926 446.198 452.241 446.74 451.442 447.037C450.643 447.335 449.771 447.373 448.948 447.147C447.382 446.409 437.881 442.369 437.881 442.369L431.668 443.832L427.242 438.705Z" fill="white"/>
<mask id="mask9_257_401" style="mask-type:luminance" maskUnits="userSpaceOnUse" x="427" y="434" width="27" height="14">
<path d="M427.242 438.705C427.242 438.705 435.746 434.289 437.868 434.354C439.991 434.419 454.1 443.962 453.401 445.49C452.926 446.198 452.241 446.74 451.442 447.037C450.643 447.335 449.771 447.373 448.948 447.147C447.382 446.409 437.881 442.369 437.881 442.369L431.668 443.832L427.242 438.705Z" fill="white"/>
</mask>
<g mask="url(#mask9_257_401)">
<path d="M427.242 438.705C427.242 438.705 435.746 434.289 437.868 434.354C439.991 434.419 454.1 443.962 453.401 445.49C452.702 447.018 449.363 448.261 448.948 447.147C448.534 446.034 437.881 442.369 437.881 442.369L431.668 443.832L427.242 438.705Z" fill="#92E3A9"/>
<path opacity="0.5" d="M427.242 438.705C427.242 438.705 435.746 434.289 437.868 434.354C439.991 434.419 454.1 443.962 453.401 445.49C452.702 447.018 449.363 448.261 448.948 447.147C448.534 446.034 437.881 442.369 437.881 442.369L431.668 443.832L427.242 438.705Z" fill="white"/>
</g>
<path d="M427.242 438.705C427.242 438.705 435.746 434.289 437.868 434.354C439.991 434.419 454.1 443.962 453.401 445.49C452.926 446.198 452.241 446.74 451.442 447.037C450.643 447.335 449.771 447.373 448.948 447.147C447.382 446.409 437.881 442.369 437.881 442.369L431.668 443.832L427.242 438.705Z" stroke="#263238" stroke-linecap="round" stroke-linejoin="round"/>
<path d="M421.171 431.441C421.171 431.441 432.51 431.078 434.762 432.218C437.014 433.357 447.188 450.812 445.661 452.081C444.133 453.35 439.914 452.974 440.043 451.563C440.173 450.151 430.672 440.803 430.672 440.803L423.281 439.184L421.171 431.441Z" fill="white"/>
<mask id="mask10_257_401" style="mask-type:luminance" maskUnits="userSpaceOnUse" x="421" y="431" width="25" height="22">
<path d="M421.171 431.441C421.171 431.441 432.51 431.078 434.762 432.218C437.014 433.357 447.188 450.812 445.661 452.081C444.133 453.35 439.914 452.974 440.043 451.563C440.173 450.151 430.672 440.803 430.672 440.803L423.281 439.184L421.171 431.441Z" fill="white"/>
</mask>
<g mask="url(#mask10_257_401)">
<path d="M421.171 431.441C421.171 431.441 432.51 431.078 434.762 432.218C437.014 433.357 447.188 450.812 445.661 452.081C444.133 453.35 439.914 452.974 440.043 451.563C440.173 450.151 430.672 440.803 430.672 440.803L423.281 439.184L421.171 431.441Z" fill="#92E3A9"/>
<path opacity="0.5" d="M421.171 431.441C421.171 431.441 432.51 431.078 434.762 432.218C437.014 433.357 447.188 450.812 445.661 452.081C444.133 453.35 439.914 452.974 440.043 451.563C440.173 450.151 430.672 440.803 430.672 440.803L423.281 439.184L421.171 431.441Z" fill="white"/>
</g>
<path d="M421.171 431.441C421.171 431.441 432.51 431.078 434.762 432.218C437.014 433.357 447.188 450.812 445.661 452.081C444.133 453.35 439.914 452.974 440.043 451.563C440.173 450.151 430.672 440.803 430.672 440.803L423.281 439.184L421.171 431.441Z" stroke="#263238" stroke-linecap="round" stroke-linejoin="round"/>
<path d="M414.453 429.097C414.453 429.097 425.934 428.722 428.212 429.887C430.49 431.052 440.794 448.701 439.24 449.996C437.687 451.291 433.442 450.889 433.571 449.465C433.701 448.041 424.083 438.575 424.083 438.575L416.602 436.931L414.453 429.097Z" fill="white"/>
<mask id="mask11_257_401" style="mask-type:luminance" maskUnits="userSpaceOnUse" x="414" y="429" width="26" height="22">
<path d="M414.453 429.097C414.453 429.097 425.934 428.722 428.212 429.887C430.49 431.052 440.794 448.701 439.24 449.996C437.687 451.291 433.442 450.889 433.571 449.465C433.701 448.041 424.083 438.575 424.083 438.575L416.602 436.931L414.453 429.097Z" fill="white"/>
</mask>
<g mask="url(#mask11_257_401)">
<path d="M414.453 429.097C414.453 429.097 425.934 428.722 428.212 429.887C430.49 431.052 440.794 448.701 439.24 449.996C437.687 451.291 433.442 450.889 433.571 449.465C433.701 448.041 424.083 438.575 424.083 438.575L416.602 436.931L414.453 429.097Z" fill="#92E3A9"/>
<path opacity="0.5" d="M414.453 429.097C414.453 429.097 425.934 428.722 428.212 429.887C430.49 431.052 440.794 448.701 439.24 449.996C437.687 451.291 433.442 450.889 433.571 449.465C433.701 448.041 424.083 438.575 424.083 438.575L416.602 436.931L414.453 429.097Z" fill="white"/>
</g>
<path d="M414.453 429.097C414.453 429.097 425.934 428.722 428.212 429.887C430.49 431.052 440.794 448.701 439.24 449.996C437.687 451.291 433.442 450.889 433.571 449.465C433.701 448.041 424.083 438.575 424.083 438.575L416.602 436.931L414.453 429.097Z" stroke="#263238" stroke-linecap="round" stroke-linejoin="round"/>
<path d="M283.914 363.294C292.224 376.1 308.909 408.548 313.776 412.2C321.374 417.897 372.165 431.726 377.058 435.507C381.951 439.288 381.614 443.082 386.248 444.467C390.882 445.853 408.253 449.828 414.88 450.449C421.507 451.071 418.543 446.966 418.543 446.966L407.243 439.197L417.094 436.763C417.094 436.763 426.97 448.649 428.821 449.297C430.672 449.944 433.934 449.297 433.726 447.834C433.364 445.49 422.828 426.313 419.087 425.498C415.346 424.682 392.643 427.828 392.643 427.828C392.643 427.828 345.022 395.703 344.168 394.564C344.168 394.564 341.32 386.484 338.99 383.156C336.66 379.829 335.185 380.787 335.185 380.787C335.185 380.787 336.143 376.501 334.719 375.077L327.121 367.476L326.849 367.838C325.555 365.249 324.26 362.297 322.836 358.93C318.863 349.568 304.793 323.296 302.424 319.502C300.651 316.666 285.791 314.633 278.258 313.779" fill="#92E3A9"/>
<mask id="mask12_257_401" style="mask-type:luminance" maskUnits="userSpaceOnUse" x="278" y="313" width="156" height="138">
<path d="M283.914 363.294C292.224 376.1 308.909 408.548 313.776 412.2C321.374 417.897 372.165 431.726 377.058 435.507C381.951 439.288 381.614 443.082 386.248 444.467C390.882 445.853 408.253 449.828 414.88 450.449C421.507 451.071 418.543 446.966 418.543 446.966L407.243 439.197L417.094 436.763C417.094 436.763 426.97 448.649 428.821 449.297C430.672 449.944 433.934 449.297 433.726 447.834C433.364 445.49 422.828 426.313 419.087 425.498C415.346 424.682 392.643 427.828 392.643 427.828C392.643 427.828 345.022 395.703 344.168 394.564C344.168 394.564 341.32 386.484 338.99 383.156C336.66 379.829 335.185 380.787 335.185 380.787C335.185 380.787 336.143 376.501 334.719 375.077L327.121 367.476L326.849 367.838C325.555 365.249 324.26 362.297 322.836 358.93C318.863 349.568 304.793 323.296 302.424 319.502C300.651 316.666 285.791 314.633 278.258 313.779" fill="white"/>
</mask>
<g mask="url(#mask12_257_401)">
<path opacity="0.16" d="M316.999 364.109C323.212 369.625 321.141 369.625 319.756 374.468C318.371 379.311 320.791 372.746 326.655 373.095C332.518 373.445 330.797 381.02 330.098 382.405C329.399 383.791 337.347 385.513 335.962 388.608C334.577 391.702 326.655 396.195 322.176 400.688C317.698 405.182 333.891 393.437 339.405 393.101C341.087 392.984 342.472 393.204 343.637 393.178C342.415 389.714 340.845 386.382 338.952 383.234C336.57 379.906 335.146 380.864 335.146 380.864C335.146 380.864 336.104 376.579 334.68 375.154L327.082 367.553L326.81 367.916C325.516 365.326 324.221 362.374 322.798 359.008C318.824 349.646 304.754 323.374 302.385 319.58C300.612 316.744 285.752 314.711 278.219 313.856L278.905 319.852L279.073 319.981C279.073 319.981 288.38 321.703 291.486 322.053C294.593 322.402 298.385 325.147 298.036 327.232C297.686 329.317 288.729 338.614 291.486 339.313C294.243 340.012 297.35 332.411 300.456 333.447C303.563 334.483 310.747 358.593 316.999 364.109Z" fill="black"/>
</g>
<path d="M283.914 363.294C292.224 376.1 308.909 408.548 313.776 412.2C321.374 417.897 372.165 431.726 377.058 435.507C381.951 439.288 381.614 443.082 386.248 444.467C390.882 445.853 408.253 449.828 414.88 450.449C421.507 451.071 418.543 446.966 418.543 446.966L407.243 439.197L417.094 436.763C417.094 436.763 426.97 448.649 428.821 449.297C430.672 449.944 433.934 449.297 433.726 447.834C433.364 445.49 422.828 426.313 419.087 425.498C415.346 424.682 392.643 427.828 392.643 427.828C392.643 427.828 345.022 395.703 344.168 394.564C344.168 394.564 341.32 386.484 338.99 383.156C336.66 379.829 335.185 380.787 335.185 380.787C335.185 380.787 336.143 376.501 334.719 375.077L327.121 367.476L326.849 367.838C325.555 365.249 324.26 362.297 322.836 358.93C318.863 349.568 304.793 323.296 302.424 319.502C300.651 316.666 285.791 314.633 278.258 313.779" stroke="#263238" stroke-linecap="round" stroke-linejoin="round"/>
<path d="M284.044 345.722C283.694 346.888 283.396 348.053 283.163 349.244" stroke="#263238" stroke-linecap="round" stroke-linejoin="round"/>
<path d="M296.625 324.293C292.558 328.931 289.127 334.091 286.425 339.637" stroke="#263238" stroke-linecap="round" stroke-linejoin="round"/>
<path d="M315.64 397.814C319.134 392.635 324.7 386.07 330.836 384.192" stroke="#263238" stroke-linecap="round" stroke-linejoin="round"/>
<path d="M311.769 404.184C311.769 404.184 312.391 402.967 313.504 401.129" stroke="#263238" stroke-linecap="round" stroke-linejoin="round"/>
<path d="M311.769 396.001C311.769 396.001 318.125 380.1 324.48 376.009C330.836 371.917 327.198 380.1 327.198 380.1" stroke="#263238" stroke-linecap="round" stroke-linejoin="round"/>
<path d="M377.058 435.52C381.964 439.313 381.614 443.094 386.248 444.48C390.882 445.865 408.253 449.841 414.88 450.462C421.507 451.084 418.543 446.979 418.543 446.979L407.243 439.21L417.094 436.776C417.094 436.776 426.97 448.662 428.821 449.31C430.672 449.957 434.192 450.19 433.726 447.846C432.82 443.315 422.828 426.326 419.087 425.51C415.346 424.695 392.643 427.841 392.643 427.841C392.643 427.841 349.268 398.06 344.517 394.836C326.098 396.61 317.335 406.256 313.646 412.044L313.776 412.148C321.374 417.897 372.165 431.726 377.058 435.52Z" fill="white"/>
<mask id="mask13_257_401" style="mask-type:luminance" maskUnits="userSpaceOnUse" x="313" y="394" width="121" height="57">
<path d="M377.058 435.52C381.964 439.313 381.614 443.094 386.248 444.48C390.882 445.865 408.253 449.841 414.88 450.462C421.507 451.084 418.543 446.979 418.543 446.979L407.243 439.21L417.094 436.776C417.094 436.776 426.97 448.662 428.821 449.31C430.672 449.957 434.192 450.19 433.726 447.846C432.82 443.315 422.828 426.326 419.087 425.51C415.346 424.695 392.643 427.841 392.643 427.841C392.643 427.841 349.268 398.06 344.517 394.836C326.098 396.61 317.335 406.256 313.646 412.044L313.776 412.148C321.374 417.897 372.165 431.726 377.058 435.52Z" fill="white"/>
</mask>
<g mask="url(#mask13_257_401)">
<path d="M433.714 447.898C431.358 442.136 422.815 426.378 419.074 425.562C415.333 424.746 392.63 427.893 392.63 427.893C392.63 427.893 349.255 398.112 344.504 394.887C339.67 395.308 334.926 396.456 330.434 398.293C337.282 402.177 382.922 428.074 388.682 429.227C394.791 430.521 415.178 427.168 418.763 429.576C421.042 431.104 427.824 441.864 432.406 449.504C433.714 449.31 434.192 449.064 433.714 447.898Z" fill="#92E3A9"/>
<path opacity="0.5" d="M433.714 447.898C430.037 439.65 422.815 426.378 419.074 425.562C415.333 424.746 392.63 427.893 392.63 427.893C392.63 427.893 349.255 398.112 344.504 394.887C339.67 395.308 334.926 396.456 330.434 398.293C337.282 402.177 382.922 428.074 388.682 429.227C394.791 430.521 415.178 427.168 418.763 429.576C421.042 431.104 427.824 441.864 432.406 449.504C433.714 449.31 434.231 449.051 433.714 447.898Z" fill="white"/>
</g>
<path d="M377.058 435.52C381.964 439.313 381.614 443.094 386.248 444.48C390.882 445.865 408.253 449.841 414.88 450.462C421.507 451.084 418.543 446.979 418.543 446.979L407.243 439.21L417.094 436.776C417.094 436.776 426.97 448.662 428.821 449.31C430.672 449.957 434.192 450.19 433.726 447.846C432.82 443.315 422.828 426.326 419.087 425.51C415.346 424.695 392.643 427.841 392.643 427.841C392.643 427.841 349.268 398.06 344.517 394.836C326.098 396.61 317.335 406.256 313.646 412.044L313.776 412.148C321.374 417.897 372.165 431.726 377.058 435.52Z" stroke="#263238" stroke-linecap="round" stroke-linejoin="round"/>
<path d="M262.66 209.415L223.673 225.691C223.201 232.545 221.504 239.259 218.664 245.515C214.056 255.265 216.748 273.716 221.175 283.674C225.602 293.631 245.108 289.734 252.24 288.49C257.078 287.57 261.815 286.187 266.388 284.36C268.47 285.163 270.722 285.422 272.932 285.114C275.143 284.806 277.238 283.941 279.021 282.599C279.021 282.599 258.156 224.007 262.66 209.415Z" fill="white"/>
<mask id="mask14_257_401" style="mask-type:luminance" maskUnits="userSpaceOnUse" x="216" y="209" width="64" height="82">
<path d="M262.66 209.415L223.673 225.691C223.201 232.545 221.504 239.259 218.664 245.515C214.056 255.265 216.748 273.716 221.175 283.674C225.602 293.631 245.108 289.734 252.24 288.49C257.078 287.57 261.815 286.187 266.388 284.36C268.47 285.163 270.722 285.422 272.932 285.114C275.143 284.806 277.238 283.941 279.021 282.599C279.021 282.599 258.156 224.007 262.66 209.415Z" fill="white"/>
</mask>
<g mask="url(#mask14_257_401)">
<path d="M262.66 209.415L223.673 225.691C223.201 232.545 221.504 239.259 218.664 245.515C214.056 255.265 216.748 273.716 221.175 283.674C221.916 285.275 223.108 286.625 224.605 287.558V286.807C224.605 286.807 217.37 268.874 218.742 258.528C220.114 248.182 225.99 242.99 226.676 236.451C227.362 229.912 227.013 226.804 240.125 221.975C253.237 217.145 258.738 212.665 260.11 217.481C261.482 222.298 267.009 254.048 270.802 261.635C274.595 269.223 274.245 277.174 268.394 280.605C262.481 284.156 256.145 286.949 249.535 288.918L252.292 288.439C257.129 287.518 261.867 286.135 266.44 284.308C268.522 285.111 270.774 285.37 272.984 285.062C275.194 284.754 277.29 283.889 279.073 282.547C279.073 282.547 258.156 224.007 262.66 209.415Z" fill="#92E3A9"/>
<path opacity="0.5" d="M262.66 209.415L223.673 225.691C223.201 232.545 221.504 239.259 218.664 245.515C214.056 255.265 216.748 273.716 221.175 283.674C221.916 285.275 223.108 286.625 224.605 287.558V286.807C224.605 286.807 217.37 268.874 218.742 258.528C220.114 248.182 225.99 242.99 226.676 236.451C227.362 229.912 227.013 226.804 240.125 221.975C253.237 217.145 258.738 212.665 260.11 217.481C261.482 222.298 267.009 254.048 270.802 261.635C274.595 269.223 274.245 277.174 268.394 280.605C262.481 284.156 256.145 286.949 249.535 288.918L252.292 288.439C257.129 287.518 261.867 286.135 266.44 284.308C268.522 285.111 270.774 285.37 272.984 285.062C275.194 284.754 277.29 283.889 279.073 282.547C279.073 282.547 258.156 224.007 262.66 209.415Z" fill="white"/>
</g>
<path d="M262.66 209.415L223.673 225.691C223.201 232.545 221.504 239.259 218.664 245.515C214.056 255.265 216.748 273.716 221.175 283.674C225.602 293.631 245.108 289.734 252.24 288.49C257.078 287.57 261.815 286.187 266.388 284.36C268.47 285.163 270.722 285.422 272.932 285.114C275.143 284.806 277.238 283.941 279.021 282.599C279.021 282.599 258.156 224.007 262.66 209.415Z" stroke="#263238" stroke-linecap="round" stroke-linejoin="round"/>
<path d="M242.96 234.936C243.066 237.229 242.781 239.523 242.118 241.721C241.083 244.31 231.31 254.488 231.608 255.589C231.906 256.689 232.786 260.224 234.52 260.561" stroke="#263238" stroke-linecap="round" stroke-linejoin="round"/>
<path d="M253.794 244.039C255.153 241.319 259.619 243.974 259.554 250.098" stroke="#263238" stroke-linecap="round" stroke-linejoin="round"/>
<path d="M231.66 236.036C231.66 236.036 235.465 234.366 238.87 240.53" stroke="#263238" stroke-linecap="round" stroke-linejoin="round"/>
<path d="M248.383 253.012C252.781 253.233 256.962 254.988 260.201 257.971" stroke="#263238" stroke-width="0.5" stroke-linecap="round" stroke-linejoin="round"/>
<path d="M227.065 244.919C229.338 245.223 231.56 245.837 233.666 246.745" stroke="#263238" stroke-width="0.5" stroke-linecap="round" stroke-linejoin="round"/>
<path d="M242.533 229.187C241.528 228.655 240.413 228.364 239.276 228.337C238.14 228.31 237.012 228.548 235.983 229.031C232.501 230.702 230.365 232.54 230.598 230.404C230.831 228.267 234.922 225.911 236.151 225.6C237.381 225.289 242.882 224.435 242.533 229.187Z" fill="#263238"/>
<path d="M252.292 224.357C255.921 227.294 258.804 231.047 260.706 235.311C263.295 241.786 265.34 234.716 263.295 230.482C261.25 226.247 255.334 221.741 252.292 224.357Z" fill="#263238"/>
<path d="M279.591 293.67C279.591 296.687 277.882 299.134 275.785 299.134C273.689 299.134 271.993 296.687 271.993 293.67C271.993 290.653 273.689 282.974 275.785 282.974C277.882 282.974 279.591 290.653 279.591 293.67Z" fill="#92E3A9" stroke="#263238" stroke-linecap="round" stroke-linejoin="round"/>
<path d="M254.13 242.86C253.982 243.256 253.865 243.663 253.781 244.077C253.406 245.994 253.03 249.995 253.781 250.163C254.532 250.331 256.37 246.589 256.693 244.673C256.766 244.297 256.809 243.916 256.823 243.534C255.939 243.256 255.04 243.032 254.13 242.86Z" fill="#263238"/>
<path d="M232.048 235.661C231.933 235.999 231.842 236.346 231.776 236.697C231.388 238.613 231.401 242.821 232.216 242.977C233.032 243.132 234.365 239.196 234.74 237.28C234.834 236.815 234.886 236.342 234.896 235.868C233.969 235.613 233.002 235.543 232.048 235.661Z" fill="#263238"/>
<path d="M253.794 244.103L255.088 241.695C257.14 242.095 259 243.171 260.369 244.751" stroke="#263238" stroke-width="0.75" stroke-linecap="round" stroke-linejoin="round"/>
<path d="M232.048 235.661L233.343 234.146C233.343 234.146 233.899 233.874 236.954 235.26" stroke="#263238" stroke-width="0.75" stroke-linecap="round" stroke-linejoin="round"/>
<path d="M227.142 270.777C227.142 270.777 229.317 266.776 232.229 266.776C235.142 266.776 237.316 273.315 237.316 273.315" stroke="#263238" stroke-linecap="round" stroke-linejoin="round"/>
<path d="M133.416 443.328C130.602 443.188 127.837 442.529 125.261 441.385C124.902 441.252 124.574 441.048 124.296 440.784C124.019 440.52 123.798 440.203 123.647 439.851C123.496 439.499 123.418 439.12 123.418 438.737C123.418 438.353 123.497 437.975 123.648 437.623C123.799 437.271 124.02 436.953 124.298 436.69C124.576 436.426 124.904 436.222 125.264 436.089C125.623 435.957 126.005 435.899 126.388 435.919C126.77 435.939 127.144 436.037 127.488 436.206C130.077 437.307 133.429 437.993 134.322 437.604C135.966 435.766 138.49 424.656 135.228 419.295C134.49 418.104 133.804 417.884 133.351 417.832C131.5 417.573 128.756 419.477 127.785 420.422C127.515 420.677 127.197 420.876 126.85 421.008C126.503 421.141 126.133 421.203 125.762 421.192C125.39 421.181 125.024 421.097 124.685 420.945C124.347 420.793 124.041 420.576 123.786 420.305C123.531 420.035 123.332 419.717 123.199 419.37C123.067 419.022 123.005 418.652 123.016 418.281C123.027 417.909 123.11 417.543 123.263 417.204C123.415 416.865 123.632 416.559 123.902 416.304C124.407 415.812 129.08 411.604 134.063 412.277C135.299 412.458 136.477 412.921 137.505 413.63C138.533 414.34 139.384 415.277 139.992 416.369C144.794 424.203 141.506 439.106 137.817 442.059C136.535 442.966 134.984 443.413 133.416 443.328Z" fill="white"/>
<mask id="mask15_257_401" style="mask-type:luminance" maskUnits="userSpaceOnUse" x="123" y="412" width="20" height="32">
<path d="M133.416 443.328C130.602 443.188 127.837 442.529 125.261 441.385C124.902 441.252 124.574 441.048 124.296 440.784C124.019 440.52 123.798 440.203 123.647 439.851C123.496 439.499 123.418 439.12 123.418 438.737C123.418 438.353 123.497 437.975 123.648 437.623C123.799 437.271 124.02 436.953 124.298 436.69C124.576 436.426 124.904 436.222 125.264 436.089C125.623 435.957 126.005 435.899 126.388 435.919C126.77 435.939 127.144 436.037 127.488 436.206C130.077 437.307 133.429 437.993 134.322 437.604C135.966 435.766 138.49 424.656 135.228 419.295C134.49 418.104 133.804 417.884 133.351 417.832C131.5 417.573 128.756 419.477 127.785 420.422C127.515 420.677 127.197 420.876 126.85 421.008C126.503 421.141 126.133 421.203 125.762 421.192C125.39 421.181 125.024 421.097 124.685 420.945C124.347 420.793 124.041 420.576 123.786 420.305C123.531 420.035 123.332 419.717 123.199 419.37C123.067 419.022 123.005 418.652 123.016 418.281C123.027 417.909 123.11 417.543 123.263 417.204C123.415 416.865 123.632 416.559 123.902 416.304C124.407 415.812 129.08 411.604 134.063 412.277C135.299 412.458 136.477 412.921 137.505 413.63C138.533 414.34 139.384 415.277 139.992 416.369C144.794 424.203 141.506 439.106 137.817 442.059C136.535 442.966 134.984 443.413 133.416 443.328Z" fill="white"/>
</mask>
<g mask="url(#mask15_257_401)">
<path d="M137.209 418.441C136.869 417.637 136.338 416.928 135.661 416.377C134.984 415.826 134.182 415.45 133.325 415.281C130.09 414.763 127.048 418.013 126.711 418.376C126.402 418.749 126.211 419.206 126.162 419.688C126.114 420.17 126.21 420.655 126.439 421.082C126.949 420.98 127.419 420.738 127.798 420.383C128.769 419.477 131.513 417.573 133.364 417.793C133.817 417.793 134.503 418.065 135.241 419.257C138.503 424.565 135.979 435.727 134.335 437.566C133.442 437.954 130.102 437.268 127.501 436.167C127.181 436.033 126.838 435.958 126.491 435.947C126.515 436.302 126.627 436.645 126.816 436.946C127.006 437.247 127.268 437.495 127.578 437.669C129.215 438.544 131.021 439.056 132.872 439.171C133.929 439.222 134.964 438.86 135.759 438.161C138.192 435.921 140.341 424.462 137.209 418.441Z" fill="#92E3A9"/>
<path opacity="0.5" d="M137.209 418.441C136.869 417.637 136.338 416.928 135.661 416.377C134.984 415.826 134.182 415.45 133.325 415.281C130.09 414.763 127.048 418.013 126.711 418.376C126.402 418.749 126.211 419.206 126.162 419.688C126.114 420.17 126.21 420.655 126.439 421.082C126.949 420.98 127.419 420.738 127.798 420.383C128.769 419.477 131.513 417.573 133.364 417.793C133.817 417.793 134.503 418.065 135.241 419.257C138.503 424.565 135.979 435.727 134.335 437.566C133.442 437.954 130.102 437.268 127.501 436.167C127.181 436.033 126.838 435.958 126.491 435.947C126.515 436.302 126.627 436.645 126.816 436.946C127.006 437.247 127.268 437.495 127.578 437.669C129.215 438.544 131.021 439.056 132.872 439.171C133.929 439.222 134.964 438.86 135.759 438.161C138.192 435.921 140.341 424.462 137.209 418.441Z" fill="white"/>
</g>
<path d="M133.416 443.328C130.602 443.188 127.837 442.529 125.261 441.385C124.902 441.252 124.574 441.048 124.296 440.784C124.019 440.52 123.798 440.203 123.647 439.851C123.496 439.499 123.418 439.12 123.418 438.737C123.418 438.353 123.497 437.975 123.648 437.623C123.799 437.271 124.02 436.953 124.298 436.69C124.576 436.426 124.904 436.222 125.264 436.089C125.623 435.957 126.005 435.899 126.388 435.919C126.77 435.939 127.144 436.037 127.488 436.206C130.077 437.307 133.429 437.993 134.322 437.604C135.966 435.766 138.49 424.656 135.228 419.295C134.49 418.104 133.804 417.884 133.351 417.832C131.5 417.573 128.756 419.477 127.785 420.422C127.515 420.677 127.197 420.876 126.85 421.008C126.503 421.141 126.133 421.203 125.762 421.192C125.39 421.181 125.024 421.097 124.685 420.945C124.347 420.793 124.041 420.576 123.786 420.305C123.531 420.035 123.332 419.717 123.199 419.37C123.067 419.022 123.005 418.652 123.016 418.281C123.027 417.909 123.11 417.543 123.263 417.204C123.415 416.865 123.632 416.559 123.902 416.304C124.407 415.812 129.08 411.604 134.063 412.277C135.299 412.458 136.477 412.921 137.505 413.63C138.533 414.34 139.384 415.277 139.992 416.369C144.794 424.203 141.506 439.106 137.817 442.059C136.535 442.966 134.984 443.413 133.416 443.328Z" stroke="#263238" stroke-linecap="round" stroke-linejoin="round"/>
<path d="M128.472 409.921H97.3416V451.252H128.472V409.921Z" fill="white"/>
<mask id="mask16_257_401" style="mask-type:luminance" maskUnits="userSpaceOnUse" x="97" y="409" width="32" height="43">
<path d="M128.472 409.921H97.3416V451.252H128.472V409.921Z" fill="white"/>
</mask>
<g mask="url(#mask16_257_401)">
<path d="M110.091 409.921H97.3416V451.252H110.091V409.921Z" fill="#92E3A9"/>
<path opacity="0.5" d="M110.091 409.921H97.3416V451.252H110.091V409.921Z" fill="white"/>
</g>
<path d="M128.472 409.921H97.3416V451.252H128.472V409.921Z" stroke="#263238" stroke-linecap="round" stroke-linejoin="round"/>
<path d="M299.537 450.682H166.552L162.216 377.55C162.096 376.841 162.132 376.114 162.32 375.42C162.508 374.726 162.844 374.081 163.306 373.529C163.767 372.978 164.342 372.533 164.992 372.226C165.642 371.918 166.351 371.756 167.07 371.749H298.968C299.691 371.748 300.406 371.905 301.062 372.21C301.718 372.514 302.3 372.957 302.767 373.51C303.235 374.062 303.576 374.71 303.767 375.408C303.958 376.105 303.994 376.836 303.874 377.55L299.537 450.682Z" fill="#263238" stroke="#263238" stroke-linecap="round" stroke-linejoin="round"/>
<path d="M173.102 373.497H298.01C298.716 373.49 299.414 373.637 300.057 373.928C300.7 374.219 301.271 374.647 301.731 375.183C302.191 375.718 302.529 376.348 302.72 377.027C302.911 377.707 302.951 378.42 302.838 379.116" stroke="white" stroke-linecap="round" stroke-linejoin="round"/>
<path d="M163.187 377.964C163.291 376.74 163.853 375.601 164.759 374.773C165.666 373.945 166.852 373.489 168.08 373.497" stroke="white" stroke-linecap="round" stroke-linejoin="round"/>
<path d="M300.094 443.561H165.996V450.682H300.094V443.561Z" fill="white" stroke="#263238" stroke-linecap="round" stroke-linejoin="round"/>
<path d="M232.566 417.198C237.813 417.198 242.067 414.647 242.067 411.501C242.067 408.354 237.813 405.803 232.566 405.803C227.319 405.803 223.065 408.354 223.065 411.501C223.065 414.647 227.319 417.198 232.566 417.198Z" fill="white" stroke="#263238" stroke-linecap="round" stroke-linejoin="round"/>
<path d="M502.355 449.841H2.90308V461.973H502.355V449.841Z" fill="#263238"/>
<path d="M372.851 0H132.575C124.475 0 117.909 6.56823 117.909 14.6705V152.584C117.909 160.686 124.475 167.255 132.575 167.255H372.851C380.951 167.255 387.517 160.686 387.517 152.584V14.6705C387.517 6.56823 380.951 0 372.851 0Z" fill="#92E3A9"/>
<path d="M259.053 96.1162C280.849 92.6122 295.678 72.0967 292.175 50.2935C288.672 28.4904 268.164 13.656 246.369 17.16C224.573 20.664 209.744 41.1795 213.247 62.9827C216.749 84.7858 237.258 99.6202 259.053 96.1162Z" fill="#263238"/>
<path d="M252.409 64.0298L239.09 81.1347C238.637 81.8467 238.014 82.4349 237.277 82.8463C236.541 83.2577 235.713 83.4793 234.87 83.4913C233.713 83.5071 232.596 83.065 231.763 82.2612C231.34 81.8727 231.005 81.3975 230.782 80.868C230.558 80.3384 230.452 79.7669 230.469 79.1924C230.511 77.9058 230.965 76.6667 231.763 75.6575L246.947 56.8694L232.708 38.0683C232.047 37.186 231.684 36.1154 231.673 35.0125C231.669 34.3547 231.802 33.7033 232.063 33.0994C232.324 32.4955 232.706 31.9521 233.187 31.5034C233.639 31.0318 234.181 30.6566 234.782 30.4006C235.383 30.1447 236.029 30.0133 236.682 30.0144C237.518 30.0279 238.338 30.2507 239.066 30.6623C239.794 31.074 240.407 31.6614 240.85 32.371L253.716 49.3204L266.66 32.6559C267.123 31.8784 267.77 31.2271 268.544 30.7596C269.319 30.292 270.197 30.0227 271.1 29.9755C271.66 29.9741 272.215 30.0884 272.73 30.3112C273.244 30.534 273.707 30.8605 274.09 31.2704C274.498 31.6546 274.823 32.118 275.045 32.6323C275.268 33.1467 275.383 33.701 275.384 34.2615C275.37 35.2644 275.024 36.2344 274.401 37.0195L259.166 56.5198L273.883 75.9424C274.578 76.8105 274.966 77.8856 274.983 78.9982C274.987 79.6415 274.852 80.2781 274.586 80.8638C274.32 81.4496 273.93 81.9706 273.443 82.3907C272.493 83.3043 271.227 83.8147 269.909 83.815C269.069 83.8046 268.244 83.5834 267.512 83.1716C266.779 82.7599 266.161 82.1709 265.715 81.4584L252.409 64.0298Z" fill="white"/>
<path d="M328.868 138.289H176.506C173.416 138.289 170.453 137.061 168.269 134.876C166.084 132.69 164.857 129.726 164.857 126.635C164.857 123.545 166.084 120.581 168.269 118.395C170.453 116.21 173.416 114.982 176.506 114.982H328.868C331.958 114.982 334.921 116.21 337.106 118.395C339.29 120.581 340.518 123.545 340.518 126.635C340.518 129.726 339.29 132.69 337.106 134.876C334.921 137.061 331.958 138.289 328.868 138.289Z" fill="white"/>
<path d="M197.384 130.39C197.283 130.39 197.182 130.37 197.089 130.33C196.995 130.29 196.911 130.231 196.841 130.157C196.764 130.081 196.704 129.99 196.664 129.89C196.624 129.79 196.605 129.683 196.608 129.575C196.608 129.392 196.657 129.213 196.75 129.057L197.915 127.244H195.533C195.423 127.25 195.313 127.232 195.211 127.192C195.108 127.151 195.015 127.09 194.938 127.011C194.805 126.856 194.732 126.658 194.732 126.454C194.732 126.25 194.805 126.052 194.938 125.897C195.015 125.818 195.108 125.757 195.211 125.717C195.313 125.676 195.423 125.659 195.533 125.664L197.876 125.729L196.841 124.046C196.737 123.873 196.679 123.677 196.672 123.476C196.669 123.368 196.689 123.261 196.729 123.161C196.769 123.06 196.829 122.969 196.905 122.893C196.978 122.819 197.065 122.761 197.16 122.72C197.256 122.68 197.358 122.66 197.462 122.66C197.607 122.658 197.749 122.699 197.871 122.777C197.993 122.855 198.09 122.968 198.148 123.1L199.287 125.133L200.374 123.191C200.443 123.04 200.552 122.911 200.688 122.817C200.825 122.723 200.985 122.669 201.151 122.66C201.253 122.66 201.353 122.681 201.447 122.721C201.54 122.761 201.625 122.82 201.695 122.893C201.771 122.964 201.831 123.051 201.871 123.147C201.911 123.243 201.93 123.346 201.928 123.45C201.926 123.634 201.872 123.814 201.772 123.968L200.633 125.794L203.002 125.729C203.112 125.723 203.223 125.74 203.325 125.78C203.428 125.82 203.521 125.882 203.597 125.962C203.731 126.117 203.804 126.315 203.804 126.519C203.804 126.723 203.731 126.921 203.597 127.076C203.521 127.155 203.428 127.217 203.325 127.258C203.223 127.298 203.112 127.315 203.002 127.309H200.607L201.669 128.966C201.789 129.166 201.855 129.393 201.863 129.626C201.867 129.731 201.849 129.836 201.811 129.934C201.773 130.032 201.716 130.121 201.643 130.196C201.575 130.269 201.493 130.327 201.401 130.367C201.31 130.407 201.212 130.428 201.112 130.429C200.952 130.425 200.796 130.376 200.663 130.286C200.53 130.197 200.426 130.071 200.361 129.924L199.287 128.021L198.213 129.924C198.135 130.074 198.015 130.198 197.868 130.281C197.721 130.364 197.553 130.402 197.384 130.39Z" fill="black"/>
<path d="M209.267 130.39C209.165 130.39 209.065 130.37 208.971 130.33C208.878 130.29 208.793 130.231 208.723 130.157C208.647 130.081 208.587 129.99 208.546 129.89C208.506 129.79 208.487 129.683 208.49 129.575C208.49 129.392 208.539 129.213 208.633 129.057L209.798 127.244H207.416C207.306 127.25 207.196 127.232 207.093 127.192C206.991 127.151 206.898 127.09 206.821 127.011C206.688 126.856 206.614 126.658 206.614 126.454C206.614 126.25 206.688 126.052 206.821 125.897C206.898 125.818 206.991 125.757 207.093 125.717C207.196 125.676 207.306 125.659 207.416 125.664L209.759 125.729L208.659 123.981C208.555 123.809 208.497 123.612 208.49 123.411C208.487 123.303 208.506 123.196 208.546 123.096C208.587 122.996 208.647 122.905 208.723 122.829C208.796 122.755 208.882 122.696 208.978 122.656C209.074 122.616 209.176 122.595 209.28 122.595C209.425 122.593 209.567 122.634 209.689 122.712C209.811 122.791 209.907 122.903 209.966 123.036L211.105 125.069L212.192 123.126C212.261 122.975 212.369 122.846 212.506 122.752C212.643 122.659 212.803 122.604 212.969 122.595C213.071 122.595 213.171 122.616 213.265 122.656C213.358 122.696 213.442 122.755 213.513 122.829C213.588 122.9 213.648 122.986 213.689 123.082C213.729 123.178 213.748 123.281 213.746 123.385C213.744 123.569 213.69 123.749 213.59 123.903L212.451 125.729L214.82 125.664C214.93 125.658 215.04 125.675 215.143 125.715C215.246 125.756 215.339 125.818 215.415 125.897C215.548 126.052 215.621 126.25 215.621 126.454C215.621 126.658 215.548 126.856 215.415 127.011C215.339 127.09 215.246 127.153 215.143 127.193C215.04 127.233 214.93 127.25 214.82 127.244H212.425L213.487 128.901C213.606 129.101 213.673 129.329 213.681 129.562C213.685 129.667 213.667 129.771 213.629 129.869C213.591 129.967 213.534 130.056 213.461 130.131C213.393 130.204 213.31 130.262 213.219 130.302C213.128 130.342 213.03 130.364 212.93 130.365C212.769 130.362 212.613 130.313 212.48 130.224C212.346 130.134 212.242 130.007 212.179 129.86L211.105 127.956L210.031 129.86C209.967 130.011 209.861 130.142 209.726 130.236C209.591 130.33 209.432 130.384 209.267 130.39Z" fill="black"/>
<path d="M221.149 130.39C221.048 130.39 220.947 130.37 220.854 130.33C220.76 130.29 220.676 130.231 220.606 130.157C220.529 130.081 220.469 129.99 220.429 129.89C220.389 129.79 220.37 129.683 220.373 129.575C220.373 129.392 220.422 129.213 220.515 129.057L221.68 127.244H219.298C219.188 127.25 219.078 127.232 218.976 127.192C218.873 127.151 218.78 127.09 218.703 127.011C218.57 126.856 218.497 126.658 218.497 126.454C218.497 126.25 218.57 126.052 218.703 125.897C218.78 125.818 218.873 125.757 218.976 125.717C219.078 125.676 219.188 125.659 219.298 125.664L221.641 125.729L220.541 123.981C220.437 123.809 220.379 123.612 220.373 123.411C220.37 123.303 220.389 123.196 220.429 123.096C220.469 122.996 220.529 122.905 220.606 122.829C220.678 122.755 220.765 122.696 220.861 122.656C220.956 122.616 221.059 122.595 221.162 122.595C221.307 122.593 221.45 122.634 221.572 122.712C221.694 122.791 221.79 122.903 221.848 123.036L222.987 125.069L224.075 123.126C224.143 122.975 224.252 122.846 224.389 122.752C224.526 122.659 224.686 122.604 224.851 122.595C224.953 122.595 225.054 122.616 225.147 122.656C225.241 122.696 225.325 122.755 225.395 122.829C225.471 122.9 225.531 122.986 225.571 123.082C225.611 123.178 225.631 123.281 225.628 123.385C225.626 123.569 225.572 123.749 225.473 123.903L224.334 125.729L226.702 125.664C226.813 125.658 226.923 125.675 227.026 125.715C227.128 125.756 227.221 125.818 227.298 125.897C227.431 126.052 227.504 126.25 227.504 126.454C227.504 126.658 227.431 126.856 227.298 127.011C227.221 127.09 227.128 127.153 227.026 127.193C226.923 127.233 226.813 127.25 226.702 127.244H224.308L225.369 128.901C225.489 129.101 225.556 129.329 225.563 129.562C225.567 129.667 225.549 129.771 225.512 129.869C225.474 129.967 225.416 130.056 225.343 130.131C225.275 130.204 225.193 130.262 225.102 130.302C225.011 130.342 224.912 130.364 224.813 130.365C224.652 130.362 224.495 130.313 224.362 130.224C224.229 130.134 224.125 130.007 224.062 129.86L222.987 127.956L221.913 129.86C221.849 130.011 221.744 130.142 221.608 130.236C221.473 130.33 221.314 130.384 221.149 130.39Z" fill="black"/>
<path d="M233.084 130.39C232.982 130.39 232.881 130.37 232.788 130.33C232.694 130.29 232.61 130.231 232.54 130.157C232.463 130.081 232.403 129.99 232.363 129.89C232.323 129.79 232.304 129.683 232.307 129.575C232.307 129.392 232.356 129.213 232.449 129.057L233.614 127.244H231.233C231.123 127.25 231.013 127.232 230.91 127.192C230.807 127.151 230.714 127.09 230.637 127.011C230.504 126.856 230.431 126.658 230.431 126.454C230.431 126.25 230.504 126.052 230.637 125.897C230.714 125.818 230.807 125.757 230.91 125.717C231.013 125.676 231.123 125.659 231.233 125.664L233.575 125.729L232.475 123.981C232.371 123.809 232.314 123.612 232.307 123.411C232.304 123.303 232.323 123.196 232.363 123.096C232.403 122.996 232.463 122.905 232.54 122.829C232.613 122.755 232.699 122.696 232.795 122.656C232.89 122.616 232.993 122.595 233.097 122.595C233.241 122.593 233.384 122.634 233.506 122.712C233.628 122.791 233.724 122.903 233.783 123.036L234.922 125.069L236.009 123.126C236.077 122.975 236.186 122.846 236.323 122.752C236.46 122.659 236.62 122.604 236.786 122.595C236.887 122.595 236.988 122.616 237.081 122.656C237.175 122.696 237.259 122.755 237.329 122.829C237.405 122.9 237.465 122.986 237.505 123.082C237.545 123.178 237.565 123.281 237.562 123.385C237.56 123.569 237.507 123.749 237.407 123.903L236.268 125.729L238.637 125.664C238.747 125.658 238.857 125.675 238.96 125.715C239.063 125.756 239.155 125.818 239.232 125.897C239.365 126.052 239.438 126.25 239.438 126.454C239.438 126.658 239.365 126.856 239.232 127.011C239.155 127.09 239.063 127.153 238.96 127.193C238.857 127.233 238.747 127.25 238.637 127.244H236.242L237.303 128.901C237.423 129.101 237.49 129.329 237.497 129.562C237.501 129.667 237.484 129.771 237.446 129.869C237.408 129.967 237.351 130.056 237.277 130.131C237.209 130.204 237.127 130.262 237.036 130.302C236.945 130.342 236.846 130.364 236.747 130.365C236.587 130.361 236.431 130.311 236.298 130.222C236.165 130.132 236.06 130.006 235.996 129.86L234.922 127.956L233.847 129.86C233.784 130.011 233.678 130.142 233.543 130.236C233.407 130.33 233.248 130.384 233.084 130.39Z" fill="black"/>
<path d="M244.914 130.39C244.813 130.39 244.712 130.37 244.619 130.33C244.525 130.29 244.441 130.231 244.371 130.157C244.294 130.081 244.234 129.99 244.194 129.89C244.154 129.79 244.135 129.683 244.138 129.575C244.144 129.393 244.193 129.216 244.28 129.057L245.445 127.244H243.063C242.953 127.25 242.843 127.232 242.741 127.192C242.638 127.151 242.545 127.09 242.468 127.011C242.335 126.856 242.262 126.658 242.262 126.454C242.262 126.25 242.335 126.052 242.468 125.897C242.545 125.818 242.638 125.757 242.741 125.717C242.843 125.676 242.953 125.659 243.063 125.664L245.406 125.729L244.306 123.981C244.202 123.809 244.144 123.612 244.138 123.411C244.135 123.303 244.154 123.196 244.194 123.096C244.234 122.996 244.294 122.905 244.371 122.829C244.443 122.755 244.53 122.696 244.625 122.656C244.721 122.616 244.824 122.595 244.927 122.595C245.072 122.593 245.215 122.634 245.337 122.712C245.459 122.791 245.555 122.903 245.613 123.036L246.752 125.069L247.84 123.126C247.908 122.975 248.017 122.846 248.154 122.752C248.291 122.659 248.451 122.604 248.616 122.595C248.718 122.594 248.819 122.614 248.913 122.654C249.007 122.694 249.091 122.754 249.16 122.829C249.236 122.9 249.296 122.986 249.336 123.082C249.376 123.178 249.396 123.281 249.393 123.385C249.391 123.569 249.337 123.749 249.238 123.903L248.099 125.729L250.467 125.664C250.577 125.658 250.688 125.675 250.791 125.715C250.893 125.756 250.986 125.818 251.063 125.897C251.196 126.052 251.269 126.25 251.269 126.454C251.269 126.658 251.196 126.856 251.063 127.011C250.986 127.09 250.893 127.153 250.791 127.193C250.688 127.233 250.577 127.25 250.467 127.244H248.073L249.134 128.901C249.254 129.101 249.321 129.329 249.328 129.562C249.332 129.667 249.314 129.771 249.277 129.869C249.239 129.967 249.181 130.056 249.108 130.131C249.04 130.204 248.958 130.262 248.867 130.302C248.775 130.342 248.677 130.364 248.577 130.365C248.417 130.361 248.261 130.311 248.128 130.222C247.995 130.132 247.891 130.007 247.827 129.86L246.752 127.956L245.678 129.86C245.614 130.011 245.509 130.142 245.373 130.236C245.238 130.33 245.079 130.384 244.914 130.39Z" fill="black"/>
<path d="M256.797 130.39C256.695 130.39 256.595 130.37 256.501 130.33C256.408 130.29 256.323 130.231 256.253 130.157C256.177 130.081 256.116 129.99 256.076 129.89C256.036 129.79 256.017 129.683 256.02 129.575C256.026 129.393 256.075 129.216 256.163 129.057L257.327 127.244H254.959C254.847 127.251 254.734 127.233 254.629 127.193C254.525 127.153 254.429 127.091 254.35 127.011C254.217 126.856 254.144 126.658 254.144 126.454C254.144 126.25 254.217 126.052 254.35 125.897C254.429 125.817 254.525 125.755 254.629 125.715C254.734 125.675 254.847 125.658 254.959 125.664L257.289 125.729L256.188 123.981C256.085 123.809 256.027 123.612 256.02 123.411C256.017 123.303 256.036 123.196 256.076 123.096C256.116 122.996 256.177 122.905 256.253 122.829C256.326 122.755 256.412 122.696 256.508 122.656C256.603 122.616 256.706 122.595 256.81 122.595C256.955 122.593 257.097 122.634 257.219 122.712C257.341 122.791 257.437 122.903 257.496 123.036L258.635 125.069L259.722 123.126C259.791 122.975 259.899 122.846 260.036 122.752C260.173 122.659 260.333 122.604 260.499 122.595C260.601 122.594 260.702 122.614 260.795 122.654C260.889 122.694 260.973 122.754 261.042 122.829C261.118 122.9 261.178 122.986 261.218 123.082C261.259 123.178 261.278 123.281 261.275 123.385C261.274 123.569 261.22 123.749 261.12 123.903L259.981 125.729L262.35 125.664C262.46 125.658 262.57 125.675 262.673 125.715C262.776 125.756 262.869 125.818 262.945 125.897C263.078 126.052 263.151 126.25 263.151 126.454C263.151 126.658 263.078 126.856 262.945 127.011C262.869 127.09 262.776 127.153 262.673 127.193C262.57 127.233 262.46 127.25 262.35 127.244H259.955L261.016 128.901C261.136 129.101 261.203 129.329 261.211 129.562C261.214 129.667 261.197 129.771 261.159 129.869C261.121 129.967 261.064 130.056 260.991 130.131C260.922 130.204 260.84 130.262 260.749 130.302C260.658 130.342 260.56 130.364 260.46 130.365C260.3 130.361 260.144 130.311 260.011 130.222C259.878 130.132 259.773 130.007 259.709 129.86L258.635 127.956L257.56 129.86C257.497 130.011 257.391 130.142 257.256 130.236C257.121 130.33 256.961 130.384 256.797 130.39Z" fill="black"/>
<path d="M268.679 130.39C268.578 130.39 268.477 130.37 268.384 130.33C268.29 130.29 268.206 130.231 268.136 130.157C268.059 130.081 267.999 129.99 267.959 129.89C267.919 129.79 267.9 129.683 267.903 129.575C267.903 129.392 267.952 129.213 268.045 129.057L269.21 127.244H266.828C266.718 127.25 266.608 127.232 266.506 127.192C266.403 127.151 266.31 127.09 266.233 127.011C266.1 126.856 266.027 126.658 266.027 126.454C266.027 126.25 266.1 126.052 266.233 125.897C266.31 125.818 266.403 125.757 266.506 125.717C266.608 125.676 266.718 125.659 266.828 125.664L269.171 125.729L268.032 124.046C267.928 123.873 267.87 123.677 267.864 123.476C267.861 123.368 267.88 123.261 267.92 123.161C267.96 123.06 268.02 122.969 268.097 122.893C268.169 122.819 268.256 122.761 268.352 122.721C268.447 122.68 268.55 122.66 268.653 122.66C268.798 122.658 268.941 122.699 269.063 122.777C269.185 122.855 269.281 122.968 269.339 123.101L270.479 125.133L271.566 123.191C271.634 123.04 271.743 122.911 271.88 122.817C272.017 122.723 272.177 122.669 272.342 122.66C272.444 122.659 272.545 122.679 272.639 122.719C272.733 122.759 272.817 122.818 272.886 122.893C272.962 122.964 273.022 123.051 273.062 123.147C273.102 123.243 273.122 123.346 273.119 123.45C273.117 123.634 273.063 123.814 272.964 123.968L271.825 125.794L274.193 125.729C274.304 125.723 274.414 125.74 274.517 125.78C274.619 125.82 274.712 125.883 274.789 125.962C274.922 126.117 274.995 126.315 274.995 126.519C274.995 126.723 274.922 126.921 274.789 127.076C274.712 127.155 274.619 127.217 274.517 127.258C274.414 127.298 274.304 127.315 274.193 127.309H271.799L272.86 128.966C272.98 129.166 273.047 129.393 273.054 129.626C273.058 129.731 273.04 129.836 273.003 129.934C272.965 130.032 272.908 130.121 272.834 130.196C272.766 130.269 272.684 130.327 272.593 130.367C272.502 130.407 272.403 130.428 272.304 130.429C272.143 130.425 271.988 130.376 271.855 130.286C271.722 130.197 271.617 130.071 271.553 129.924L270.479 128.021L269.404 129.924C269.334 130.058 269.231 130.172 269.104 130.254C268.977 130.336 268.83 130.383 268.679 130.39Z" fill="black"/>
<path d="M280.562 130.39C280.46 130.39 280.359 130.37 280.266 130.33C280.173 130.29 280.088 130.231 280.018 130.157C279.942 130.081 279.881 129.99 279.841 129.89C279.801 129.79 279.782 129.683 279.785 129.575C279.791 129.393 279.84 129.216 279.927 129.057L281.092 127.244H278.724C278.613 127.252 278.503 127.236 278.399 127.195C278.296 127.155 278.204 127.092 278.128 127.011C277.987 126.86 277.909 126.661 277.909 126.454C277.909 126.247 277.987 126.048 278.128 125.897C278.204 125.816 278.296 125.753 278.399 125.713C278.503 125.673 278.613 125.656 278.724 125.664L281.054 125.729L279.953 123.981C279.85 123.809 279.792 123.612 279.785 123.411C279.782 123.305 279.8 123.2 279.838 123.101C279.876 123.002 279.933 122.912 280.007 122.836C280.081 122.76 280.169 122.699 280.266 122.658C280.364 122.617 280.469 122.595 280.575 122.596C280.72 122.593 280.862 122.634 280.984 122.712C281.106 122.791 281.202 122.903 281.261 123.036L282.4 125.069L283.487 123.126C283.556 122.975 283.664 122.846 283.801 122.752C283.938 122.659 284.098 122.604 284.264 122.596C284.366 122.592 284.467 122.611 284.561 122.652C284.655 122.692 284.739 122.752 284.807 122.829C284.883 122.9 284.943 122.986 284.983 123.082C285.023 123.178 285.043 123.281 285.04 123.385C285.039 123.569 284.985 123.749 284.885 123.903L283.746 125.729L286.115 125.664C286.225 125.658 286.335 125.675 286.438 125.715C286.541 125.756 286.634 125.818 286.71 125.897C286.843 126.052 286.916 126.25 286.916 126.454C286.916 126.658 286.843 126.856 286.71 127.011C286.634 127.091 286.541 127.153 286.438 127.193C286.335 127.233 286.225 127.251 286.115 127.244H283.72L284.781 128.901C284.901 129.101 284.968 129.329 284.976 129.562C284.979 129.664 284.962 129.766 284.926 129.861C284.891 129.957 284.836 130.044 284.767 130.119C284.697 130.193 284.613 130.253 284.52 130.296C284.427 130.338 284.327 130.361 284.225 130.365C284.065 130.361 283.909 130.311 283.776 130.222C283.643 130.132 283.538 130.007 283.474 129.86L282.4 127.956L281.325 129.86C281.262 130.011 281.156 130.142 281.021 130.236C280.886 130.33 280.726 130.384 280.562 130.39Z" fill="black"/>
<path d="M292.444 130.39C292.343 130.39 292.242 130.37 292.148 130.33C292.055 130.29 291.971 130.231 291.901 130.157C291.824 130.081 291.764 129.99 291.724 129.89C291.684 129.79 291.665 129.683 291.668 129.575C291.674 129.393 291.722 129.216 291.81 129.057L292.975 127.244H290.593C290.485 127.25 290.377 127.233 290.276 127.192C290.175 127.152 290.085 127.09 290.011 127.011C289.87 126.86 289.791 126.661 289.791 126.454C289.791 126.247 289.87 126.048 290.011 125.897C290.085 125.818 290.175 125.756 290.276 125.716C290.377 125.676 290.485 125.658 290.593 125.664L292.936 125.729L291.836 123.981C291.732 123.809 291.674 123.612 291.668 123.411C291.664 123.305 291.682 123.2 291.72 123.101C291.758 123.002 291.816 122.912 291.889 122.836C291.963 122.76 292.051 122.699 292.149 122.658C292.246 122.617 292.351 122.595 292.457 122.596C292.602 122.593 292.744 122.634 292.866 122.712C292.988 122.791 293.085 122.903 293.143 123.036L294.282 125.069L295.37 123.126C295.438 122.975 295.547 122.846 295.684 122.752C295.821 122.659 295.981 122.604 296.146 122.596C296.248 122.592 296.35 122.611 296.444 122.652C296.538 122.692 296.622 122.752 296.69 122.829C296.766 122.9 296.826 122.986 296.866 123.082C296.906 123.178 296.925 123.281 296.923 123.385C296.921 123.569 296.867 123.749 296.767 123.903L295.628 125.729L297.997 125.664C298.107 125.658 298.218 125.675 298.32 125.715C298.423 125.756 298.516 125.818 298.593 125.897C298.726 126.052 298.799 126.25 298.799 126.454C298.799 126.658 298.726 126.856 298.593 127.011C298.516 127.091 298.423 127.153 298.32 127.193C298.218 127.233 298.107 127.251 297.997 127.244H295.602L296.664 128.901C296.784 129.101 296.85 129.329 296.858 129.562C296.862 129.664 296.845 129.766 296.809 129.861C296.773 129.957 296.719 130.044 296.649 130.119C296.579 130.193 296.496 130.253 296.403 130.296C296.31 130.338 296.209 130.361 296.107 130.365C295.947 130.361 295.791 130.311 295.658 130.222C295.525 130.132 295.421 130.007 295.357 129.86L294.282 127.956L293.208 129.86C293.144 130.011 293.038 130.142 292.903 130.236C292.768 130.33 292.609 130.384 292.444 130.39Z" fill="black"/>
<path d="M304.275 130.39C304.173 130.39 304.073 130.37 303.979 130.33C303.886 130.29 303.801 130.231 303.731 130.157C303.655 130.081 303.595 129.99 303.554 129.89C303.514 129.79 303.495 129.683 303.498 129.575C303.504 129.393 303.553 129.216 303.641 129.057L304.806 127.244H302.424C302.316 127.25 302.207 127.233 302.107 127.192C302.006 127.152 301.915 127.09 301.841 127.011C301.7 126.86 301.622 126.661 301.622 126.454C301.622 126.247 301.7 126.048 301.841 125.897C301.915 125.818 302.006 125.756 302.107 125.716C302.207 125.676 302.316 125.658 302.424 125.664L304.767 125.729L303.667 123.981C303.563 123.809 303.505 123.612 303.498 123.411C303.495 123.303 303.514 123.196 303.554 123.096C303.595 122.996 303.655 122.905 303.731 122.829C303.804 122.755 303.89 122.696 303.986 122.656C304.082 122.616 304.184 122.595 304.288 122.596C304.433 122.593 304.575 122.634 304.697 122.712C304.819 122.791 304.915 122.903 304.974 123.036L306.113 125.069L307.2 123.126C307.269 122.975 307.377 122.846 307.514 122.752C307.651 122.659 307.811 122.604 307.977 122.596C308.079 122.592 308.181 122.611 308.275 122.652C308.368 122.692 308.452 122.752 308.521 122.829C308.596 122.9 308.656 122.986 308.696 123.082C308.737 123.178 308.756 123.281 308.753 123.385C308.752 123.569 308.698 123.749 308.598 123.903L307.459 125.729L309.828 125.664C309.938 125.658 310.048 125.675 310.151 125.715C310.254 125.756 310.347 125.818 310.423 125.897C310.556 126.052 310.629 126.25 310.629 126.454C310.629 126.658 310.556 126.856 310.423 127.011C310.347 127.091 310.254 127.153 310.151 127.193C310.048 127.233 309.938 127.251 309.828 127.244H307.433L308.495 128.901C308.614 129.101 308.681 129.329 308.689 129.562C308.692 129.667 308.675 129.771 308.637 129.869C308.599 129.967 308.542 130.056 308.469 130.131C308.401 130.204 308.318 130.262 308.227 130.302C308.136 130.342 308.038 130.364 307.938 130.365C307.778 130.361 307.622 130.311 307.489 130.222C307.356 130.132 307.251 130.007 307.187 129.86L306.113 127.956L305.039 129.86C304.975 130.011 304.869 130.142 304.734 130.236C304.599 130.33 304.439 130.384 304.275 130.39Z" fill="black"/>
<path d="M344.996 159.032H360.827" stroke="white" stroke-width="3" stroke-linecap="round" stroke-linejoin="round"/>
<path d="M125.43 42.4319V147.612C125.43 150.658 126.639 153.579 128.792 155.733C130.945 157.887 133.866 159.097 136.911 159.097H329.968" stroke="white" stroke-width="3" stroke-linecap="round" stroke-linejoin="round"/>
<path d="M125.43 14.5411V30.3122" stroke="white" stroke-width="3" stroke-linecap="round" stroke-linejoin="round"/>
</g>
<defs>
<clipPath id="clip0_257_401">
<rect width="517" height="488" fill="white"/>
</clipPath>
</defs>
</svg>
