<svg width="65" height="65" viewBox="0 0 65 65" fill="none" xmlns="http://www.w3.org/2000/svg">
<path d="M55.6594 55.602H55.6528C55.6575 55.6867 55.6596 55.7716 55.6593 55.8564C55.6254 60.6385 47.5734 64.4581 37.6748 64.3879C27.7762 64.3177 19.7793 60.3841 19.8133 55.6021V51.117H22.458C25.6228 48.6478 31.314 47.0247 37.7978 47.0708C44.0929 47.1155 49.6181 48.7229 52.7984 51.117H55.6595V55.602H55.6594ZM49.9395 10.5349L49.9357 10.5879C49.9304 10.6243 49.9347 10.6729 49.9403 10.737L49.9497 10.8446C49.9544 10.8833 49.9553 10.9239 49.9532 10.972L49.9485 11.2952C49.9344 11.7793 49.8956 12.4452 49.8259 13.2412C49.7841 13.6241 49.7458 14.0598 49.6898 14.4975C49.6322 14.936 49.5681 15.3951 49.4896 15.8658C49.4092 16.3288 49.3237 16.8205 49.217 17.2966C49.1684 17.5432 49.1076 17.7789 49.0525 18.0268L48.9599 18.3877C48.93 18.5109 48.8984 18.6339 48.8638 18.7529L48.763 19.1178L48.6531 19.4756C48.5835 19.7229 48.4986 19.9526 48.4212 20.1961C48.2509 20.6601 48.0802 21.1448 47.8755 21.5899C47.78 21.8233 47.6723 22.0434 47.5657 22.2674C47.5142 22.3818 47.4552 22.4868 47.3982 22.5952L47.2281 22.9245C46.9899 23.3511 46.7328 23.7633 46.4805 24.1904L44.9388 26.7738C44.6876 27.2161 44.415 27.6354 44.1651 28.0773L43.3894 29.3661L42.6203 30.6345C42.4932 30.8439 42.3671 31.053 42.237 31.2558L41.8623 31.8731C41.7376 32.077 41.6044 32.2715 41.483 32.4734C41.3637 32.6739 41.2404 32.872 41.1132 33.0676L40.3811 34.2143C40.2638 34.4038 40.1345 34.5802 40.0171 34.7633C39.9034 34.9452 39.7862 35.125 39.6656 35.3025C39.4344 35.6438 39.2033 35.9851 38.9723 36.3265C38.7464 36.6567 38.5141 36.9691 38.3003 37.2763C38.0874 37.5847 37.8694 37.873 37.6593 38.1494C37.5512 38.2855 37.4557 38.425 37.3555 38.5572L37.0583 38.9412L36.4934 39.6394C36.144 40.0802 35.7945 40.4381 35.5287 40.7462C35.3883 40.8956 35.2651 41.0308 35.1532 41.1457L34.8596 41.4325L34.6679 41.6051L34.5993 41.6626L30.782 44.8578C23.7883 50.712 13.3733 49.7885 7.51927 42.7949C2.95137 37.3379 2.53052 29.7715 5.87954 23.9404L5.94772 23.8223L6.15338 23.4824L6.49768 22.9418L6.98061 22.2215C7.3475 21.685 7.827 21.0598 8.38776 20.3509C8.65994 19.9905 8.98025 19.631 9.31147 19.2482L9.82182 18.6609C10.0012 18.4647 10.182 18.2613 10.3743 18.0612C10.7596 17.6613 11.1522 17.2393 11.5782 16.8195L11.8978 16.5006C12.0064 16.395 12.1195 16.2912 12.2318 16.1856L12.9183 15.5467C13.1538 15.334 13.3892 15.116 13.6332 14.9017L14.3848 14.263C14.9 13.8237 15.4269 13.3983 15.9651 12.9873L16.7923 12.3562C17.0707 12.1457 17.3626 11.9464 17.6494 11.7402C18.2229 11.3277 18.817 10.9275 19.4211 10.5362L20.3343 9.95386C20.6403 9.7614 20.9559 9.57858 21.2683 9.39298C21.5825 9.20928 21.8915 9.02062 22.21 8.84302L23.1694 8.31832C23.8034 7.96526 24.464 7.64763 25.1067 7.32161C25.4311 7.16178 25.7603 7.01032 26.0871 6.85912C26.4141 6.70843 26.7373 6.55659 27.0647 6.41351C28.3775 5.84426 29.6761 5.32083 30.9605 4.87421L31.912 4.54375C32.2273 4.43698 32.5486 4.34469 32.8601 4.24757C33.4873 4.06938 34.1222 3.91964 34.7629 3.79879C36.0321 3.56316 37.2834 3.4484 38.4887 3.44459C39.6887 3.43418 40.8372 3.53422 41.8841 3.69646C42.826 3.8456 43.7574 4.0553 44.6724 4.32425C45.4711 4.5685 46.1218 4.81162 46.576 5.00294C46.6912 5.04978 46.7945 5.09625 46.8821 5.13408C46.9658 5.1728 47.0576 5.20162 47.1209 5.22993C47.1872 5.25646 47.2376 5.27652 47.2633 5.2943L47.3064 5.31892C49.1301 6.36134 50.0978 8.32492 49.9587 10.2889L49.9395 10.5349Z" fill="#CE7E61"/>
<path d="M34.3691 42.1165C28.698 50.2299 17.8416 52.4319 10.1208 47.0351C2.40006 41.6383 0.738499 30.6861 6.40975 22.5729C12.081 14.4597 22.9373 12.2576 30.6581 17.6543C38.3788 23.0511 40.0404 34.0032 34.3691 42.1165Z" fill="#F8A106"/>
<path d="M37.6751 60.0816C27.7765 60.0113 19.7796 56.0777 19.8136 51.2958C19.8476 46.5138 27.8995 42.6941 37.798 42.7643C47.6966 42.8345 55.6936 46.7681 55.6596 51.55C55.6255 56.332 47.5737 60.1518 37.6751 60.0816Z" fill="#FFB64D"/>
<path d="M23.3012 9.72475L23.3965 9.65747C23.4606 9.61709 23.5441 9.55083 23.6887 9.48341C23.8308 9.40915 23.9947 9.33996 24.1894 9.26645C24.2928 9.23024 24.397 9.19613 24.5018 9.16413C24.6179 9.13161 24.7347 9.10148 24.8521 9.07374C25.1147 9.01526 25.3805 8.97244 25.6481 8.94551C25.7893 8.93206 25.9359 8.91619 26.0838 8.91327C26.2324 8.90679 26.3847 8.89956 26.5381 8.90451C26.8467 8.90336 27.1622 8.92914 27.4829 8.9596C27.802 8.99794 28.1249 9.04834 28.4439 9.1183C29.0825 9.25502 29.7084 9.45929 30.2724 9.72627C30.4132 9.7914 30.5498 9.86605 30.6834 9.93537C30.8132 10.0084 30.9412 10.0847 31.0671 10.1644C31.3127 10.3249 31.5374 10.4924 31.735 10.6702C31.8341 10.7556 31.9244 10.8537 32.0101 10.9383C32.0936 11.0361 32.1707 11.1195 32.2394 11.2144C32.3065 11.3085 32.3681 11.3942 32.4183 11.4871C32.4433 11.5324 32.4672 11.5738 32.4885 11.6164C32.5091 11.6614 32.5277 11.7042 32.544 11.7451C32.5784 11.8232 32.6017 11.9035 32.6167 11.9733L32.6379 12.0674C32.6425 12.0976 32.6447 12.1268 32.6472 12.1516C32.656 12.2518 32.6542 12.3023 32.6542 12.3023C32.6523 12.3548 32.6361 12.4058 32.6072 12.4498C32.5783 12.4937 32.5379 12.5288 32.4904 12.5514C32.4429 12.5739 32.3902 12.5829 32.3379 12.5775C32.2856 12.572 32.2358 12.5523 32.194 12.5205L32.0999 12.449C32.0999 12.449 32.072 12.4278 32.0317 12.3933C32.0214 12.3847 32.0117 12.3754 31.9987 12.3654L31.9497 12.3336C31.9151 12.3121 31.8822 12.2868 31.8313 12.2611C31.8073 12.2483 31.7837 12.2347 31.7604 12.2207L31.674 12.179C31.6098 12.1464 31.5441 12.1167 31.4772 12.0901C31.4102 12.0573 31.3223 12.0293 31.243 11.9959C31.1546 11.965 31.0685 11.9313 30.9701 11.9001C30.8697 11.8651 30.7685 11.8324 30.6666 11.802C30.5638 11.7655 30.4487 11.7375 30.3364 11.7017C30.1066 11.6358 29.8644 11.5647 29.6079 11.4994C29.0722 11.3548 28.5345 11.2175 27.995 11.0875C27.7185 11.0183 27.44 10.957 27.1659 10.8939C26.8973 10.833 26.6282 10.775 26.3584 10.7198C26.0957 10.6634 25.8416 10.618 25.5995 10.5698C25.4783 10.5465 25.3612 10.5296 25.2463 10.5055C25.1323 10.4862 25.0221 10.4706 24.915 10.4494C24.8092 10.4339 24.7072 10.4199 24.6088 10.402C24.512 10.3896 24.4194 10.3782 24.331 10.3637L23.8812 10.3106C23.7783 10.2968 23.6746 10.2884 23.5708 10.2856L23.4544 10.2769C23.3739 10.2709 23.299 10.2332 23.2463 10.172C23.1935 10.1109 23.1672 10.0313 23.1732 9.95073C23.18 9.85742 23.2303 9.77553 23.3012 9.72475ZM40.3172 8.64717C40.2908 8.67717 40.2705 8.71208 40.2575 8.74992C40.2446 8.78775 40.2392 8.82776 40.2418 8.86767C40.2443 8.90758 40.2546 8.94659 40.2722 8.9825C40.2899 9.0184 40.3144 9.05048 40.3444 9.07691L40.4318 9.15422C40.4893 9.20107 40.5802 9.27623 40.664 9.36154L40.9904 9.67562C41.0521 9.74049 41.119 9.80562 41.1887 9.87392C41.2563 9.94755 41.3291 10.0203 41.4042 10.0966C41.4768 10.1782 41.5551 10.2572 41.6343 10.3415C41.7113 10.4301 41.7944 10.5143 41.8769 10.6061C42.0407 10.7908 42.2156 10.9804 42.3911 11.1841C42.5727 11.391 42.7521 11.5999 42.9294 11.8106C43.1097 12.0265 43.2946 12.2436 43.4731 12.4657C43.8244 12.8953 44.1699 13.3295 44.5096 13.7683C44.6745 13.9751 44.8247 14.1783 44.9679 14.3696C45.0358 14.4659 45.1106 14.5577 45.1705 14.649C45.2364 14.7398 45.2972 14.8259 45.3532 14.9105C45.4127 14.9948 45.4611 15.0737 45.5128 15.1517C45.5559 15.2261 45.609 15.3015 45.6425 15.3683C45.682 15.4356 45.7193 15.5011 45.7456 15.5581L45.7893 15.6436C45.7994 15.6691 45.8099 15.6942 45.8212 15.7186C45.8463 15.7698 45.8573 15.8097 45.8719 15.8478L45.8918 15.9027C45.8961 15.9184 45.8983 15.9317 45.9012 15.9448C45.9124 15.9966 45.9218 16.0304 45.9218 16.0304L45.9535 16.1441C45.9677 16.1948 45.9954 16.2405 46.0338 16.2765C46.0722 16.3124 46.1197 16.337 46.1711 16.3478C46.2226 16.3585 46.276 16.3549 46.3256 16.3374C46.3751 16.3198 46.4189 16.289 46.4521 16.2482C46.4521 16.2482 46.4841 16.209 46.5375 16.1238C46.5505 16.1026 46.5663 16.0781 46.5809 16.0512L46.6209 15.9634C46.6511 15.8986 46.6811 15.8205 46.7009 15.7375C46.7133 15.6924 46.7245 15.6471 46.7345 15.6014C46.7432 15.5547 46.7493 15.5073 46.7566 15.4561C46.7729 15.3517 46.7754 15.2462 46.7789 15.1307C46.7815 15.0135 46.7703 14.9004 46.763 14.7722C46.7457 14.6531 46.733 14.5202 46.7056 14.3923C46.6555 14.1313 46.5776 13.8619 46.479 13.5858C46.4268 13.4463 46.3709 13.3081 46.3115 13.1715C46.247 13.0356 46.1833 12.8936 46.1104 12.7566C45.8223 12.2031 45.4467 11.6623 45.0204 11.1676C44.8084 10.9191 44.5817 10.6839 44.3505 10.4606C44.1135 10.2425 43.8775 10.0315 43.6309 9.84586C43.5117 9.74938 43.3859 9.66305 43.2636 9.5785C43.1441 9.49154 43.0175 9.41562 42.897 9.34097C42.6675 9.20072 42.4298 9.07426 42.1852 8.96227C42.0749 8.91346 41.9636 8.8669 41.8514 8.82262C41.7486 8.78483 41.645 8.74915 41.5408 8.7156C41.3412 8.65657 41.1688 8.61264 41.0107 8.58611C40.8547 8.55247 40.7482 8.55488 40.6728 8.54828L40.5561 8.54434C40.5112 8.54293 40.4665 8.55141 40.4252 8.56918C40.3839 8.58695 40.347 8.61357 40.3172 8.64717Z" fill="#9D5F48"/>
</svg>
