<svg width="38" height="31" viewBox="0 0 38 31" fill="none" xmlns="http://www.w3.org/2000/svg">
<ellipse cx="19.2053" cy="15.5" rx="18.7893" ry="15.5" fill="#FF8B00"/>
<path d="M26.4335 4.81975C26.4335 4.60234 26.3386 4.39383 26.1698 4.2401C26.0011 4.08637 25.7721 4 25.5334 4C25.2947 4 25.0658 4.08637 24.897 4.2401C24.7282 4.39383 24.6334 4.60234 24.6334 4.81975V9.20704C22.2021 7.72494 18.7939 8.2452 17.0826 10.5361L8.25859 22.3471C7.59136 23.2411 7.71856 24.4347 8.5646 25.1976C8.98266 25.5721 9.531 25.8021 10.1152 25.848C10.6994 25.8938 11.2829 25.7528 11.7652 25.449L24.7138 17.2854C25.8743 16.5592 26.6733 15.4454 26.9374 14.1857C27.2014 12.9261 26.909 11.6224 26.1238 10.558H30.9325C31.1712 10.558 31.4001 10.4716 31.5689 10.3179C31.7377 10.1642 31.8325 9.95565 31.8325 9.73824C31.8325 9.52083 31.7377 9.31232 31.5689 9.15859C31.4001 9.00486 31.1712 8.91849 30.9325 8.91849H27.7043L31.5685 5.39904C31.7275 5.24364 31.814 5.03811 31.8099 4.82574C31.8058 4.61336 31.7114 4.41074 31.5465 4.26055C31.3815 4.11035 31.1591 4.02432 30.9259 4.02058C30.6927 4.01683 30.4671 4.09566 30.2964 4.24046L26.4335 7.75882V4.81975ZM18.5851 11.4466C19.8595 9.74042 22.5453 9.50543 24.1606 10.9602C24.5349 11.2962 24.8231 11.7035 25.0044 12.1528C25.1857 12.6022 25.2556 13.0825 25.2092 13.5593C25.1627 14.0362 25.001 14.4978 24.7357 14.9111C24.4704 15.3243 24.108 15.679 23.6745 15.9497L10.7283 24.1144C10.5951 24.1981 10.4341 24.2369 10.2729 24.2241C10.1117 24.2113 9.96041 24.1478 9.84507 24.0445C9.732 23.9431 9.66165 23.8087 9.64629 23.6649C9.63094 23.521 9.67156 23.3769 9.76106 23.2575L18.5851 11.4466Z" fill="#111111"/>
</svg>
