<svg width="38" height="31" viewBox="0 0 38 31" fill="none" xmlns="http://www.w3.org/2000/svg">
<ellipse cx="19.2053" cy="15.5" rx="18.7893" ry="15.5" fill="#FF8B00"/>
<path d="M20.9395 6.77814L20.3366 7.30748C18.7208 6.51346 16.7915 6.35466 15.0672 6.85224L14.9708 6.77814C13.8011 5.74062 11.8839 5.74062 10.7143 6.77814C9.54464 7.81565 9.53258 9.48838 10.7143 10.5153L10.7987 10.6C10.2319 12.1139 10.4128 13.8078 11.3172 15.2265L10.7143 15.7558C10.5451 15.9025 10.4108 16.0773 10.3191 16.2699C10.2275 16.4626 10.1803 16.6693 10.1803 16.878C10.1803 17.0868 10.2275 17.2935 10.3191 17.4861C10.4108 17.6788 10.5451 17.8535 10.7143 18.0002L12.4145 19.5036C13.1259 20.1176 14.2593 20.1176 14.9708 19.5036L15.3928 19.1225L23.9299 26.6074C24.6292 27.232 25.7747 27.232 26.4862 26.6074L33.299 20.6258C34.0104 20.0012 34.0104 18.9954 33.299 18.3708L24.7739 10.8859L25.208 10.5153C25.9074 9.89068 25.9074 8.89552 25.208 8.27089L23.4958 6.76755C23.155 6.47156 22.6944 6.30642 22.2151 6.30841C21.7358 6.3104 21.277 6.47934 20.9395 6.77814ZM12.4627 11.2776C12.5591 10.9176 12.728 10.5682 12.9571 10.2401L11.9924 9.3931C11.863 9.28577 11.7674 9.15081 11.7151 9.00138C11.5583 8.64143 11.6427 8.19678 11.9924 7.90035C12.3421 7.60391 12.8365 7.51922 13.2465 7.65685C13.4153 7.6992 13.56 7.78389 13.6926 7.90035L14.6572 8.7473C15.031 8.54615 15.429 8.39793 15.8389 8.31324C16.8759 8.04856 17.9853 8.11209 18.974 8.49321L12.6677 14.0302C12.2336 13.162 12.1612 12.188 12.4627 11.2776ZM32.0208 19.5036L25.208 25.4852L16.683 18.0002L23.4958 12.0186L32.0208 19.5036ZM23.9299 9.3931L13.6926 18.3814L11.9924 16.878L22.2176 7.90035L23.9299 9.3931ZM25.208 16.1264L21.3615 19.5036L20.0834 18.3814L23.9299 15.0042L25.208 16.1264ZM27.7643 18.3814L23.9299 21.748L22.6397 20.6258L26.4862 17.2486L27.7643 18.3814Z" fill="#111111"/>
</svg>
