<svg width="118" height="36" viewBox="0 0 118 36" fill="none" xmlns="http://www.w3.org/2000/svg">
<path d="M37.4959 18.115C37.4847 13.3663 39.099 8.75367 42.0762 5.02755C41.2954 3.53671 40.1075 2.29212 38.6475 1.43504C37.1874 0.577961 35.5136 0.142707 33.8161 0.178675C32.1185 0.214643 30.4651 0.720393 29.0435 1.63853C27.6219 2.55666 26.4891 3.85042 25.7736 5.37297L25.5019 6.0638L21.6203 16.7333L17.7387 6.0638L17.467 5.37297C16.729 3.67045 15.4724 2.23789 13.8722 1.27479C12.272 0.311696 10.4078 -0.133981 8.53935 -0.000165906C6.1717 0.194904 3.96889 1.27706 2.38152 3.02495C0.794146 4.77283 -0.0578254 7.05436 -0.000122931 9.40282V31.471C-0.058466 32.093 0.0150768 32.7202 0.215805 33.3125C0.416533 33.9048 0.74003 34.4491 1.16562 34.9108C1.59121 35.3724 2.10953 35.7412 2.68744 35.9935C3.26536 36.2458 3.89016 36.3761 4.52192 36.3761C5.15367 36.3761 5.77847 36.2458 6.35639 35.9935C6.93431 35.7412 7.45263 35.3724 7.87822 34.9108C8.3038 34.4491 8.6273 33.9048 8.82803 33.3125C9.02876 32.7202 9.1023 32.093 9.04396 31.471V8.71199L13.9736 22.0681C14.3537 23.7388 15.288 25.2358 16.6278 26.3211C17.9676 27.4063 19.6359 28.0174 21.3674 28.0571C23.0989 28.0968 24.7941 27.5629 26.1833 26.5402C27.5725 25.5176 28.576 24.065 29.0341 22.4135C29.0341 22.4135 29.3446 21.6843 29.3446 21.6075L34.0413 8.82713V31.471C34.0359 32.5821 34.4508 33.655 35.2046 34.479C35.9584 35.303 36.9966 35.8185 38.1152 35.9243C39.2338 36.0301 40.3519 35.7185 41.25 35.0508C42.1481 34.383 42.7613 33.4073 42.969 32.3154C39.4345 28.4121 37.4851 23.3541 37.4959 18.115Z" fill="#FFC727"/>
<path d="M21.5814 16.6567L18.0103 6.98501C17.6728 6.11559 17.0767 5.36775 16.3006 4.84017C15.5244 4.31258 14.6048 4.03003 13.6629 4.02979C13.0582 4.02976 12.4594 4.14816 11.9011 4.37815C11.3429 4.60814 10.8362 4.94517 10.4104 5.36978C9.98458 5.79439 9.64802 6.29818 9.42013 6.85207C9.19225 7.40597 9.07756 7.999 9.08268 8.59695L13.9735 22.0682C14.3536 23.7389 15.2879 25.2359 16.6277 26.3212C17.9675 27.4064 19.6358 28.0175 21.3673 28.0572C23.0988 28.0969 24.794 27.563 26.1832 26.5403C27.5724 25.5177 28.5759 24.0651 29.034 22.4136C28.7599 23.1417 28.3808 23.8268 27.9083 24.4477C27.7045 24.6767 27.4537 24.8601 27.1726 24.9859C26.8915 25.1116 26.5866 25.1767 26.2781 25.1769C25.8161 25.1706 25.3664 25.0286 24.9862 24.7689C24.606 24.5092 24.3126 24.1436 24.1432 23.7185C23.2893 21.8379 21.5814 16.6567 21.5814 16.6567Z" fill="#FFC727"/>
<g style="mix-blend-mode:multiply" opacity="0.6">
<path d="M34.0024 0C32.2616 0.0103192 30.5606 0.51501 29.1017 1.45399C27.6428 2.39297 26.4875 3.72669 25.7734 5.29638L25.5017 5.98721L21.6201 16.6567C21.6201 16.6567 23.2892 21.838 24.1431 23.6802C24.3125 24.1052 24.606 24.4709 24.9861 24.7306C25.3663 24.9903 25.816 25.1323 26.278 25.1386C26.5865 25.1384 26.8915 25.0733 27.1725 24.9475C27.4536 24.8218 27.7044 24.6384 27.9083 24.4094C28.3807 23.7885 28.7598 23.1034 29.0339 22.3753C29.0339 22.3753 29.3445 21.6461 29.3445 21.5693L33.8859 9.24947L34.9339 6.83156C35.2218 6.03329 35.7459 5.33916 36.4382 4.83947C37.1305 4.33979 37.9589 4.05768 38.8155 4.02985C39.9927 3.92241 41.1683 4.25062 42.1149 4.95096C41.3595 3.46344 40.2009 2.21276 38.7683 1.33851C37.3358 0.464263 35.6858 0.000850731 34.0024 0Z" fill="#FFC727"/>
</g>
<path d="M13.663 4.02975C14.6049 4.02999 15.5245 4.31254 16.3007 4.84013C17.0768 5.36772 17.6729 6.11555 18.0104 6.98497L17.7775 6.3709C17.7775 6.10224 17.7775 5.87197 17.5058 5.60331V5.29627C16.7081 3.32443 15.2294 1.69591 13.3324 0.699868C11.4354 -0.296168 9.24281 -0.595263 7.1439 -0.144307C5.04499 0.306648 3.17563 1.47847 1.86773 3.16309C0.559838 4.84771 -0.10195 6.93611 -0.000122933 9.05747V31.4711C-0.058466 32.0931 0.0150768 32.7203 0.215805 33.3125C0.416533 33.9048 0.74003 34.4492 1.16562 34.9108C1.59121 35.3725 2.10953 35.7412 2.68744 35.9936C3.26536 36.2459 3.89016 36.3762 4.52192 36.3762C5.15367 36.3762 5.77847 36.2459 6.35639 35.9936C6.93431 35.7412 7.45263 35.3725 7.87821 34.9108C8.3038 34.4492 8.6273 33.9048 8.82803 33.3125C9.02876 32.7203 9.1023 32.0931 9.04396 31.4711V8.44339C9.07446 7.25568 9.57578 6.12739 10.4398 5.30176C11.3039 4.47613 12.4615 4.0193 13.663 4.02975Z" fill="#FFC727"/>
<path d="M4.54132 35.9999C3.3333 35.9898 2.17824 35.5082 1.32765 34.66C0.477064 33.8117 -0.000166321 32.6656 -0.00012294 31.4711V9.05747C0.0074568 7.33568 0.507057 5.65107 1.44107 4.19789C2.37508 2.74471 3.70547 1.58215 5.27882 0.844249C6.41652 0.349496 7.64582 0.0940106 8.88869 0.0940106C10.1316 0.0940106 11.3609 0.349496 12.4986 0.844249C14.7716 1.77724 16.5835 3.555 17.5446 5.79521L17.9716 6.98497L21.5426 16.695L17.894 6.83146C17.4727 5.88472 16.7364 5.10907 15.8075 4.63349C14.8786 4.15791 13.813 4.01106 12.7879 4.21735C11.7629 4.42365 10.8401 4.97065 10.1731 5.76742C9.50612 6.56418 9.13504 7.56269 9.12159 8.59691V31.6246C9.0813 32.7989 8.58102 33.9118 7.72638 34.7282C6.87174 35.5446 5.72966 36.0006 4.54132 35.9999ZM9.12159 -0.000100725C7.78136 0.00199708 6.45738 0.29 5.24001 0.844249C3.65624 1.5648 2.31805 2.72442 1.38788 4.18236C0.457697 5.64029 -0.0244771 7.33384 -0.00012294 9.05747V31.4711C-0.0579922 32.0827 0.0138919 32.6995 0.21093 33.2821C0.407969 33.8646 0.725823 34.4001 1.14416 34.8543C1.56249 35.3084 2.07209 35.6712 2.64035 35.9194C3.20862 36.1677 3.82303 36.2959 4.44428 36.2959C5.06554 36.2959 5.67995 36.1677 6.24822 35.9194C6.81648 35.6712 7.32608 35.3084 7.74441 34.8543C8.16275 34.4001 8.4806 33.8646 8.67764 33.2821C8.87468 32.6995 8.94656 32.0827 8.88869 31.4711V8.4434C8.87195 7.41604 9.20314 6.41265 9.82958 5.59284C10.456 4.77304 11.3417 4.1839 12.3458 3.91916C13.3499 3.65441 14.4147 3.72926 15.3708 4.13179C16.3269 4.53433 17.1194 5.24144 17.6222 6.14062V5.60331C16.9372 3.93406 15.7602 2.50711 14.2442 1.50784C12.7283 0.508566 10.9434 -0.0168327 9.12159 -0.000100725Z" fill="#FFC727"/>
<path opacity="0.3" d="M13.663 4.02975C14.6049 4.03 15.5245 4.31255 16.3007 4.84014C17.0768 5.36772 17.6729 6.11556 18.0104 6.98498L17.6222 5.98711L17.3505 5.29628C16.49 3.42558 15.0066 1.90328 13.148 0.98346C11.2893 0.063641 9.16779 -0.198053 7.13754 0.242056C5.10729 0.682165 3.29111 1.79745 1.99212 3.40177C0.693138 5.00609 -0.0100654 7.00238 -0.000122933 9.05747V31.4711C-0.058466 32.0931 0.0150768 32.7203 0.215805 33.3126C0.416533 33.9048 0.74003 34.4492 1.16562 34.9108C1.59121 35.3725 2.10953 35.7413 2.68744 35.9936C3.26536 36.2459 3.89016 36.3762 4.52192 36.3762C5.15367 36.3762 5.77847 36.2459 6.35639 35.9936C6.93431 35.7413 7.45263 35.3725 7.87821 34.9108C8.3038 34.4492 8.6273 33.9048 8.82803 33.3126C9.02876 32.7203 9.1023 32.0931 9.04396 31.4711V8.4434C9.07446 7.25569 9.57578 6.12739 10.4398 5.30176C11.3039 4.47614 12.4615 4.0193 13.663 4.02975Z" fill="#FFC727"/>
<path d="M37.4959 18.1152C37.4846 13.3666 39.099 8.75391 42.0762 5.02779C41.1396 4.33079 39.9867 3.97797 38.8157 4.02992C37.959 4.05774 37.1306 4.33985 36.4384 4.83954C35.7461 5.33923 35.2219 6.03336 34.9341 6.83162L34.4295 7.67597L34.0801 8.63546V31.4713C34.0747 32.5823 34.4897 33.6552 35.2434 34.4792C35.9972 35.3032 37.0354 35.8188 38.154 35.9246C39.2726 36.0303 40.3907 35.7188 41.2888 35.051C42.1869 34.3832 42.8001 33.4076 43.0078 32.3156C39.4592 28.418 37.4958 23.3594 37.4959 18.1152Z" fill="#FFC727"/>
<g style="mix-blend-mode:multiply" opacity="0.3">
<path d="M37.4957 18.1151C37.4844 13.3665 39.0987 8.75379 42.076 5.02768C41.1257 4.35745 39.9824 4.00756 38.8154 4.02981C37.9588 4.05763 37.1304 4.33974 36.4381 4.83943C35.7458 5.33912 35.2217 6.03325 34.9338 6.83151C34.9338 6.83151 34.3516 8.44345 34.274 8.71211V31.4712C34.2686 32.5822 34.6835 33.6551 35.4373 34.4791C36.1911 35.3031 37.2292 35.8187 38.3478 35.9244C39.4664 36.0302 40.5846 35.7187 41.4827 35.0509C42.3808 34.3831 42.9939 33.4074 43.2016 32.3155C39.5825 28.4467 37.5486 23.3849 37.4957 18.1151Z" fill="#FFC727"/>
</g>
<path d="M26.2782 25.2535C25.8031 25.2385 25.3431 25.0847 24.9562 24.8114C24.5694 24.5382 24.273 24.1578 24.1046 23.7183L21.5039 16.6948L24.0657 23.7183C24.2326 24.1374 24.5201 24.499 24.8926 24.7582C25.2652 25.0174 25.7065 25.1629 26.1618 25.1767C26.4642 25.1735 26.7624 25.1069 27.0368 24.9812C27.3111 24.8555 27.5553 24.6735 27.7532 24.4475C28.2305 23.8297 28.61 23.1439 28.8789 22.4134C28.5967 23.1574 28.2043 23.8559 27.7144 24.4859C27.5083 24.7248 27.2525 24.917 26.9645 25.0494C26.6765 25.1819 26.363 25.2515 26.0454 25.2535H26.2782Z" fill="#FFC727"/>
<path opacity="0.5" d="M34.0024 0C32.2616 0.0103192 30.5606 0.51501 29.1017 1.45399C27.6428 2.39297 26.4875 3.72669 25.7734 5.29638L25.5017 5.98721L21.6201 16.6567C21.6201 16.6567 23.2892 21.838 24.1431 23.6802C24.3125 24.1052 24.606 24.4709 24.9861 24.7306C25.3663 24.9903 25.816 25.1323 26.278 25.1386C26.5865 25.1384 26.8915 25.0733 27.1725 24.9475C27.4536 24.8218 27.7044 24.6384 27.9083 24.4094C28.3807 23.7885 28.7598 23.1034 29.0339 22.3753C29.0339 22.3753 29.3445 21.6461 29.3445 21.5693L33.8859 9.24947L34.9339 6.83156C35.2218 6.03329 35.7459 5.33916 36.4382 4.83947C37.1305 4.33979 37.9589 4.05768 38.8155 4.02985C39.9927 3.92241 41.1683 4.25062 42.1149 4.95096C41.3595 3.46344 40.2009 2.21276 38.7683 1.33851C37.3358 0.464263 35.6858 0.000850731 34.0024 0Z" fill="#FFC727"/>
<path d="M29.0342 22.4519L34.7013 6.79302C34.9813 5.93254 35.5309 5.18243 36.2705 4.65118C37.0102 4.11992 37.9016 3.83506 38.8158 3.83779C39.9732 3.80102 41.1132 4.12309 42.0763 4.7589C41.0833 4.21275 39.9479 3.9722 38.8158 4.06807C37.9637 4.09294 37.1387 4.36941 36.4469 4.86189C35.7551 5.35437 35.2283 6.04031 34.9342 6.8314L29.1118 22.4135L29.0342 22.4519Z" fill="#FFC727"/>
<path d="M80.504 18.115C80.5153 13.3663 78.901 8.75367 75.9238 5.02755C76.7046 3.53671 77.8924 2.29212 79.3525 1.43504C80.8125 0.577961 82.4863 0.142707 84.1839 0.178675C85.8815 0.214643 87.5349 0.720393 88.9565 1.63853C90.3781 2.55666 91.5109 3.85042 92.2264 5.37297L92.4981 6.0638L96.3797 16.7333L100.261 6.0638L100.533 5.37297C101.271 3.67045 102.528 2.23789 104.128 1.27479C105.728 0.311696 107.592 -0.133981 109.461 -0.000165902C111.801 0.202913 113.977 1.27276 115.553 2.99507C117.13 4.71739 117.99 6.96499 117.961 9.28768V31.4711C117.961 32.6518 117.487 33.7842 116.642 34.6191C115.798 35.454 114.653 35.9231 113.459 35.9231C112.264 35.9231 111.119 35.454 110.275 34.6191C109.43 33.7842 108.956 32.6518 108.956 31.4711V8.71199L104.026 22.0681C103.646 23.7388 102.712 25.2358 101.372 26.3211C100.032 27.4063 98.3641 28.0174 96.6326 28.0571C94.9011 28.0968 93.2059 27.5629 91.8167 26.5402C90.4274 25.5176 89.424 24.065 88.9659 22.4135L88.6553 21.6075L83.9586 8.82713V31.4711C83.9207 32.561 83.4829 33.6001 82.7269 34.3942C81.9709 35.1884 80.9485 35.6834 79.8504 35.7868C78.7524 35.8902 77.6538 35.595 76.7598 34.9562C75.8658 34.3174 75.2375 33.3787 74.9922 32.3154C78.5568 28.4276 80.5228 23.3626 80.504 18.115Z" fill="#FFC727"/>
<path d="M96.4573 16.6565L99.9895 6.98483C100.359 5.9667 101.082 5.1112 102.029 4.57067C102.977 4.03014 104.087 3.83966 105.164 4.03315C106.24 4.22664 107.212 4.79153 107.906 5.62725C108.601 6.46297 108.973 7.51527 108.956 8.59677L104.026 22.068C103.646 23.7387 102.712 25.2358 101.372 26.321C100.032 27.4062 98.364 28.0173 96.6325 28.057C94.901 28.0967 93.2059 27.5628 91.8166 26.5401C90.4274 25.5175 89.4239 24.0649 88.9658 22.4134C89.2399 23.1415 89.6191 23.8267 90.0915 24.4475C90.2953 24.6765 90.5461 24.8599 90.8272 24.9857C91.1083 25.1114 91.4132 25.1765 91.7217 25.1767C92.1838 25.1705 92.6335 25.0284 93.0136 24.7687C93.3938 24.509 93.6872 24.1434 93.8566 23.7183C94.5553 21.8761 96.4573 16.6949 96.4573 16.6949" fill="#FFC727"/>
<g style="mix-blend-mode:multiply" opacity="0.6">
<path d="M83.997 0C85.7293 0.0035883 87.4243 0.496878 88.8824 1.4217C90.3404 2.34651 91.5005 3.66429 92.226 5.21962L92.4977 5.91045L96.3793 16.58C96.3793 16.58 94.4773 21.7612 93.7786 23.6034C93.62 24.0387 93.3304 24.4154 92.9487 24.683C92.567 24.9506 92.1116 25.0962 91.6437 25.1002C91.3352 25.1 91.0303 25.0349 90.7492 24.9092C90.4681 24.7834 90.2173 24.6 90.0135 24.371C89.5411 23.7502 89.1619 23.065 88.8878 22.3369L88.5773 21.5309L84.1135 9.24947L83.2595 6.83156C82.9717 6.03329 82.4475 5.33916 81.7553 4.83947C81.063 4.33979 80.2346 4.05768 79.378 4.02985C78.2008 3.92241 77.0251 4.25062 76.0786 4.95096C76.8189 3.49217 77.9473 2.26043 79.3424 1.38811C80.7376 0.515804 82.3467 0.035907 83.997 0Z" fill="#FFC727"/>
</g>
<path d="M104.337 4.02994C103.395 4.03018 102.475 4.31273 101.699 4.84032C100.923 5.36791 100.327 6.11574 99.9893 6.98516L100.222 6.37109C100.309 6.10888 100.413 5.85249 100.533 5.6035V5.29646C101.409 3.44219 102.899 1.93945 104.757 1.03712C106.615 0.134786 108.729 -0.113008 110.749 0.334771C112.769 0.782551 114.573 1.89904 115.864 3.49934C117.154 5.09964 117.853 7.08775 117.845 9.13442V31.4713C117.845 32.6521 117.37 33.7844 116.526 34.6194C115.681 35.4543 114.536 35.9233 113.342 35.9233C112.148 35.9233 111.002 35.4543 110.158 34.6194C109.314 33.7844 108.839 32.6521 108.839 31.4713V8.44358C108.8 7.27875 108.312 6.17283 107.475 5.35229C106.638 4.53175 105.515 4.05867 104.337 4.02994Z" fill="#FFC727"/>
<path d="M108.878 31.4712V8.44348C108.865 7.40925 108.494 6.41074 107.827 5.61398C107.16 4.81722 106.237 4.27021 105.212 4.06392C104.187 3.85762 103.121 4.00448 102.192 4.48005C101.263 4.95563 100.527 5.73128 100.106 6.67802L96.4961 16.5416L100.067 6.83154L100.494 5.64177C101.438 3.39429 103.236 1.60275 105.501 0.652431C106.631 0.20955 107.839 -0.00181148 109.054 0.031176C110.268 0.0641635 111.463 0.340812 112.566 0.844329C114.168 1.56007 115.531 2.71311 116.493 4.16798C117.456 5.62285 117.979 7.31913 118 9.05755V31.4712C118.059 32.0984 117.984 32.7307 117.782 33.3279C117.579 33.925 117.253 34.4738 116.824 34.9392C116.394 35.4046 115.872 35.7763 115.289 36.0307C114.706 36.2851 114.076 36.4164 113.439 36.4164C112.802 36.4164 112.172 36.2851 111.589 36.0307C111.007 35.7763 110.484 35.4046 110.055 34.9392C109.626 34.4738 109.299 33.925 109.097 33.3279C108.894 32.7307 108.82 32.0984 108.878 31.4712ZM105.54 0.76757C104.43 1.20851 103.419 1.86299 102.566 2.69309C101.713 3.52319 101.035 4.5124 100.572 5.60339L100.378 6.1407C100.913 5.28716 101.715 4.62987 102.663 4.26893C103.61 3.90799 104.651 3.86319 105.627 4.14135C106.603 4.4195 107.46 5.00537 108.068 5.80973C108.676 6.61409 109.001 7.59287 108.995 8.59699V31.6247C108.937 32.2363 109.009 32.8531 109.206 33.4357C109.403 34.0182 109.721 34.5537 110.139 35.0079C110.557 35.462 111.067 35.8248 111.635 36.073C112.204 36.3213 112.818 36.4495 113.439 36.4495C114.06 36.4495 114.675 36.3213 115.243 36.073C115.811 35.8248 116.321 35.462 116.739 35.0079C117.158 34.5537 117.475 34.0182 117.673 33.4357C117.87 32.8531 117.941 32.2363 117.884 31.6247V9.05755C117.879 7.34504 117.374 5.67025 116.431 4.23394C115.488 2.79762 114.146 1.66071 112.566 0.959468C111.348 0.405219 110.024 0.117216 108.684 0.115118C107.605 0.146161 106.541 0.3671 105.54 0.76757Z" fill="#FFC727"/>
<path opacity="0.3" d="M104.337 4.02994C103.395 4.03018 102.475 4.31273 101.699 4.84032C100.923 5.36791 100.327 6.11574 99.9893 6.98516L100.377 5.98729L100.649 5.29646C101.525 3.44219 103.016 1.93945 104.874 1.03712C106.732 0.134786 108.846 -0.113008 110.865 0.334771C112.885 0.782551 114.69 1.89904 115.98 3.49934C117.27 5.09964 117.969 7.08775 117.961 9.13442V31.4713C117.961 32.6521 117.487 33.7844 116.642 34.6194C115.798 35.4543 114.653 35.9233 113.458 35.9233C112.264 35.9233 111.119 35.4543 110.274 34.6194C109.43 33.7844 108.956 32.6521 108.956 31.4713V8.44358C108.915 7.2591 108.411 6.13649 107.549 5.3129C106.687 4.48932 105.535 4.02927 104.337 4.02994Z" fill="#FFC727"/>
<path d="M80.504 18.115C80.5153 13.3664 78.901 8.7537 75.9238 5.02758C76.8811 4.34923 78.0483 4.02338 79.2231 4.10647C80.0798 4.1343 80.9081 4.41641 81.6004 4.91609C82.2927 5.41578 82.8168 6.10991 83.1047 6.90818L83.4152 7.82929L83.8034 8.78878V31.4711C83.7654 32.561 83.3276 33.6001 82.5716 34.3943C81.8157 35.1884 80.7932 35.6834 79.6952 35.7868C78.5971 35.8902 77.4986 35.595 76.6046 34.9562C75.7106 34.3174 75.0822 33.3787 74.8369 32.3154C78.458 28.4508 80.4804 23.3832 80.504 18.115Z" fill="#FFC727"/>
<g style="mix-blend-mode:multiply" opacity="0.3">
<path d="M80.504 18.1152C80.5153 13.3666 78.901 8.75392 75.9238 5.0278C76.8942 4.37681 78.0516 4.05369 79.2231 4.10669C80.0798 4.13452 80.9081 4.41663 81.6004 4.91631C82.2927 5.416 82.8168 6.11013 83.1047 6.9084C83.1047 6.9084 83.6869 8.52034 83.8034 8.789V31.4713C83.7654 32.5613 83.3276 33.6003 82.5716 34.3945C81.8157 35.1887 80.7932 35.6837 79.6952 35.7871C78.5971 35.8905 77.4986 35.5952 76.6046 34.9564C75.7106 34.3176 75.0822 33.3789 74.8369 32.3156C78.458 28.451 80.4804 23.3834 80.504 18.1152Z" fill="#FFC727"/>
</g>
<path d="M91.7218 25.2535C92.1982 25.2436 92.6606 25.0918 93.0485 24.8179C93.4363 24.544 93.7315 24.1607 93.8954 23.7183L96.4961 16.6948L93.9343 23.7183C93.7674 24.1374 93.4799 24.499 93.1074 24.7582C92.7348 25.0174 92.2935 25.1629 91.8382 25.1767C91.5358 25.1735 91.2376 25.1069 90.9632 24.9812C90.6889 24.8555 90.4447 24.6735 90.2468 24.4475C89.7695 23.8297 89.39 23.1439 89.1211 22.4134C89.4033 23.1574 89.7957 23.8559 90.2856 24.4859C90.4917 24.7248 90.7475 24.917 91.0355 25.0494C91.3235 25.1819 91.637 25.2515 91.9547 25.2535H91.7218Z" fill="#FFC727"/>
<path opacity="0.5" d="M83.997 0C85.7293 0.0035883 87.4243 0.496878 88.8824 1.4217C90.3404 2.34651 91.5005 3.66429 92.226 5.21962L92.4977 5.91045L96.3793 16.58C96.3793 16.58 94.4773 21.7612 93.7786 23.6034C93.62 24.0387 93.3304 24.4154 92.9487 24.683C92.567 24.9506 92.1116 25.0962 91.6437 25.1002C91.3352 25.1 91.0303 25.0349 90.7492 24.9092C90.4681 24.7834 90.2173 24.6 90.0135 24.371C89.5411 23.7502 89.1619 23.065 88.8878 22.3369L88.5773 21.5309L84.1135 9.24947L83.2595 6.83156C82.9717 6.03329 82.4475 5.33916 81.7553 4.83947C81.063 4.33979 80.2346 4.05768 79.378 4.02985C78.2008 3.92241 77.0251 4.25062 76.0786 4.95096C76.8189 3.49217 77.9473 2.26043 79.3424 1.38811C80.7376 0.515804 82.3467 0.035907 83.997 0Z" fill="#FFC727"/>
<path d="M88.9657 22.4518L83.2986 6.79294C83.0206 5.93869 82.4769 5.19306 81.745 4.66238C81.0132 4.1317 80.1305 3.84309 79.2229 3.83772C78.0655 3.80094 76.9255 4.12302 75.9624 4.75883C76.9253 4.11864 78.0627 3.78393 79.2229 3.79934C80.0763 3.819 80.9038 4.09344 81.5965 4.58662C82.2893 5.0798 82.815 5.76865 83.1045 6.56266L88.8881 22.4134L88.9657 22.4518Z" fill="#FFC727"/>
<path fill-rule="evenodd" clip-rule="evenodd" d="M63.2698 0.882729C66.6325 2.33887 69.4865 4.74293 71.4748 7.79428C73.4632 10.8456 74.4976 14.4089 74.4487 18.0384C74.4846 21.8665 73.3159 25.611 71.1044 28.7534C68.8929 31.8958 65.7481 34.2807 62.1053 35.5778C61.7171 35.5778 61.8336 36 62.1053 35.9616C66.5402 35.4476 70.6227 33.3195 73.5575 29.992C76.4923 26.6644 78.0692 22.3758 77.981 17.9616C78.0965 13.7488 76.6973 9.63202 74.0321 6.34323C71.3669 3.05443 67.6085 0.806805 63.425 0C62.8816 0 62.6875 0.652452 63.2698 0.882729Z" fill="#69C1B7"/>
<path fill-rule="evenodd" clip-rule="evenodd" d="M65.7151 6.98504C65.8601 6.87384 65.9776 6.73129 66.0583 6.56831C66.1391 6.40533 66.1811 6.22624 66.1811 6.04474C66.1811 5.86325 66.1391 5.68415 66.0583 5.52117C65.9776 5.35819 65.8601 5.21565 65.7151 5.10445C62.7792 2.69402 59.0484 1.43706 55.2348 1.57353C51.1603 1.82426 47.3227 3.553 44.4576 6.42842C41.5924 9.30383 39.9014 13.1236 39.7085 17.1556C39.5676 19.4541 39.8971 21.7571 40.6775 23.9268C41.4578 26.0964 42.6729 28.088 44.2499 29.7825C41.7304 26.6189 40.523 22.6258 40.873 18.614C41.0725 15.0212 42.5422 11.6117 45.0253 8.98119C47.5084 6.35063 50.8471 4.66609 54.4585 4.22172C58.0133 3.90774 61.5582 4.92092 64.3953 7.0618C64.5907 7.20084 64.8286 7.26911 65.069 7.25513C65.3093 7.24115 65.5375 7.14578 65.7151 6.98504Z" fill="#69C1B7"/>
<path fill-rule="evenodd" clip-rule="evenodd" d="M68.8591 7.33057C65.5042 9.54338 63.0979 12.9072 62.1051 16.7719C60.9916 22.247 61.7565 27.9329 64.2788 32.9297C63.6966 32.0086 60.3972 26.9041 55.9722 26.8657C51.5472 26.8274 48.2091 30.7037 45.8413 30.2431C48.3795 32.8505 51.7546 34.5055 55.39 34.9254C58.6037 35.1834 61.8189 34.4456 64.5893 32.8146C68.4271 30.5815 71.2173 26.9398 72.3525 22.6824C73.0743 20.0353 73.1334 17.2543 72.5247 14.5796C71.9161 11.9048 70.658 9.41686 68.8591 7.33057Z" fill="#81CCAB"/>
<path opacity="0.68" fill-rule="evenodd" clip-rule="evenodd" d="M59.8925 8.13623C61.6393 11.9742 59.155 17.0403 59.3879 21.3004C59.6302 24.7983 60.8238 28.1664 62.8425 31.0488C61.4769 28.6707 59.4937 26.6965 57.0978 25.3303C54.394 23.9251 51.3058 23.414 48.2866 23.8718V24.0637C49.2263 26.7867 50.921 29.1938 53.1774 31.0104C57.4083 34.3878 61.2123 34.8484 63.9294 33.2748C65.8005 31.8574 67.3607 30.0785 68.5151 28.0464C69.6695 26.0144 70.3939 23.7714 70.6445 21.4539C71.1103 12.4731 61.484 8.9422 59.8925 8.13623Z" fill="#81CCAB"/>
</svg>
