<svg width="118" height="36" viewBox="0 0 118 36" fill="none" xmlns="http://www.w3.org/2000/svg">
<g clip-path="url(#clip0_114_610)">
<path d="M37.4961 18.1152C37.4848 13.3666 39.0991 8.75392 42.0763 5.0278C41.2955 3.53695 40.1077 2.29236 38.6476 1.43528C37.1876 0.578205 35.5138 0.142951 33.8162 0.17892C32.1186 0.214888 30.4652 0.720637 29.0436 1.63877C27.622 2.55691 26.4892 3.85066 25.7737 5.37321L25.502 6.06404L21.6204 16.7336L17.7388 6.06404L17.4671 5.37321C16.7291 3.6707 15.4725 2.23813 13.8723 1.27504C12.2721 0.31194 10.4079 -0.133737 8.53947 7.82348e-05C6.17182 0.195148 3.96901 1.27731 2.38164 3.02519C0.794268 4.77308 -0.0577033 7.0546 -8.60542e-07 9.40306V31.4713C-0.0583439 32.0933 0.0151989 32.7204 0.215927 33.3127C0.416655 33.905 0.740152 34.4494 1.16574 34.911C1.59133 35.3727 2.10965 35.7414 2.68757 35.9937C3.26548 36.2461 3.89029 36.3764 4.52204 36.3764C5.15379 36.3764 5.77859 36.2461 6.35651 35.9937C6.93443 35.7414 7.45275 35.3727 7.87834 34.911C8.30393 34.4494 8.62742 33.905 8.82815 33.3127C9.02888 32.7204 9.10242 32.0933 9.04408 31.4713V8.71223L13.9737 22.0683C14.3538 23.739 15.2881 25.2361 16.6279 26.3213C17.9677 27.4065 19.636 28.0176 21.3675 28.0573C23.099 28.097 24.7942 27.5631 26.1834 26.5405C27.5726 25.5178 28.5761 24.0652 29.0342 22.4137C29.0342 22.4137 29.3447 21.6845 29.3447 21.6078L34.0415 8.82737V31.4713C34.036 32.5823 34.451 33.6552 35.2048 34.4792C35.9586 35.3032 36.9967 35.8188 38.1153 35.9246C39.2339 36.0304 40.3521 35.7188 41.2502 35.051C42.1483 34.3832 42.7614 33.4076 42.9691 32.3156C39.4346 28.4123 37.4852 23.3544 37.4961 18.1152Z" fill="#FFC727"/>
<path d="M21.5816 16.6568L18.0106 6.98513C17.6731 6.11571 17.0769 5.36788 16.3008 4.84029C15.5247 4.3127 14.605 4.03015 13.6632 4.02991C13.0584 4.02989 12.4596 4.14829 11.9014 4.37828C11.3431 4.60826 10.8365 4.94529 10.4107 5.3699C9.98483 5.79451 9.64826 6.2983 9.42038 6.85219C9.19249 7.40609 9.0778 7.99912 9.08293 8.59707L13.9737 22.0683C14.3539 23.739 15.2882 25.2361 16.6279 26.3213C17.9677 27.4065 19.636 28.0176 21.3675 28.0573C23.099 28.097 24.7942 27.5631 26.1834 26.5404C27.5727 25.5178 28.5761 24.0652 29.0342 22.4137C28.7601 23.1418 28.381 23.827 27.9086 24.4478C27.7047 24.6768 27.4539 24.8602 27.1729 24.986C26.8918 25.1117 26.5868 25.1768 26.2783 25.177C25.8163 25.1708 25.3666 25.0287 24.9864 24.769C24.6063 24.5093 24.3128 24.1437 24.1435 23.7186C23.2895 21.838 21.5816 16.6568 21.5816 16.6568Z" fill="#FFC727"/>
<g style="mix-blend-mode:multiply" opacity="0.6">
<path d="M34.0026 0C32.2619 0.0103192 30.5608 0.51501 29.1019 1.45399C27.643 2.39297 26.4878 3.72669 25.7737 5.29638L25.5019 5.98721L21.6204 16.6567C21.6204 16.6567 23.2894 21.838 24.1434 23.6802C24.3128 24.1052 24.6062 24.4709 24.9864 24.7306C25.3665 24.9903 25.8162 25.1323 26.2783 25.1386C26.5868 25.1384 26.8917 25.0733 27.1728 24.9475C27.4539 24.8218 27.7047 24.6384 27.9085 24.4094C28.3809 23.7885 28.7601 23.1034 29.0342 22.3753C29.0342 22.3753 29.3447 21.6461 29.3447 21.5693L33.8861 9.24947L34.9342 6.83156C35.222 6.03329 35.7462 5.33916 36.4385 4.83947C37.1307 4.33979 37.9591 4.05768 38.8158 4.02985C39.9929 3.92241 41.1686 4.25062 42.1151 4.95096C41.3597 3.46344 40.2011 2.21276 38.7686 1.33851C37.3361 0.464263 35.686 0.000850731 34.0026 0Z" fill="#FFC727"/>
</g>
<path d="M13.6632 4.02987C14.605 4.03011 15.5247 4.31267 16.3008 4.84025C17.0769 5.36784 17.673 6.11567 18.0105 6.98509L17.7776 6.37102C17.7776 6.10236 17.7776 5.87209 17.5059 5.60343V5.29639C16.7082 3.32455 15.2296 1.69603 13.3326 0.69999C11.4355 -0.296046 9.24293 -0.595141 7.14402 -0.144185C5.04512 0.30677 3.17575 1.47859 1.86786 3.16321C0.55996 4.84783 -0.101828 6.93623 -8.62405e-07 9.05759V31.4712C-0.0583439 32.0932 0.0151989 32.7204 0.215927 33.3127C0.416655 33.905 0.740152 34.4493 1.16574 34.911C1.59133 35.3726 2.10965 35.7414 2.68757 35.9937C3.26548 36.246 3.89029 36.3763 4.52204 36.3763C5.15379 36.3763 5.77859 36.246 6.35651 35.9937C6.93443 35.7414 7.45275 35.3726 7.87834 34.911C8.30393 34.4493 8.62742 33.905 8.82815 33.3127C9.02888 32.7204 9.10242 32.0932 9.04408 31.4712V8.44352C9.07458 7.2558 9.5759 6.12751 10.44 5.30188C11.304 4.47625 12.4616 4.01942 13.6632 4.02987Z" fill="#FFC727"/>
<path d="M4.54145 36C3.33342 35.9899 2.17836 35.5083 1.32777 34.6601C0.477186 33.8119 -4.42509e-05 32.6657 -8.69855e-07 31.4712V9.05759C0.00757887 7.3358 0.50718 5.65119 1.44119 4.19802C2.37521 2.74484 3.70559 1.58227 5.27895 0.844371C6.41664 0.349618 7.64594 0.0941326 8.88881 0.0941326C10.1317 0.0941326 11.361 0.349618 12.4987 0.844371C14.7717 1.77736 16.5836 3.55512 17.5447 5.79533L17.9717 6.9851L21.5428 16.6951L17.8941 6.83158C17.4728 5.88484 16.7365 5.10919 15.8076 4.63361C14.8787 4.15804 13.8131 4.01118 12.7881 4.21748C11.763 4.42377 10.8403 4.97078 10.1733 5.76754C9.50624 6.5643 9.13516 7.56281 9.12171 8.59704V31.6248C9.08143 32.7991 8.58114 33.9119 7.7265 34.7283C6.87186 35.5447 5.72978 36.0007 4.54145 36ZM9.12171 2.13451e-05C7.78149 0.00211915 6.4575 0.290123 5.24013 0.844371C3.65636 1.56493 2.31818 2.72454 1.388 4.18248C0.457819 5.64041 -0.0243551 7.33397 -8.69855e-07 9.05759V31.4712C-0.0578701 32.0828 0.014014 32.6996 0.211052 33.2822C0.408091 33.8648 0.725945 34.4002 1.14428 34.8544C1.56261 35.3085 2.07221 35.6713 2.64048 35.9195C3.20874 36.1678 3.82315 36.296 4.44441 36.296C5.06566 36.296 5.68008 36.1678 6.24834 35.9195C6.8166 35.6713 7.3262 35.3085 7.74454 34.8544C8.16287 34.4002 8.48072 33.8648 8.67776 33.2822C8.8748 32.6996 8.94668 32.0828 8.88881 31.4712V8.44352C8.87207 7.41616 9.20326 6.41277 9.8297 5.59296C10.4561 4.77316 11.3419 4.18402 12.3459 3.91928C13.35 3.65453 14.4148 3.72938 15.3709 4.13192C16.327 4.53445 17.1195 5.24156 17.6224 6.14075V5.60343C16.9373 3.93418 15.7603 2.50723 14.2444 1.50796C12.7284 0.508688 10.9436 -0.0167107 9.12171 2.13451e-05Z" fill="#FFC727"/>
<path opacity="0.3" d="M13.6632 4.02988C14.605 4.03012 15.5247 4.31267 16.3008 4.84026C17.0769 5.36785 17.673 6.11568 18.0105 6.9851L17.6224 5.98723L17.3507 5.2964C16.4901 3.4257 15.0067 1.9034 13.1481 0.983582C11.2894 0.0637631 9.16791 -0.197931 7.13766 0.242178C5.10741 0.682287 3.29123 1.79757 1.99224 3.40189C0.69326 5.00621 -0.00994338 7.00251 -8.62405e-07 9.05759V31.4712C-0.0583439 32.0932 0.0151989 32.7204 0.215927 33.3127C0.416655 33.905 0.740152 34.4493 1.16574 34.911C1.59133 35.3726 2.10965 35.7414 2.68757 35.9937C3.26548 36.246 3.89029 36.3763 4.52204 36.3763C5.15379 36.3763 5.77859 36.246 6.35651 35.9937C6.93443 35.7414 7.45275 35.3726 7.87834 34.911C8.30393 34.4493 8.62742 33.905 8.82815 33.3127C9.02888 32.7204 9.10242 32.0932 9.04408 31.4712V8.44352C9.07458 7.25581 9.5759 6.12752 10.44 5.30189C11.304 4.47626 12.4616 4.01942 13.6632 4.02988Z" fill="#FFC727"/>
<path d="M37.496 18.1152C37.4848 13.3666 39.0991 8.75391 42.0763 5.02779C41.1397 4.33079 39.9869 3.97797 38.8158 4.02992C37.9591 4.05774 37.1308 4.33985 36.4385 4.83954C35.7462 5.33923 35.222 6.03336 34.9342 6.83162L34.4296 7.67597L34.0803 8.63546V31.4713C34.0748 32.5823 34.4898 33.6552 35.2436 34.4792C35.9974 35.3032 37.0355 35.8188 38.1541 35.9246C39.2727 36.0303 40.3909 35.7188 41.289 35.051C42.1871 34.3832 42.8002 33.4076 43.0079 32.3156C39.4594 28.418 37.4959 23.3594 37.496 18.1152Z" fill="#FFC727"/>
<g style="mix-blend-mode:multiply" opacity="0.3">
<path d="M37.4961 18.1152C37.4848 13.3666 39.0991 8.75392 42.0763 5.0278C41.1261 4.35757 39.9828 4.00768 38.8158 4.02993C37.9591 4.05776 37.1308 4.33986 36.4385 4.83955C35.7462 5.33924 35.2221 6.03337 34.9342 6.83164C34.9342 6.83164 34.352 8.44358 34.2743 8.71223V31.4713C34.2689 32.5823 34.6839 33.6553 35.4377 34.4792C36.1914 35.3032 37.2296 35.8188 38.3482 35.9246C39.4668 36.0304 40.585 35.7188 41.4831 35.051C42.3812 34.3832 42.9943 33.4076 43.202 32.3156C39.5829 28.4468 37.549 23.385 37.4961 18.1152Z" fill="#FFC727"/>
</g>
<path d="M26.2782 25.2537C25.8031 25.2387 25.3431 25.0849 24.9562 24.8117C24.5694 24.5385 24.273 24.1581 24.1046 23.7185L21.5039 16.6951L24.0657 23.7185C24.2326 24.1377 24.5201 24.4992 24.8926 24.7585C25.2652 25.0177 25.7065 25.1632 26.1618 25.1769C26.4642 25.1738 26.7624 25.1071 27.0368 24.9814C27.3111 24.8557 27.5553 24.6738 27.7532 24.4477C28.2305 23.83 28.61 23.1441 28.8789 22.4136C28.5967 23.1577 28.2043 23.8561 27.7144 24.4861C27.5083 24.725 27.2525 24.9172 26.9645 25.0497C26.6765 25.1821 26.363 25.2517 26.0454 25.2537H26.2782Z" fill="#FFC727"/>
<path opacity="0.5" d="M34.0026 0C32.2619 0.0103192 30.5608 0.51501 29.1019 1.45399C27.643 2.39297 26.4878 3.72669 25.7737 5.29638L25.5019 5.98721L21.6204 16.6567C21.6204 16.6567 23.2894 21.838 24.1434 23.6802C24.3128 24.1052 24.6062 24.4709 24.9864 24.7306C25.3665 24.9903 25.8162 25.1323 26.2783 25.1386C26.5868 25.1384 26.8917 25.0733 27.1728 24.9475C27.4539 24.8218 27.7047 24.6384 27.9085 24.4094C28.3809 23.7885 28.7601 23.1034 29.0342 22.3753C29.0342 22.3753 29.3447 21.6461 29.3447 21.5693L33.8861 9.24947L34.9342 6.83156C35.222 6.03329 35.7462 5.33916 36.4385 4.83947C37.1307 4.33979 37.9591 4.05768 38.8158 4.02985C39.9929 3.92241 41.1686 4.25062 42.1151 4.95096C41.3597 3.46344 40.2011 2.21276 38.7686 1.33851C37.3361 0.464263 35.686 0.000850731 34.0026 0Z" fill="#FFC727"/>
<path d="M29.0342 22.452L34.7013 6.79314C34.9813 5.93266 35.5309 5.18255 36.2705 4.6513C37.0102 4.12005 37.9016 3.83518 38.8158 3.83792C39.9732 3.80114 41.1132 4.12321 42.0763 4.75902C41.0833 4.21287 39.9479 3.97232 38.8158 4.06819C37.9637 4.09306 37.1387 4.36953 36.4469 4.86201C35.7551 5.35449 35.2283 6.04043 34.9342 6.83152L29.1118 22.4136L29.0342 22.452Z" fill="#FFC727"/>
<path d="M80.5039 18.1152C80.5152 13.3666 78.9009 8.75392 75.9236 5.0278C76.7045 3.53695 77.8923 2.29236 79.3524 1.43528C80.8124 0.578205 82.4862 0.142952 84.1838 0.17892C85.8814 0.214888 87.5348 0.720637 88.9564 1.63877C90.3779 2.55691 91.5108 3.85066 92.2263 5.37321L92.498 6.06404L96.3796 16.7336L100.261 6.06404L100.533 5.37321C101.271 3.6707 102.527 2.23813 104.128 1.27504C105.728 0.31194 107.592 -0.133737 109.46 7.82385e-05C111.801 0.203157 113.977 1.273 115.553 2.99532C117.13 4.71763 117.99 6.96524 117.961 9.28793V31.4713C117.961 32.652 117.487 33.7844 116.642 34.6194C115.798 35.4543 114.653 35.9233 113.459 35.9233C112.264 35.9233 111.119 35.4543 110.275 34.6194C109.43 33.7844 108.956 32.652 108.956 31.4713V8.71223L104.026 22.0683C103.646 23.739 102.712 25.2361 101.372 26.3213C100.032 27.4065 98.364 28.0176 96.6325 28.0573C94.901 28.097 93.2058 27.5631 91.8166 26.5405C90.4273 25.5178 89.4238 24.0652 88.9658 22.4137L88.6552 21.6078L83.9585 8.82737V31.4713C83.9206 32.5613 83.4828 33.6003 82.7268 34.3945C81.9708 35.1887 80.9484 35.6837 79.8503 35.7871C78.7523 35.8905 77.6537 35.5952 76.7597 34.9564C75.8657 34.3176 75.2374 33.3789 74.9921 32.3156C78.5567 28.4278 80.5227 23.3628 80.5039 18.1152Z" fill="#FFC727"/>
<path d="M96.4573 16.6567L99.9895 6.98508C100.359 5.96694 101.082 5.11145 102.029 4.57092C102.977 4.03039 104.087 3.83991 105.164 4.03339C106.24 4.22688 107.212 4.79178 107.906 5.6275C108.601 6.46322 108.973 7.51551 108.956 8.59702L104.026 22.0682C103.646 23.739 102.712 25.236 101.372 26.3212C100.032 27.4065 98.364 28.0175 96.6325 28.0572C94.901 28.097 93.2059 27.563 91.8166 26.5404C90.4274 25.5177 89.4239 24.0651 88.9658 22.4136C89.2399 23.1418 89.6191 23.8269 90.0915 24.4478C90.2953 24.6767 90.5461 24.8602 90.8272 24.9859C91.1083 25.1117 91.4132 25.1768 91.7217 25.177C92.1838 25.1707 92.6335 25.0287 93.0136 24.769C93.3938 24.5093 93.6872 24.1436 93.8566 23.7186C94.5553 21.8763 96.4573 16.6951 96.4573 16.6951" fill="#FFC727"/>
<g style="mix-blend-mode:multiply" opacity="0.6">
<path d="M83.9974 0C85.7296 0.0035883 87.4247 0.496878 88.8827 1.4217C90.3407 2.34651 91.5009 3.66429 92.2263 5.21962L92.4981 5.91045L96.3796 16.58C96.3796 16.58 94.4777 21.7612 93.779 23.6034C93.6204 24.0387 93.3308 24.4154 92.9491 24.683C92.5674 24.9506 92.112 25.0962 91.6441 25.1002C91.3356 25.1 91.0307 25.0349 90.7496 24.9092C90.4685 24.7834 90.2177 24.6 90.0138 24.371C89.5414 23.7502 89.1623 23.065 88.8882 22.3369L88.5777 21.5309L84.1138 9.24947L83.2599 6.83156C82.9721 6.03329 82.4479 5.33916 81.7556 4.83947C81.0633 4.33979 80.235 4.05768 79.3783 4.02985C78.2011 3.92241 77.0255 4.25062 76.079 4.95096C76.8193 3.49217 77.9476 2.26043 79.3428 1.38811C80.7379 0.515804 82.3471 0.035907 83.9974 0Z" fill="#FFC727"/>
</g>
<path d="M104.337 4.02981C103.395 4.03006 102.475 4.31261 101.699 4.8402C100.923 5.36778 100.327 6.11562 99.9895 6.98504L100.222 6.37097C100.309 6.10876 100.413 5.85237 100.533 5.60338V5.29634C101.409 3.44206 102.9 1.93933 104.758 1.037C106.615 0.134664 108.729 -0.11313 110.749 0.334649C112.769 0.782429 114.573 1.89892 115.864 3.49922C117.154 5.09952 117.853 7.08763 117.845 9.13429V31.4712C117.845 32.6519 117.37 33.7843 116.526 34.6192C115.682 35.4542 114.536 35.9232 113.342 35.9232C112.148 35.9232 111.003 35.4542 110.158 34.6192C109.314 33.7843 108.84 32.6519 108.84 31.4712V8.44346C108.8 7.27863 108.312 6.17271 107.475 5.35217C106.638 4.53163 105.515 4.05855 104.337 4.02981Z" fill="#FFC727"/>
<path d="M108.878 31.4712V8.44348C108.865 7.40925 108.494 6.41074 107.827 5.61398C107.16 4.81722 106.237 4.27021 105.212 4.06392C104.187 3.85762 103.121 4.00448 102.192 4.48005C101.263 4.95563 100.527 5.73128 100.106 6.67802L96.4961 16.5416L100.067 6.83154L100.494 5.64177C101.438 3.39429 103.236 1.60275 105.501 0.652431C106.631 0.20955 107.839 -0.00181148 109.054 0.031176C110.268 0.0641635 111.463 0.340812 112.566 0.844329C114.168 1.56007 115.531 2.71311 116.493 4.16798C117.456 5.62285 117.979 7.31913 118 9.05755V31.4712C118.059 32.0984 117.984 32.7307 117.782 33.3279C117.579 33.925 117.253 34.4738 116.824 34.9392C116.394 35.4046 115.872 35.7763 115.289 36.0307C114.706 36.2851 114.076 36.4164 113.439 36.4164C112.802 36.4164 112.172 36.2851 111.589 36.0307C111.007 35.7763 110.484 35.4046 110.055 34.9392C109.626 34.4738 109.299 33.925 109.097 33.3279C108.894 32.7307 108.82 32.0984 108.878 31.4712ZM105.54 0.76757C104.43 1.20851 103.419 1.86299 102.566 2.69309C101.713 3.52319 101.035 4.5124 100.572 5.60339L100.378 6.1407C100.913 5.28716 101.715 4.62987 102.663 4.26893C103.61 3.90799 104.651 3.86319 105.627 4.14135C106.603 4.4195 107.46 5.00537 108.068 5.80973C108.676 6.61409 109.001 7.59287 108.995 8.59699V31.6247C108.937 32.2363 109.009 32.8531 109.206 33.4357C109.403 34.0182 109.721 34.5537 110.139 35.0079C110.557 35.462 111.067 35.8248 111.635 36.073C112.204 36.3213 112.818 36.4495 113.439 36.4495C114.06 36.4495 114.675 36.3213 115.243 36.073C115.811 35.8248 116.321 35.462 116.739 35.0079C117.158 34.5537 117.475 34.0182 117.673 33.4357C117.87 32.8531 117.941 32.2363 117.884 31.6247V9.05755C117.879 7.34504 117.374 5.67025 116.431 4.23394C115.488 2.79762 114.146 1.66071 112.566 0.959468C111.348 0.405219 110.024 0.117216 108.684 0.115118C107.605 0.146161 106.541 0.3671 105.54 0.76757Z" fill="#FFC727"/>
<path opacity="0.3" d="M104.337 4.02981C103.395 4.03006 102.475 4.31261 101.699 4.8402C100.923 5.36778 100.327 6.11562 99.9895 6.98504L100.378 5.98717L100.649 5.29634C101.526 3.44206 103.016 1.93933 104.874 1.037C106.732 0.134664 108.846 -0.11313 110.866 0.334649C112.885 0.782429 114.69 1.89892 115.98 3.49922C117.271 5.09952 117.97 7.08763 117.961 9.13429V31.4712C117.961 32.6519 117.487 33.7843 116.642 34.6192C115.798 35.4542 114.653 35.9232 113.459 35.9232C112.264 35.9232 111.119 35.4542 110.275 34.6192C109.43 33.7843 108.956 32.6519 108.956 31.4712V8.44346C108.916 7.25898 108.411 6.13636 107.549 5.31278C106.687 4.4892 105.535 4.02914 104.337 4.02981Z" fill="#FFC727"/>
<path d="M80.5039 18.1151C80.5152 13.3665 78.9009 8.75382 75.9236 5.0277C76.881 4.34935 78.0482 4.0235 79.223 4.1066C80.0796 4.13442 80.908 4.41653 81.6003 4.91622C82.2926 5.4159 82.8167 6.11003 83.1046 6.9083L83.4151 7.82941L83.8032 8.7889V31.4712C83.7653 32.5612 83.3275 33.6002 82.5715 34.3944C81.8155 35.1886 80.7931 35.6836 79.695 35.787C78.597 35.8904 77.4984 35.5951 76.6044 34.9563C75.7104 34.3175 75.0821 33.3788 74.8368 32.3156C78.4579 28.4509 80.4803 23.3833 80.5039 18.1151Z" fill="#FFC727"/>
<g style="mix-blend-mode:multiply" opacity="0.3">
<path d="M80.5039 18.1151C80.5152 13.3665 78.9009 8.7538 75.9236 5.02768C76.8941 4.37669 78.0515 4.05356 79.223 4.10657C80.0796 4.1344 80.908 4.41651 81.6003 4.91619C82.2926 5.41588 82.8167 6.11001 83.1046 6.90828C83.1046 6.90828 83.6868 8.52022 83.8032 8.78887V31.4712C83.7653 32.5611 83.3275 33.6002 82.5715 34.3944C81.8155 35.1885 80.7931 35.6835 79.695 35.7869C78.597 35.8903 77.4984 35.5951 76.6044 34.9563C75.7104 34.3175 75.0821 33.3788 74.8368 32.3155C78.4579 28.4509 80.4803 23.3833 80.5039 18.1151Z" fill="#FFC727"/>
</g>
<path d="M91.7218 25.2537C92.1982 25.2438 92.6606 25.092 93.0485 24.8181C93.4363 24.5442 93.7315 24.161 93.8954 23.7185L96.4961 16.6951L93.9343 23.7185C93.7674 24.1377 93.4799 24.4992 93.1074 24.7585C92.7348 25.0177 92.2935 25.1632 91.8382 25.1769C91.5358 25.1738 91.2376 25.1071 90.9632 24.9814C90.6889 24.8557 90.4447 24.6738 90.2468 24.4477C89.7695 23.83 89.39 23.1441 89.1211 22.4136C89.4033 23.1577 89.7957 23.8561 90.2856 24.4861C90.4917 24.725 90.7475 24.9172 91.0355 25.0497C91.3235 25.1821 91.637 25.2517 91.9547 25.2537H91.7218Z" fill="#FFC727"/>
<path opacity="0.5" d="M83.9974 0C85.7296 0.0035883 87.4247 0.496878 88.8827 1.4217C90.3407 2.34651 91.5009 3.66429 92.2263 5.21962L92.4981 5.91045L96.3796 16.58C96.3796 16.58 94.4777 21.7612 93.779 23.6034C93.6204 24.0387 93.3308 24.4154 92.9491 24.683C92.5674 24.9506 92.112 25.0962 91.6441 25.1002C91.3356 25.1 91.0307 25.0349 90.7496 24.9092C90.4685 24.7834 90.2177 24.6 90.0138 24.371C89.5414 23.7502 89.1623 23.065 88.8882 22.3369L88.5777 21.5309L84.1138 9.24947L83.2599 6.83156C82.9721 6.03329 82.4479 5.33916 81.7556 4.83947C81.0633 4.33979 80.235 4.05768 79.3783 4.02985C78.2011 3.92241 77.0255 4.25062 76.079 4.95096C76.8193 3.49217 77.9476 2.26043 79.3428 1.38811C80.7379 0.515804 82.3471 0.035907 83.9974 0Z" fill="#FFC727"/>
<path d="M88.9658 22.452L83.2987 6.79318C83.0207 5.93894 82.477 5.1933 81.7452 4.66262C81.0133 4.13195 80.1306 3.84334 79.2231 3.83796C78.0656 3.80119 76.9256 4.12326 75.9625 4.75907C76.9254 4.11888 78.0628 3.78417 79.2231 3.79958C80.0765 3.81924 80.9039 4.09369 81.5967 4.58687C82.2894 5.08005 82.8151 5.76889 83.1046 6.56291L88.8882 22.4137L88.9658 22.452Z" fill="#FFC727"/>
<path fill-rule="evenodd" clip-rule="evenodd" d="M63.2698 0.882729C66.6325 2.33887 69.4865 4.74293 71.4748 7.79428C73.4632 10.8456 74.4976 14.4089 74.4487 18.0384C74.4846 21.8665 73.3159 25.611 71.1044 28.7534C68.8929 31.8958 65.7481 34.2807 62.1053 35.5778C61.7171 35.5778 61.8336 36 62.1053 35.9616C66.5402 35.4476 70.6227 33.3195 73.5575 29.992C76.4923 26.6644 78.0692 22.3758 77.981 17.9616C78.0965 13.7488 76.6973 9.63202 74.0321 6.34323C71.3669 3.05443 67.6085 0.806805 63.425 0C62.8816 0 62.6875 0.652452 63.2698 0.882729Z" fill="#69C1B7"/>
<path fill-rule="evenodd" clip-rule="evenodd" d="M65.7152 6.98504C65.8603 6.87384 65.9777 6.73129 66.0585 6.56831C66.1392 6.40533 66.1812 6.22624 66.1812 6.04474C66.1812 5.86325 66.1392 5.68415 66.0585 5.52117C65.9777 5.35819 65.8603 5.21565 65.7152 5.10445C62.7793 2.69402 59.0485 1.43706 55.2349 1.57353C51.1604 1.82426 47.3228 3.553 44.4577 6.42842C41.5926 9.30383 39.9015 13.1236 39.7086 17.1556C39.5677 19.4541 39.8973 21.7571 40.6776 23.9268C41.4579 26.0964 42.673 28.088 44.25 29.7825C41.7305 26.6189 40.5231 22.6258 40.8731 18.614C41.0727 15.0212 42.5423 11.6117 45.0254 8.98119C47.5085 6.35063 50.8473 4.66609 54.4586 4.22172C58.0134 3.90774 61.5583 4.92092 64.3954 7.0618C64.5909 7.20084 64.8288 7.26911 65.0691 7.25513C65.3094 7.24115 65.5376 7.14578 65.7152 6.98504Z" fill="#69C1B7"/>
<path fill-rule="evenodd" clip-rule="evenodd" d="M68.8592 7.33057C65.5043 9.54338 63.098 12.9072 62.1052 16.7719C60.9917 22.247 61.7566 27.9329 64.2789 32.9297C63.6967 32.0086 60.3974 26.9041 55.9724 26.8657C51.5474 26.8274 48.2092 30.7037 45.8414 30.2431C48.3797 32.8505 51.7548 34.5055 55.3901 34.9254C58.6038 35.1834 61.8191 34.4456 64.5895 32.8146C68.4272 30.5815 71.2174 26.9398 72.3526 22.6824C73.0744 20.0353 73.1335 17.2543 72.5249 14.5796C71.9162 11.9048 70.6581 9.41686 68.8592 7.33057Z" fill="#81CCAB"/>
<path opacity="0.68" fill-rule="evenodd" clip-rule="evenodd" d="M59.8928 8.13647C61.6395 11.9744 59.1553 17.0405 59.3882 21.3007C59.6305 24.7985 60.8241 28.1667 62.8428 31.0491C61.4772 28.671 59.4939 26.6967 57.0981 25.3305C54.3942 23.9254 51.3061 23.4142 48.2869 23.8721V24.064C49.2266 26.7869 50.9213 29.194 53.1777 31.0107C57.4086 34.3881 61.2125 34.8486 63.9296 33.2751C65.8008 31.8576 67.3609 30.0788 68.5153 28.0467C69.6697 26.0146 70.3942 23.7717 70.6448 21.4542C71.1106 12.4734 61.4842 8.94244 59.8928 8.13647Z" fill="#81CCAB"/>
</g>
<defs>
<clipPath id="clip0_114_610">
<rect width="118" height="36" fill="white"/>
</clipPath>
</defs>
</svg>
