<svg width="454" height="564" viewBox="0 0 454 564" fill="none" xmlns="http://www.w3.org/2000/svg">
<rect width="454" height="564" fill="white"/>
<path d="M179.755 349H177.703L171.529 339.658V349H169.477V336.472H171.529L177.703 345.796V336.472H179.755V349ZM186.752 349.162C185.816 349.162 184.97 348.952 184.214 348.532C183.458 348.1 182.864 347.5 182.432 346.732C182 345.952 181.784 345.052 181.784 344.032C181.784 343.024 182.006 342.13 182.45 341.35C182.894 340.57 183.5 339.97 184.268 339.55C185.036 339.13 185.894 338.92 186.842 338.92C187.79 338.92 188.648 339.13 189.416 339.55C190.184 339.97 190.79 340.57 191.234 341.35C191.678 342.13 191.9 343.024 191.9 344.032C191.9 345.04 191.672 345.934 191.216 346.714C190.76 347.494 190.136 348.1 189.344 348.532C188.564 348.952 187.7 349.162 186.752 349.162ZM186.752 347.38C187.28 347.38 187.772 347.254 188.228 347.002C188.696 346.75 189.074 346.372 189.362 345.868C189.65 345.364 189.794 344.752 189.794 344.032C189.794 343.312 189.656 342.706 189.38 342.214C189.104 341.71 188.738 341.332 188.282 341.08C187.826 340.828 187.334 340.702 186.806 340.702C186.278 340.702 185.786 340.828 185.33 341.08C184.886 341.332 184.532 341.71 184.268 342.214C184.004 342.706 183.872 343.312 183.872 344.032C183.872 345.1 184.142 345.928 184.682 346.516C185.234 347.092 185.924 347.38 186.752 347.38ZM208.882 349H206.83L200.656 339.658V349H198.604V336.472H200.656L206.83 345.796V336.472H208.882V349ZM215.879 349.162C214.943 349.162 214.097 348.952 213.341 348.532C212.585 348.1 211.991 347.5 211.559 346.732C211.127 345.952 210.911 345.052 210.911 344.032C210.911 343.024 211.133 342.13 211.577 341.35C212.021 340.57 212.627 339.97 213.395 339.55C214.163 339.13 215.021 338.92 215.969 338.92C216.917 338.92 217.775 339.13 218.543 339.55C219.311 339.97 219.917 340.57 220.361 341.35C220.805 342.13 221.027 343.024 221.027 344.032C221.027 345.04 220.799 345.934 220.343 346.714C219.887 347.494 219.263 348.1 218.471 348.532C217.691 348.952 216.827 349.162 215.879 349.162ZM215.879 347.38C216.407 347.38 216.899 347.254 217.355 347.002C217.823 346.75 218.201 346.372 218.489 345.868C218.777 345.364 218.921 344.752 218.921 344.032C218.921 343.312 218.783 342.706 218.507 342.214C218.231 341.71 217.865 341.332 217.409 341.08C216.953 340.828 216.461 340.702 215.933 340.702C215.405 340.702 214.913 340.828 214.457 341.08C214.013 341.332 213.659 341.71 213.395 342.214C213.131 342.706 212.999 343.312 212.999 344.032C212.999 345.1 213.269 345.928 213.809 346.516C214.361 347.092 215.051 347.38 215.879 347.38ZM225.449 340.756V346.246C225.449 346.618 225.533 346.888 225.701 347.056C225.881 347.212 226.181 347.29 226.601 347.29H227.861V349H226.241C225.317 349 224.609 348.784 224.117 348.352C223.625 347.92 223.379 347.218 223.379 346.246V340.756H222.209V339.082H223.379V336.616H225.449V339.082H227.861V340.756H225.449ZM230.796 337.768C230.424 337.768 230.112 337.642 229.86 337.39C229.608 337.138 229.482 336.826 229.482 336.454C229.482 336.082 229.608 335.77 229.86 335.518C230.112 335.266 230.424 335.14 230.796 335.14C231.156 335.14 231.462 335.266 231.714 335.518C231.966 335.77 232.092 336.082 232.092 336.454C232.092 336.826 231.966 337.138 231.714 337.39C231.462 337.642 231.156 337.768 230.796 337.768ZM231.804 339.082V349H229.752V339.082H231.804ZM238.656 340.756H236.82V349H234.75V340.756H233.58V339.082H234.75V338.38C234.75 337.24 235.05 336.412 235.65 335.896C236.262 335.368 237.216 335.104 238.512 335.104V336.814C237.888 336.814 237.45 336.934 237.198 337.174C236.946 337.402 236.82 337.804 236.82 338.38V339.082H238.656V340.756ZM241.519 337.768C241.147 337.768 240.835 337.642 240.583 337.39C240.331 337.138 240.205 336.826 240.205 336.454C240.205 336.082 240.331 335.77 240.583 335.518C240.835 335.266 241.147 335.14 241.519 335.14C241.879 335.14 242.185 335.266 242.437 335.518C242.689 335.77 242.815 336.082 242.815 336.454C242.815 336.826 242.689 337.138 242.437 337.39C242.185 337.642 241.879 337.768 241.519 337.768ZM242.527 339.082V349H240.475V339.082H242.527ZM244.537 344.032C244.537 343.012 244.741 342.118 245.149 341.35C245.569 340.57 246.145 339.97 246.877 339.55C247.609 339.13 248.449 338.92 249.397 338.92C250.597 338.92 251.587 339.208 252.367 339.784C253.159 340.348 253.693 341.158 253.969 342.214H251.755C251.575 341.722 251.287 341.338 250.891 341.062C250.495 340.786 249.997 340.648 249.397 340.648C248.557 340.648 247.885 340.948 247.381 341.548C246.889 342.136 246.643 342.964 246.643 344.032C246.643 345.1 246.889 345.934 247.381 346.534C247.885 347.134 248.557 347.434 249.397 347.434C250.585 347.434 251.371 346.912 251.755 345.868H253.969C253.681 346.876 253.141 347.68 252.349 348.28C251.557 348.868 250.573 349.162 249.397 349.162C248.449 349.162 247.609 348.952 246.877 348.532C246.145 348.1 245.569 347.5 245.149 346.732C244.741 345.952 244.537 345.052 244.537 344.032ZM255.33 343.996C255.33 343 255.534 342.118 255.942 341.35C256.362 340.582 256.926 339.988 257.634 339.568C258.354 339.136 259.146 338.92 260.01 338.92C260.79 338.92 261.468 339.076 262.044 339.388C262.632 339.688 263.1 340.066 263.448 340.522V339.082H265.518V349H263.448V347.524C263.1 347.992 262.626 348.382 262.026 348.694C261.426 349.006 260.742 349.162 259.974 349.162C259.122 349.162 258.342 348.946 257.634 348.514C256.926 348.07 256.362 347.458 255.942 346.678C255.534 345.886 255.33 344.992 255.33 343.996ZM263.448 344.032C263.448 343.348 263.304 342.754 263.016 342.25C262.74 341.746 262.374 341.362 261.918 341.098C261.462 340.834 260.97 340.702 260.442 340.702C259.914 340.702 259.422 340.834 258.966 341.098C258.51 341.35 258.138 341.728 257.85 342.232C257.574 342.724 257.436 343.312 257.436 343.996C257.436 344.68 257.574 345.28 257.85 345.796C258.138 346.312 258.51 346.708 258.966 346.984C259.434 347.248 259.926 347.38 260.442 347.38C260.97 347.38 261.462 347.248 261.918 346.984C262.374 346.72 262.74 346.336 263.016 345.832C263.304 345.316 263.448 344.716 263.448 344.032ZM270.607 340.756V346.246C270.607 346.618 270.691 346.888 270.859 347.056C271.039 347.212 271.339 347.29 271.759 347.29H273.019V349H271.399C270.475 349 269.767 348.784 269.275 348.352C268.783 347.92 268.537 347.218 268.537 346.246V340.756H267.367V339.082H268.537V336.616H270.607V339.082H273.019V340.756H270.607ZM275.955 337.768C275.583 337.768 275.271 337.642 275.019 337.39C274.767 337.138 274.641 336.826 274.641 336.454C274.641 336.082 274.767 335.77 275.019 335.518C275.271 335.266 275.583 335.14 275.955 335.14C276.315 335.14 276.621 335.266 276.873 335.518C277.125 335.77 277.251 336.082 277.251 336.454C277.251 336.826 277.125 337.138 276.873 337.39C276.621 337.642 276.315 337.768 275.955 337.768ZM276.963 339.082V349H274.911V339.082H276.963ZM283.959 349.162C283.023 349.162 282.177 348.952 281.421 348.532C280.665 348.1 280.071 347.5 279.639 346.732C279.207 345.952 278.991 345.052 278.991 344.032C278.991 343.024 279.213 342.13 279.657 341.35C280.101 340.57 280.707 339.97 281.475 339.55C282.243 339.13 283.101 338.92 284.049 338.92C284.997 338.92 285.855 339.13 286.623 339.55C287.391 339.97 287.997 340.57 288.441 341.35C288.885 342.13 289.107 343.024 289.107 344.032C289.107 345.04 288.879 345.934 288.423 346.714C287.967 347.494 287.343 348.1 286.551 348.532C285.771 348.952 284.907 349.162 283.959 349.162ZM283.959 347.38C284.487 347.38 284.979 347.254 285.435 347.002C285.903 346.75 286.281 346.372 286.569 345.868C286.857 345.364 287.001 344.752 287.001 344.032C287.001 343.312 286.863 342.706 286.587 342.214C286.311 341.71 285.945 341.332 285.489 341.08C285.033 340.828 284.541 340.702 284.013 340.702C283.485 340.702 282.993 340.828 282.537 341.08C282.093 341.332 281.739 341.71 281.475 342.214C281.211 342.706 281.079 343.312 281.079 344.032C281.079 345.1 281.349 345.928 281.889 346.516C282.441 347.092 283.131 347.38 283.959 347.38ZM296.139 338.92C296.919 338.92 297.615 339.082 298.227 339.406C298.851 339.73 299.337 340.21 299.685 340.846C300.033 341.482 300.207 342.25 300.207 343.15V349H298.173V343.456C298.173 342.568 297.951 341.89 297.507 341.422C297.063 340.942 296.457 340.702 295.689 340.702C294.921 340.702 294.309 340.942 293.853 341.422C293.409 341.89 293.187 342.568 293.187 343.456V349H291.135V339.082H293.187V340.216C293.523 339.808 293.949 339.49 294.465 339.262C294.993 339.034 295.551 338.92 296.139 338.92ZM306.425 349.162C305.645 349.162 304.943 349.024 304.319 348.748C303.707 348.46 303.221 348.076 302.861 347.596C302.501 347.104 302.309 346.558 302.285 345.958H304.409C304.445 346.378 304.643 346.732 305.003 347.02C305.375 347.296 305.837 347.434 306.389 347.434C306.965 347.434 307.409 347.326 307.721 347.11C308.045 346.882 308.207 346.594 308.207 346.246C308.207 345.874 308.027 345.598 307.667 345.418C307.319 345.238 306.761 345.04 305.993 344.824C305.249 344.62 304.643 344.422 304.175 344.23C303.707 344.038 303.299 343.744 302.951 343.348C302.615 342.952 302.447 342.43 302.447 341.782C302.447 341.254 302.603 340.774 302.915 340.342C303.227 339.898 303.671 339.55 304.247 339.298C304.835 339.046 305.507 338.92 306.263 338.92C307.391 338.92 308.297 339.208 308.981 339.784C309.677 340.348 310.049 341.122 310.097 342.106H308.045C308.009 341.662 307.829 341.308 307.505 341.044C307.181 340.78 306.743 340.648 306.191 340.648C305.651 340.648 305.237 340.75 304.949 340.954C304.661 341.158 304.517 341.428 304.517 341.764C304.517 342.028 304.613 342.25 304.805 342.43C304.997 342.61 305.231 342.754 305.507 342.862C305.783 342.958 306.191 343.084 306.731 343.24C307.451 343.432 308.039 343.63 308.495 343.834C308.963 344.026 309.365 344.314 309.701 344.698C310.037 345.082 310.211 345.592 310.223 346.228C310.223 346.792 310.067 347.296 309.755 347.74C309.443 348.184 308.999 348.532 308.423 348.784C307.859 349.036 307.193 349.162 306.425 349.162ZM315.014 336.49L314.78 345.22H313.07L312.836 336.49H315.014ZM313.988 349.126C313.616 349.126 313.304 349 313.052 348.748C312.8 348.496 312.674 348.184 312.674 347.812C312.674 347.44 312.8 347.128 313.052 346.876C313.304 346.624 313.616 346.498 313.988 346.498C314.348 346.498 314.654 346.624 314.906 346.876C315.158 347.128 315.284 347.44 315.284 347.812C315.284 348.184 315.158 348.496 314.906 348.748C314.654 349 314.348 349.126 313.988 349.126Z" fill="#10403B"/>
<g filter="url(#filter0_d_112_431)">
<path fill-rule="evenodd" clip-rule="evenodd" d="M218.784 164.039C218.784 156.075 225.24 149.619 233.204 149.619C241.168 149.619 247.624 156.075 247.624 164.039V164.593C264.426 170.531 276.463 186.555 276.463 205.39V237.665H276.706C276.706 237.665 276.761 244.958 281.575 244.958C283.385 244.958 285.301 245.699 286.988 246.625C290.424 248.509 291.959 252.427 291.959 256.345C291.959 264.199 285.592 270.566 277.739 270.566H188.349C180.672 270.566 174.449 264.343 174.449 256.666C174.449 252.57 176.179 248.521 179.795 246.594C181.504 245.683 183.365 244.958 184.958 244.958C187.547 244.958 189.111 242.297 189.945 240.19V205.39C189.945 186.555 201.982 170.531 218.784 164.593V164.039ZM232.772 297C242.555 297 250.485 292.986 250.485 288.035C250.485 283.083 242.555 279.069 232.772 279.069C222.99 279.069 215.059 283.083 215.059 288.035C215.059 292.986 222.99 297 232.772 297Z" fill="white"/>
</g>
<g filter="url(#filter1_d_112_431)">
<ellipse cx="279.517" cy="272.597" rx="15.2072" ry="15.3941" fill="#81CCAB"/>
</g>
<path d="M282.955 238.732C279.913 238.732 278.083 236.266 278.083 232.321V232.304C278.083 228.36 279.913 225.902 282.955 225.902C285.989 225.902 287.828 228.36 287.828 232.304V232.321C287.828 236.266 285.989 238.732 282.955 238.732ZM282.955 236.919C284.623 236.919 285.594 235.183 285.594 232.321V232.304C285.594 229.442 284.623 227.724 282.955 227.724C281.28 227.724 280.317 229.442 280.317 232.304V232.321C280.317 235.183 281.28 236.919 282.955 236.919Z" fill="white"/>
<path fill-rule="evenodd" clip-rule="evenodd" d="M220.243 227.92C220.243 228.613 220.655 229.238 221.304 229.479C223.388 230.254 228.219 231.838 232.902 231.838C237.572 231.838 242.243 230.262 244.263 229.485C244.9 229.24 245.3 228.623 245.3 227.94C245.3 226.683 243.991 225.811 242.8 226.213C240.424 227.017 236.656 228.036 232.839 228.036C228.99 228.036 225.141 227 222.73 226.193C221.542 225.796 220.243 226.667 220.243 227.92Z" fill="#81CCAB"/>
<path opacity="0.2" fill-rule="evenodd" clip-rule="evenodd" d="M213.331 212.615C213.331 212.124 213.521 211.651 213.892 211.329C214.81 210.531 216.717 209.097 218.569 209.097C220.429 209.097 222.288 210.543 223.171 211.339C223.522 211.656 223.7 212.113 223.7 212.586C223.7 214.286 221.378 215.248 219.743 214.781C219.35 214.669 218.947 214.603 218.543 214.603C218.115 214.603 217.687 214.677 217.271 214.801C215.635 215.288 213.331 214.322 213.331 212.615Z" fill="#97C285"/>
<path opacity="0.2" fill-rule="evenodd" clip-rule="evenodd" d="M242.708 212.615C242.708 212.124 242.898 211.651 243.269 211.329C244.187 210.531 246.095 209.097 247.947 209.097C249.806 209.097 251.666 210.543 252.548 211.339C252.899 211.656 253.077 212.113 253.077 212.586C253.077 214.286 250.755 215.248 249.12 214.781C248.728 214.669 248.325 214.603 247.92 214.603C247.493 214.603 247.065 214.677 246.648 214.801C245.013 215.288 242.708 214.322 242.708 212.615Z" fill="#97C285"/>
<path opacity="0.1" d="M174.063 182.371C172.386 172.951 179.807 161.812 188.496 159.496" stroke="#7BC9C0" stroke-width="3" stroke-linecap="round" stroke-linejoin="round"/>
<path opacity="0.1" d="M160.309 178.611C158.138 166.418 167.744 151.998 178.992 149" stroke="#7BC9C0" stroke-width="3" stroke-linecap="round" stroke-linejoin="round"/>
<defs>
<filter id="filter0_d_112_431" x="139.449" y="128.619" width="187.51" height="217.381" filterUnits="userSpaceOnUse" color-interpolation-filters="sRGB">
<feFlood flood-opacity="0" result="BackgroundImageFix"/>
<feColorMatrix in="SourceAlpha" type="matrix" values="0 0 0 0 0 0 0 0 0 0 0 0 0 0 0 0 0 0 127 0" result="hardAlpha"/>
<feOffset dy="14"/>
<feGaussianBlur stdDeviation="17.5"/>
<feColorMatrix type="matrix" values="0 0 0 0 0.208044 0 0 0 0 0.283314 0 0 0 0 0.429427 0 0 0 0.057 0"/>
<feBlend mode="normal" in2="BackgroundImageFix" result="effect1_dropShadow_112_431"/>
<feBlend mode="normal" in="SourceGraphic" in2="effect1_dropShadow_112_431" result="shape"/>
</filter>
<filter id="filter1_d_112_431" x="256.31" y="251.203" width="46.4146" height="46.7881" filterUnits="userSpaceOnUse" color-interpolation-filters="sRGB">
<feFlood flood-opacity="0" result="BackgroundImageFix"/>
<feColorMatrix in="SourceAlpha" type="matrix" values="0 0 0 0 0 0 0 0 0 0 0 0 0 0 0 0 0 0 127 0" result="hardAlpha"/>
<feOffset dy="2"/>
<feGaussianBlur stdDeviation="4"/>
<feColorMatrix type="matrix" values="0 0 0 0 0.337255 0 0 0 0 0.411765 0 0 0 0 1 0 0 0 0.15 0"/>
<feBlend mode="normal" in2="BackgroundImageFix" result="effect1_dropShadow_112_431"/>
<feBlend mode="normal" in="SourceGraphic" in2="effect1_dropShadow_112_431" result="shape"/>
</filter>
</defs>
</svg>
