<svg width="64" height="64" viewBox="0 0 64 64" fill="none" xmlns="http://www.w3.org/2000/svg">
<path d="M30.3751 16.96C24.9451 16.255 19.5901 14.95 14.5301 18.105C9.80509 21.055 6.18509 26.09 4.80509 31.48C2.85509 39.095 4.01509 47.765 9.22009 53.865C12.0801 57.21 16.8351 60.775 21.0851 62.1C31.9951 65.51 45.4801 63.895 52.3251 53.73C54.2801 50.83 56.2401 46.895 56.9551 43.455C58.9601 33.825 56.7151 22.54 46.7451 18.395C42.3051 16.55 37.5601 17.565 32.9201 17.23C32.0651 17.165 31.2201 17.07 30.3751 16.96Z" fill="#DB4437"/>
<path d="M46.9599 0.289991C50.5799 0.169991 56.6499 1.78999 59.1049 4.37499C59.4049 4.69999 59.9799 5.15499 60.0649 5.55499C60.1999 6.20999 59.6799 6.76999 59.2999 7.24999C53.8999 14.145 42.8399 17.72 35.8399 13.035C34.8599 12.38 35.3849 11.165 35.5849 10.16C36.3899 6.14999 39.4849 2.46999 43.2999 1.01499C44.4949 0.559991 45.7299 0.329991 46.9599 0.289991Z" fill="#BDCF46"/>
<path d="M35.7051 10.96C35.6701 10.83 35.6051 10.715 35.5101 10.635C35.3101 10.48 34.8951 10.325 34.6601 10.24C34.3051 10.105 33.9251 10.05 33.5551 10.05C33.4151 10.05 33.2801 10.055 33.1501 10.07C32.6501 10.13 32.2201 10.315 31.9351 10.72C31.5551 11.245 31.6201 11.84 31.5201 12.45C31.3801 13.32 30.9701 14.11 30.7451 14.96C30.5701 15.615 30.4301 16.28 30.3051 16.95C30.2101 17.44 30.1301 17.93 30.0701 18.425C29.8551 20.26 29.5551 22.095 29.6351 23.95C29.6401 24.205 29.6501 24.46 29.6651 24.715C29.6701 24.845 29.6851 24.97 29.7051 25.1C29.7351 25.27 29.7451 25.465 29.7651 25.66C29.7751 25.73 29.7801 25.8 29.7901 25.87C29.8451 26.17 29.9501 26.45 30.2351 26.605C30.5901 26.805 31.0101 26.895 31.4301 26.9C31.5601 26.9 31.6851 26.88 31.8151 26.87L32.1451 26.85C32.3051 26.805 32.4651 26.745 32.6351 26.7C32.9001 26.635 33.1601 26.5 33.3451 26.295C33.5101 26.11 33.5301 25.92 33.5201 25.7L33.5051 25.545C33.4851 25.35 33.4701 25.15 33.4601 24.95C33.4401 24.555 33.4251 24.15 33.4151 23.755C33.3851 22.865 33.4001 21.965 33.4801 21.075C33.5351 20.545 33.5601 20.005 33.6051 19.475C33.6601 18.735 33.7651 18 33.8901 17.265C33.9201 17.11 33.9351 16.96 33.9651 16.81C34.1451 15.87 34.4801 15.025 34.8401 14.135C35.0051 13.725 35.0751 13.29 35.2251 12.895C35.3901 12.485 35.7551 12.26 35.7551 11.77C35.7551 11.545 35.7751 11.22 35.7051 10.96Z" fill="#855C52"/>
<path d="M19.5851 21.795C18.9451 20.935 17.1901 20.85 15.9401 21.28C14.3951 21.81 13.0201 22.965 12.0551 24.265C11.2251 25.385 10.0051 27.735 11.2101 29.02C11.8001 29.645 12.5151 29.4 13.1951 29.06C14.4301 28.445 15.1751 27.1 16.2151 26.235C17.2851 25.35 21.0701 23.76 19.5851 21.795Z" fill="white"/>
<path d="M30.01 25.505C28.84 25.255 27.6999 24.84 26.6299 24.315C26.0699 24.04 24.45 22.75 24.285 24.105C24.075 25.74 26.33 27.15 27.45 27.675C29.38 28.585 31.54 28.91 33.615 28.49C35.615 28.085 37.3199 27.1 38.5999 25.37C38.7649 25.145 38.875 24.88 38.955 24.63C39.24 23.725 38.25 23.715 37.72 23.97C37.29 24.175 36.9199 24.505 36.4949 24.71C35.6749 25.105 34.8149 25.425 33.9399 25.595C32.6299 25.845 31.305 25.78 30.01 25.505Z" fill="#B93221"/>
</svg>
