<svg width="24" height="23" viewBox="0 0 24 23" fill="none" xmlns="http://www.w3.org/2000/svg">
<path d="M24 16.3773L17.4115 22.6667L14.2297 19.6234L15.2942 18.609L17.4115 20.6153L22.9354 15.3628L24 16.3773ZM12.1124 4.32819V10.0991H16.6545V11.5419H10.5983V4.32819H12.1124ZM11.3553 20.1982C11.4815 20.1982 11.6077 20.1945 11.7339 20.187C11.86 20.1795 11.9862 20.1719 12.1124 20.1644L13.4608 21.4494C13.106 21.5095 12.7551 21.5546 12.4081 21.5846C12.0611 21.6147 11.7102 21.6335 11.3553 21.641C10.3144 21.641 9.31296 21.5132 8.35091 21.2577C7.38886 21.0023 6.48201 20.6378 5.63036 20.1644C4.77871 19.691 4.0138 19.1275 3.33563 18.4737C2.65747 17.82 2.06604 17.0874 1.56136 16.2758C1.05668 15.4643 0.674224 14.6039 0.413997 13.6947C0.15377 12.7855 0.0157713 11.8274 0 10.8205C0 9.82861 0.134056 8.8743 0.402169 7.95757C0.670281 7.04083 1.05274 6.17669 1.54953 5.36516C2.04633 4.55362 2.63775 3.82474 3.3238 3.17852C4.00986 2.53229 4.77871 1.96873 5.63036 1.48782C6.48201 1.00691 7.38492 0.642466 8.33908 0.394497C9.29325 0.146527 10.2987 0.0150285 11.3553 0C12.3963 0 13.3977 0.127742 14.3598 0.383226C15.3218 0.638709 16.2287 1.00315 17.0803 1.47655C17.932 1.94994 18.6969 2.51351 19.3751 3.16725C20.0532 3.82098 20.6447 4.55362 21.1493 5.36516C21.654 6.17669 22.0365 7.03707 22.2967 7.9463C22.5569 8.85552 22.6949 9.81358 22.7107 10.8205C22.7107 11.1962 22.687 11.5757 22.6397 11.9589L20.6525 13.8637C21.0153 12.8644 21.1966 11.8499 21.1966 10.8205C21.1966 9.95635 21.0784 9.12603 20.8418 8.32952C20.6052 7.53301 20.274 6.7891 19.8482 6.0978C19.4224 5.40649 18.9098 4.77153 18.3105 4.19294C17.7112 3.61434 17.0488 3.12592 16.3233 2.72766C15.5978 2.32941 14.8132 2.01381 13.9694 1.78087C13.1257 1.54793 12.2543 1.43522 11.3553 1.44273C10.4485 1.44273 9.57713 1.55545 8.74125 1.78087C7.90537 2.0063 7.12469 2.3219 6.39921 2.72766C5.67373 3.13343 5.00739 3.62186 4.4002 4.19294C3.793 4.76402 3.28043 5.39522 2.86249 6.08652C2.44455 6.77783 2.11336 7.5255 1.8689 8.32952C1.62445 9.13354 1.50616 9.96387 1.51405 10.8205C1.51405 11.6846 1.63233 12.5149 1.8689 13.3115C2.10547 14.108 2.43667 14.8519 2.86249 15.5432C3.28832 16.2345 3.80089 16.8694 4.4002 17.448C4.99951 18.0266 5.6619 18.5151 6.38738 18.9133C7.11286 19.3116 7.89749 19.6272 8.74125 19.8601C9.58502 20.093 10.4564 20.2058 11.3553 20.1982Z" fill="#F3FFF1"/>
</svg>
